<svg width="72" height="72" fill="none" xmlns="http://www.w3.org/2000/svg"><g clip-path="url(#clip0)" fill="#FF5200"><path d="M58.18 29.125l-5.536-.816a19.127 19.127 0 00-1.83-3.228l2.106-5.391c.39-1.02-.012-2.144-.93-2.658l-7.95-4.724a2.126 2.126 0 00-2.787.532l-3.45 4.534a15.559 15.559 0 00-3.608 0l-3.452-4.54c-.652-.846-1.81-1.076-2.776-.532l-7.935 4.716c-.904.506-1.316 1.644-.95 2.678l2.102 5.377a18.468 18.468 0 00-1.828 3.234l-5.518.814C12.79 29.257 12 30.183 12 31.273v9.458c0 1.092.79 2.018 1.82 2.148l5.536.816a19.123 19.123 0 001.83 3.228l-2.106 5.391c-.39 1.022.012 2.146.93 2.658l7.98 4.744c.34.19.707.282 1.07.282.643 0 1.27-.29 1.69-.836l3.447-4.534c1.064.116 2.548.116 3.61 0l3.452 4.54c.65.844 1.808 1.076 2.776.534l2.3-1.368a1 1 0 00-1.022-1.718l-2.466 1.338-3.794-4.99a1.005 1.005 0 00-.924-.386c-1.212.156-3.04.156-4.252 0a1.011 1.011 0 00-.924.386l-3.96 5.02-7.98-4.744c-.075-.044-.087-.14-.061-.206l2.3-5.887a1 1 0 00-.124-.954c-.93-1.278-1.628-2.514-2.132-3.778a1.002 1.002 0 00-.784-.62l-6.094-.898c-.006 0-.106-.168-.112-.168v-9.458l.112-.17 6.094-.898a1 1 0 00.784-.62 16.402 16.402 0 012.126-3.767 1 1 0 00.13-.962l-2.29-5.856c-.028-.084-.002-.206.076-.25l8.123-4.7 3.794 4.99c.216.282.564.426.924.386 1.664-.214 2.588-.214 4.252 0 .362.042.708-.102.924-.386l3.96-5.018 7.977 4.742c.077.044.09.14.065.206l-2.3 5.887a1 1 0 00.124.954c.93 1.278 1.628 2.514 2.132 3.778.132.332.431.568.784.62l6.093.898c.006.002.106.17.112.17v9.458l-.112.168-3.907.576a.997.997 0 00-.844 1.134c.08.546.583.93 1.133.844l3.888-.574c1.048-.134 1.84-1.058 1.84-2.15v-9.458c-.002-1.09-.79-2.016-1.82-2.148z"/><path d="M47.655 40.239c-1.116-1.116-1.724-2.532-1.664-3.886.106-2.468-.926-4.824-3.156-7.202-1.908-2.034-4.47-3.187-6.962-3.151-2.221.028-4.34.804-6.125 2.245a.997.997 0 00.114 1.634l6.111 3.666a5.436 5.436 0 01-2.93 4.31l-5.471-3.284c-.302-.182-.722-.168-1.034.002a1 1 0 00-.52.82 9.924 9.924 0 002.706 7.462 10.046 10.046 0 007.278 3.14c.736 0 1.473-.096 2.283-.302l12.766 12.765a5.2 5.2 0 003.708 1.536c2.89 0 5.24-2.352 5.24-5.242 0-1.4-.546-2.716-1.536-3.706L47.655 40.24zm7.104 17.757h-.004c-.866 0-1.68-.338-2.292-.95L39.285 43.87a1.004 1.004 0 00-.992-.252c-.856.258-1.582.378-2.29.378a7.925 7.925 0 01-5.821-2.512 7.927 7.927 0 01-2.088-4.266l4.394 2.636c.294.176.654.188.962.038l.421-.21a7.436 7.436 0 004.13-6.684c0-.352-.186-.678-.486-.858l-5.28-3.168a7.764 7.764 0 013.664-.974c1.93-.028 3.954.894 5.478 2.52 1.868 1.994 2.7 3.82 2.616 5.748-.084 1.912.736 3.876 2.248 5.388l10.807 10.81c.614.611.95 1.425.95 2.293a3.24 3.24 0 01-3.24 3.24z"/></g><defs><clipPath id="clip0"><path fill="#fff" d="M12 12h48v48H12z"/></clipPath></defs></svg>