<svg width="72" height="72" fill="none" xmlns="http://www.w3.org/2000/svg"><g clip-path="url(#clip0)" fill="#FF5200"><path d="M59.895 50.587a6.541 6.541 0 00-7.476-3.44l-6.483 1.622c-.288-2.5-1.766-3.974-4.724-4.713L23.869 40.2c.054-.38.096-.744.126-1.082a1.002 1.002 0 00-.308-.814c-1.714-1.624-8.567-2.148-10.627-2.272a.996.996 0 00-1.06.998v17.999a1 1 0 001 1h6a.999.999 0 00.95-.69c.025-.08.161-.5.367-1.15l14.33 4.776c1.68.633 2.84 1.001 4.143 1.001 2.026 0 4.402-.888 9.626-3.023l10.999-5a.998.998 0 00.48-1.356zM18.27 54.031H13.998V38.104c3.214.254 6.683.806 7.943 1.418-.53 4.38-2.927 12.159-3.671 14.509zm29.35 1.074c-8.412 3.448-8.702 3.342-12.304 1.976l-14.41-4.802c.821-2.722 1.967-6.758 2.623-10.103l17.223 3.827c2.214.552 3.106 1.426 3.228 3.252l-1.92.478c-.712.18-1.47.2-2.192.054l-8.675-1.736a1 1 0 00-.392 1.96l8.677 1.736a6.987 6.987 0 003.068-.076l2.682-.67c.004-.002.01 0 .014 0l7.661-1.916a4.55 4.55 0 014.63 1.514l-9.913 4.506z"/><path d="M54.998 12.034H31c-2.756 0-5 2.242-5 5v17.998c0 2.756 2.244 5 5 5h23.998c2.756 0 5-2.242 5-5V17.033c0-2.757-2.244-5-5-5zm3 22.998c0 1.652-1.346 3-3 3H31c-1.654 0-3-1.346-3-3V22.033h29.998v13zm0-14.999H28v-3c0-1.656 1.346-3 3-3h23.998c1.654 0 3 1.346 3 3v3z"/><path d="M31 18.033a1 1 0 100-2 1 1 0 000 2zM34.998 18.033a1 1 0 100-2 1 1 0 000 2zM38.998 18.033a1 1 0 100-2 1 1 0 000 2z"/></g><defs><clipPath id="clip0"><path fill="#fff" d="M12 12h48v48H12z"/></clipPath></defs></svg>