<svg width="72" height="72" fill="none" xmlns="http://www.w3.org/2000/svg"><g clip-path="url(#clip0)" fill="#FF5200"><path d="M55 12H17c-2.758 0-5 2.244-5 5v38c0 2.756 2.242 5 5 5h38c2.758 0 5-2.244 5-5V17c0-2.756-2.242-5-5-5zm3 43c0 1.654-1.346 3-3 3H17c-1.654 0-3-1.346-3-3V17c0-1.654 1.346-3 3-3h38c1.654 0 3 1.346 3 3v38z"/><path d="M59 20H13a1 1 0 000 2h46a1 1 0 000-2zM51.946 34.676A1.001 1.001 0 0051 34H40.678l-3.75-9.372c-.302-.76-1.556-.76-1.856 0L31.322 34H21a1 1 0 00-.612 1.79l8.472 6.59-2.824 10.358a1 1 0 001.518 1.094L36 48.202l8.446 5.63a.995.995 0 001.138-.02 1 1 0 00.38-1.074L43.14 42.38l8.474-6.59a1 1 0 00.332-1.114zM41.388 41.21a1.003 1.003 0 00-.352 1.052l2.296 8.424-6.778-4.518a.995.995 0 00-1.106 0l-6.778 4.518 2.296-8.424a1.002 1.002 0 00-.352-1.052l-6.7-5.21H32a1 1 0 00.928-.63L36 27.692l3.072 7.68A1 1 0 0040 36h8.086l-6.698 5.21zM17 18a1 1 0 100-2 1 1 0 000 2zM21 18a1 1 0 100-2 1 1 0 000 2zM25 18a1 1 0 100-2 1 1 0 000 2z"/></g><defs><clipPath id="clip0"><path fill="#fff" d="M12 12h48v48H12z"/></clipPath></defs></svg>