<svg width="72" height="72" fill="none" xmlns="http://www.w3.org/2000/svg"><path d="M55 12H17c-2.758 0-5 2.244-5 5v38c0 2.756 2.242 5 5 5h38c2.758 0 5-2.244 5-5V17c0-2.756-2.242-5-5-5zm3 43c0 1.654-1.346 3-3 3H17c-1.654 0-3-1.346-3-3V22h44v33zm0-35H14v-3c0-1.654 1.346-3 3-3h38c1.654 0 3 1.346 3 3v3z" fill="#FF5200"/><path d="M17 18a1 1 0 100-2 1 1 0 000 2zM21 18a1 1 0 100-2 1 1 0 000 2zM25 18a1 1 0 100-2 1 1 0 000 2zM27.706 38.296l-6-6a1 1 0 00-1.413 1.414l5.291 5.292-5.291 5.292a1 1 0 001.413 1.416l6-6a1 1 0 000-1.414zM41 42H31a1 1 0 000 2h10a1 1 0 000-2z" fill="#FF5200"/></svg>