<?xml version="1.0"?>
<svg xmlns="http://www.w3.org/2000/svg" height="512px" viewBox="0 0 64 64" width="512px" class=""><g><path d="m47 26a.988.988 0 0 0 .747-.348 1 1 0 0 1 1.506 0 .988.988 0 0 0 .747.348 1 1 0 0 0 0-2 .988.988 0 0 0 -.747.348 1.035 1.035 0 0 1 -1.506 0 .988.988 0 0 0 -.747-.348 1 1 0 0 0 0 2z" data-original="#000000" class="active-path" data-old_color="#ffffff" fill="#ffffff"/><path d="m26.581 14.455a2.1 2.1 0 0 0 .419-1.265 2.207 2.207 0 0 0 -2.19-2.19h-4.81v-2h4.81a4.109 4.109 0 0 1 2.676 1h7.1l-6.939-4.048-10.638-1.934-9.009 1.802v8.562l5.236 2.618h5.628l7.175-1.994a1.973 1.973 0 0 0 .542-.551z" data-original="#000000" class="active-path" data-old_color="#ffffff" fill="#ffffff"/><path d="m26.964 16.787a.952.952 0 0 1 -.245.106l-3.719 1.037v.07h32v-2h-27.091a4.057 4.057 0 0 1 -.945.787z" data-original="#000000" class="active-path" data-old_color="#ffffff" fill="#ffffff"/><path d="m29 13.19a4.177 4.177 0 0 1 -.088.81h26.088v-1a1 1 0 0 0 -1-1h-25.2a4.1 4.1 0 0 1 .2 1.19z" data-original="#000000" class="active-path" data-old_color="#ffffff" fill="#ffffff"/><path d="m4 4h2v14h-2z" data-original="#000000" class="active-path" data-old_color="#ffffff" fill="#ffffff"/><path d="m54 30a1 1 0 0 0 1-1v-9h-32v9a1 1 0 0 0 1 1zm-7-8a2.976 2.976 0 0 1 1.5.408 3 3 0 1 1 0 5.184 3 3 0 1 1 -1.5-5.592zm-22 0h4v2h-4zm0 4h7v2h-7z" data-original="#000000" class="active-path" data-old_color="#ffffff" fill="#ffffff"/><path d="m33 55a1 1 0 0 0 0-2z" data-original="#000000" class="active-path" data-old_color="#ffffff" fill="#ffffff"/><path d="m58 36h2v14h-2z" data-original="#000000" class="active-path" data-old_color="#ffffff" fill="#ffffff"/><path d="m30 50a1 1 0 0 0 1 1v-2a1 1 0 0 0 -1 1z" data-original="#000000" class="active-path" data-old_color="#ffffff" fill="#ffffff"/><path d="m36.353 37.952-8.472 4.948a9.967 9.967 0 0 1 4.119-.9 9.812 9.812 0 0 1 3.787.765 4.183 4.183 0 0 1 3.405-1.765h4.808v2h-4.808a2.192 2.192 0 0 0 -1.231 4.006l7.176 1.994h5.627l5.236-2.618v-8.562l-9.009-1.8z" data-original="#000000" class="active-path" data-old_color="#ffffff" fill="#ffffff"/><path d="m37.282 48.894a1.043 1.043 0 0 1 -.247-.107 3.981 3.981 0 0 1 -1.979-4.15 8.079 8.079 0 0 0 -8.387 1.406 8 8 0 1 0 13.331 5.957 7.8 7.8 0 0 0 -.4-2.462zm-1.282 5.106a3 3 0 0 1 -3 3v1h-2v-1a3 3 0 0 1 -3-3h2a1 1 0 0 0 1 1v-2a3 3 0 0 1 0-6v-1h2v1a3 3 0 0 1 3 3h-2a1 1 0 0 0 -1-1v2a3 3 0 0 1 3 3z" data-original="#000000" class="active-path" data-old_color="#ffffff" fill="#ffffff"/></g> </svg>
