<?xml version="1.0" encoding="iso-8859-1"?>
<!-- Generator: Adobe Illustrator 19.0.0, SVG Export Plug-In . SVG Version: 6.00 Build 0)  -->
<svg version="1.1" id="Capa_1" xmlns="http://www.w3.org/2000/svg" xmlns:xlink="http://www.w3.org/1999/xlink" x="0px" y="0px"
	 viewBox="0 0 480.002 480.002" style="enable-background:new 0 0 480.002 480.002;" xml:space="preserve">
<g>
	<g>
		<path d="M280.504,133.193c1.144-3.024,4.072-5.192,7.496-5.192c4.408,0,8,3.592,8,8h16c0-13.232-10.768-24-24-24s-24,10.768-24,24
			c0,2.12,0.84,4.16,2.344,5.656l29.152,29.152c-1.144,3.024-4.072,5.192-7.496,5.192c-4.408,0-8-3.592-8-8h-16
			c0,13.232,10.768,24,24,24s24-10.768,24-24c0-2.12-0.84-4.16-2.344-5.656L280.504,133.193z"/>
	</g>
</g>
<g>
	<g>
		<path d="M288,80.001c-8.424,0-16.48,1.528-24,4.2v-44.2c0-22.056-17.944-40-40-40H40c-22.056,0-40,17.944-40,40v336
			c0,22.056,17.944,40,40,40h56c0,2.12,0.84,4.16,2.344,5.656L128,451.313v28.688h16v-32c0-2.12-0.84-4.16-2.344-5.656L112,412.689
			v-35.392l7.592-22.768c0.272-0.816,0.408-1.672,0.408-2.528v-112c0-4.408,3.592-8,8-8s8,3.592,8,8v72v40v8h16v-8v-40
			c0-4.408,3.592-8,8-8s8,3.592,8,8v24v24h16v-24v-24c0-4.408,3.592-8,8-8s8,3.592,8,8v8v32v8h16v-8v-32c0-4.408,3.592-8,8-8
			s8,3.592,8,8v16v24h16v-24c0-4.408,3.592-8,8-8c4.408,0,8,3.592,8,8v46.704l-23.592,70.768c-0.272,0.816-0.408,1.672-0.408,2.528
			v24h16v-22.704l23.592-70.768c0.272-0.816,0.408-1.672,0.408-2.528v-48c0-10.416-6.712-19.216-16-22.528v-93.672
			c7.52,2.672,15.576,4.2,24,4.2c39.696,0,72-32.304,72-72S327.696,80.001,288,80.001z M16,40.001c0-13.232,10.768-24,24-24h184
			c13.232,0,24,10.768,24,24v8H16V40.001z M96.408,373.473c-0.272,0.816-0.408,1.672-0.408,2.528v24H40c-13.232,0-24-10.768-24-24
			v-24h87.568L96.408,373.473z M128,216.001c-13.232,0-24,10.768-24,24v8H88c-4.408,0-8-3.592-8-8v-32c0-4.408,3.592-8,8-8h80
			c4.408,0,8,3.592,8,8v32c0,4.408-3.592,8-8,8h-16v-8C152,226.769,141.232,216.001,128,216.001z M248,313.369
			c-0.272,0.096-0.512,0.24-0.776,0.344c-0.048,0.016-0.104,0.024-0.152,0.048c-2.76-10.2-12.008-17.76-23.072-17.76
			c-4.296,0-8.272,1.224-11.768,3.208c-4.256-6.712-11.712-11.208-20.232-11.208c-6.168,0-11.744,2.408-16,6.24
			c-4.256-3.84-9.832-6.24-16-6.24c-2.816,0-5.488,0.576-8,1.472v-25.472h16c13.232,0,24-10.768,24-24v-32c0-13.232-10.768-24-24-24
			H88c-13.232,0-24,10.768-24,24v32c0,13.232,10.768,24,24,24h16v72H16v-272h232v28.176c-2.376,1.592-4.624,3.352-6.792,5.216
			c-0.296,0.256-0.568,0.52-0.856,0.784c-1.808,1.608-3.536,3.296-5.176,5.072c-0.328,0.36-0.656,0.712-0.984,1.08
			c-1.744,1.968-3.392,4.016-4.92,6.168c-0.048,0.072-0.104,0.136-0.16,0.208c-3.272,4.648-5.984,9.688-8.088,15.048
			c-0.12,0.296-0.216,0.6-0.328,0.896c-0.848,2.24-1.576,4.52-2.2,6.856c-0.152,0.576-0.304,1.152-0.448,1.736
			c-0.512,2.12-0.912,4.272-1.224,6.464c-0.096,0.656-0.224,1.296-0.296,1.952c-0.32,2.744-0.528,5.52-0.528,8.344
			c0,2.824,0.208,5.6,0.528,8.344c0.08,0.656,0.2,1.296,0.296,1.952c0.312,2.184,0.72,4.344,1.224,6.464
			c0.144,0.584,0.288,1.152,0.448,1.736c0.624,2.336,1.352,4.624,2.2,6.856c0.112,0.296,0.216,0.6,0.328,0.896
			c2.112,5.36,4.824,10.4,8.088,15.048c0.048,0.072,0.104,0.136,0.16,0.208c1.528,2.152,3.176,4.2,4.92,6.168
			c0.32,0.368,0.648,0.72,0.984,1.08c1.64,1.776,3.36,3.472,5.176,5.072c0.288,0.256,0.568,0.528,0.856,0.784
			c2.168,1.856,4.416,3.616,6.792,5.216V313.369z M288,208.001c-10.296,0-19.92-2.84-28.224-7.712
			c-1.96-1.144-3.824-2.408-5.608-3.768c-0.168-0.128-0.344-0.248-0.504-0.376c-3.76-2.936-7.112-6.312-9.976-10.032
			c-0.096-0.128-0.184-0.248-0.28-0.376c-1.4-1.848-2.696-3.776-3.856-5.776c-0.008-0.016-0.024-0.032-0.032-0.048
			c-2.344-4.056-4.152-8.408-5.424-12.936c-0.096-0.36-0.184-0.72-0.28-1.08c-0.472-1.816-0.832-3.672-1.12-5.536
			c-0.08-0.512-0.176-1.024-0.232-1.536c-0.288-2.256-0.464-4.528-0.464-6.824s0.176-4.568,0.456-6.816
			c0.064-0.52,0.16-1.024,0.232-1.536c0.288-1.872,0.648-3.72,1.12-5.536c0.096-0.36,0.176-0.72,0.28-1.08
			c1.272-4.528,3.08-8.88,5.424-12.936c0.008-0.016,0.024-0.032,0.032-0.048c1.16-2,2.456-3.928,3.856-5.776
			c0.096-0.128,0.184-0.248,0.28-0.376c2.872-3.728,6.216-7.104,9.976-10.032c0.168-0.128,0.336-0.248,0.504-0.376
			c1.784-1.36,3.648-2.616,5.608-3.768c8.312-4.88,17.936-7.72,28.232-7.72c30.88,0,56,25.12,56,56S318.88,208.001,288,208.001z"/>
	</g>
</g>
<g>
	<g>
		<path d="M477.656,138.345l-32-32l-11.312,11.312l18.344,18.344H376v16h76.688l-18.344,18.344l11.312,11.312l32-32
			C480.784,146.529,480.784,141.473,477.656,138.345z"/>
	</g>
</g>
<g>
	<g>
		<path d="M128,120.001c-13.92,0-24.016,6.016-28.8,9.6l9.6,12.8c3.184-2.384,9.92-6.4,19.2-6.4c3.984,0,11.776,0.832,19.2,6.4
			l9.6-12.8C145.664,121.249,133.976,120.001,128,120.001z"/>
	</g>
</g>
<g>
	<g>
		<path d="M128,88.001c-25.528,0-44.04,11.024-52.8,17.6l9.6,12.8c7.168-5.376,22.312-14.4,43.2-14.4c8.96,0,26.496,1.872,43.2,14.4
			l9.6-12.808C160.376,90.289,138.952,88.001,128,88.001z"/>
	</g>
</g>
<g>
	<g>
		<rect x="120" y="152.001" width="16" height="16"/>
	</g>
</g>
<g>
</g>
<g>
</g>
<g>
</g>
<g>
</g>
<g>
</g>
<g>
</g>
<g>
</g>
<g>
</g>
<g>
</g>
<g>
</g>
<g>
</g>
<g>
</g>
<g>
</g>
<g>
</g>
<g>
</g>
</svg>
