<?xml version="1.0"?>
<svg xmlns="http://www.w3.org/2000/svg" id="Capa_1" enable-background="new 0 0 512 512" height="512px" viewBox="0 0 512 512" width="512px" class=""><g><path d="m467 51.551h-422c-24.813 0-45 20.187-45 45v37.458h512v-37.458c0-24.813-20.187-45-45-45zm-400.539 62.228h-12.411c-8.284 0-15-6.716-15-15s6.716-15 15-15h12.411c8.284 0 15 6.716 15 15s-6.716 15-15 15zm69.295 0h-12.411c-8.284 0-15-6.716-15-15s6.716-15 15-15h12.411c8.284 0 15 6.716 15 15s-6.716 15-15 15zm69.295 0h-12.411c-8.284 0-15-6.716-15-15s6.716-15 15-15h12.411c8.284 0 15 6.716 15 15s-6.716 15-15 15z" data-original="#000000" class="active-path" data-old_color="#ffffff" fill="#ffffff"/><path d="m0 415.449c0 24.813 20.187 45 45 45h422c24.813 0 45-20.187 45-45v-251.44h-512zm146.382-126.98c0-8.789 5.519-16.313 13.272-19.289 1.568-4.755 3.489-9.392 5.748-13.866-3.381-7.587-1.965-16.811 4.25-23.027l17.671-17.671c3.898-3.899 9.085-6.048 14.601-6.048 2.957 0 5.819.617 8.439 1.791 4.471-2.255 9.104-4.175 13.854-5.741 2.976-7.754 10.5-13.273 19.288-13.273h24.988c8.788 0 16.313 5.519 19.288 13.273 4.752 1.567 9.383 3.486 13.854 5.741 2.62-1.173 5.482-1.791 8.439-1.791 5.516 0 10.702 2.148 14.602 6.049l17.669 17.668c6.215 6.217 7.632 15.441 4.252 23.028 2.257 4.474 4.179 9.109 5.747 13.866 7.753 2.976 13.272 10.5 13.272 19.289v24.988c0 8.788-5.519 16.313-13.272 19.288-1.568 4.755-3.489 9.391-5.748 13.866 3.382 7.589 1.964 16.813-4.251 23.028l-17.67 17.67c-6.216 6.215-15.441 7.634-23.028 4.251-4.475 2.259-9.111 4.18-13.866 5.748-2.976 7.754-10.5 13.272-19.288 13.272h-24.988c-8.788 0-16.313-5.519-19.288-13.272-4.755-1.567-9.393-3.49-13.868-5.748-7.587 3.382-16.812 1.964-23.026-4.251l-17.67-17.67c-6.215-6.215-7.632-15.439-4.251-23.027-2.258-4.475-4.18-9.111-5.748-13.867-7.754-2.976-13.272-10.5-13.272-19.288z" data-original="#000000" class="active-path" data-old_color="#ffffff" fill="#ffffff"/><path d="m325.022 282.499c-1.613-6.053-4.025-11.87-7.171-17.296-3.009-5.194-3.522-11.289-1.747-16.734l-7.611-7.61c-5.447 1.775-11.542 1.261-16.731-1.747-5.429-3.146-11.247-5.559-17.295-7.172-5.803-1.548-10.48-5.493-13.079-10.596h-10.775c-2.599 5.103-7.276 9.048-13.079 10.596-6.048 1.613-11.866 4.026-17.295 7.172-5.19 3.009-11.284 3.523-16.731 1.747l-7.61 7.61c1.775 5.445 1.262 11.538-1.745 16.729-3.148 5.431-5.561 11.248-7.173 17.297-1.55 5.804-5.494 10.48-10.597 13.079v10.776c5.103 2.599 9.048 7.275 10.596 13.077 1.612 6.05 4.025 11.868 7.172 17.296 3.008 5.192 3.522 11.287 1.747 16.732l7.61 7.611c5.447-1.778 11.543-1.263 16.733 1.747 5.427 3.146 11.245 5.559 17.292 7.17 5.804 1.55 10.48 5.494 13.079 10.597h10.776c2.599-5.102 7.275-9.047 13.076-10.596 6.051-1.612 11.869-4.025 17.297-7.172 5.19-3.009 11.284-3.525 16.733-1.747l7.609-7.61c-1.775-5.444-1.262-11.539 1.745-16.729 3.148-5.431 5.562-11.249 7.173-17.296 1.549-5.804 5.494-10.48 10.597-13.08v-10.776c-5.101-2.598-9.047-7.274-10.596-13.075zm-69.022 45.981c-15.197 0-27.517-12.32-27.517-27.517 0-15.198 12.32-27.517 27.517-27.517s27.518 12.32 27.518 27.517-12.321 27.517-27.518 27.517z" data-original="#000000" class="active-path" data-old_color="#ffffff" fill="#ffffff"/></g> </svg>
