<?xml version="1.0" encoding="iso-8859-1"?>
<!-- Generator: Adobe Illustrator 19.0.0, SVG Export Plug-In . SVG Version: 6.00 Build 0)  -->
<svg version="1.1" id="Capa_1" xmlns="http://www.w3.org/2000/svg" xmlns:xlink="http://www.w3.org/1999/xlink" x="0px" y="0px"
	 viewBox="0 0 512.001 512.001" style="enable-background:new 0 0 512.001 512.001;" xml:space="preserve">
<path style="fill:#FF7B48;" d="M400.386,512H111.614C100.229,512,91,502.771,91,491.386V20.614C91,9.229,100.229,0,111.614,0
	h288.771C411.771,0,421,9.229,421,20.614v470.771C421,502.771,411.771,512,400.386,512z"/>
<path style="fill:#FF5A51;" d="M400.375,0h-30.938c11.391,0,20.625,9.225,20.625,20.604v470.793
	c0,11.379-9.234,20.604-20.625,20.604h30.938c11.391,0,20.625-9.225,20.625-20.604V20.604C421,9.225,411.766,0,400.375,0z"/>
<path style="fill:#E75955;" d="M122.076,157.223v-37.328c0-2.209,1.791-4,4-4h259.847c2.209,0,4,1.791,4,4v37.328
	c0,2.209-1.791,4-4,4H126.076C123.867,161.223,122.076,159.432,122.076,157.223z"/>
<path style="fill:#FFBD2A;" d="M122.076,276.558V195.06c0-2.209,1.791-4,4-4H252c2.209,0,4,1.791,4,4v81.498c0,2.209-1.791,4-4,4
	H126.076C123.867,280.558,122.076,278.767,122.076,276.558z"/>
<path style="fill:#FF993B;" d="M122.076,393.135v-81.498c0-2.209,1.791-4,4-4H252c2.209,0,4,1.791,4,4v81.498c0,2.209-1.791,4-4,4
	H126.076C123.867,397.135,122.076,395.344,122.076,393.135z"/>
<path style="fill:#A85759;" d="M291.026,393.135V195.099c0-2.209,1.791-4,4-4h90.897c2.209,0,4,1.791,4,4v198.036
	c0,2.209-1.791,4-4,4h-90.897C292.817,397.135,291.026,395.344,291.026,393.135z"/>
<path style="fill:#F1EBE0;" d="M400.386,511.657H111.614c-11.385,0-20.614-9.229-20.614-20.614v-41.197h330v41.197
	C421,502.427,411.771,511.657,400.386,511.657z"/>
<path style="fill:#E8E1D7;" d="M390.063,449.846v41.207c0,11.379-9.234,20.604-20.625,20.604h30.938
	c11.391,0,20.625-9.224,20.625-20.604v-41.207H390.063z"/>
<path style="fill:#F1EBE0;" d="M421,61.811H91V20.614C91,9.229,100.229,0,111.614,0h288.771C411.771,0,421,9.229,421,20.614V61.811z
	"/>
<path style="fill:#E8E1D7;" d="M400.375,0h-30.938c11.391,0,20.625,9.225,20.625,20.604v41.207H421V20.604
	C421,9.225,411.766,0,400.375,0z"/>
<path style="fill:#7A666C;" d="M279.694,38.405h-47.389c-4.143,0-7.5-3.358-7.5-7.5s3.357-7.5,7.5-7.5h47.389
	c4.143,0,7.5,3.358,7.5,7.5S283.837,38.405,279.694,38.405z"/>
<circle style="fill:#6A545A;" cx="205.06" cy="30.905" r="7.726"/>
<path style="fill:#7A666C;" d="M340.475,488.595h-168.95c-4.143,0-7.5-3.358-7.5-7.5s3.357-7.5,7.5-7.5h168.949
	c4.143,0,7.5,3.358,7.5,7.5S344.617,488.595,340.475,488.595z"/>
<g>
</g>
<g>
</g>
<g>
</g>
<g>
</g>
<g>
</g>
<g>
</g>
<g>
</g>
<g>
</g>
<g>
</g>
<g>
</g>
<g>
</g>
<g>
</g>
<g>
</g>
<g>
</g>
<g>
</g>
</svg>
