<svg xmlns="http://www.w3.org/2000/svg" height="511pt" version="1.1" viewBox="1 0 511.99995 511" width="511pt">
<g id="surface1">
<path d="M 376.484375 191.160156 C 368.199219 191.160156 361.484375 184.445312 361.484375 176.160156 L 361.484375 95.832031 C 361.484375 87.546875 368.199219 80.832031 376.484375 80.832031 C 384.769531 80.832031 391.484375 87.546875 391.484375 95.832031 L 391.484375 176.160156 C 391.484375 184.445312 384.769531 191.160156 376.484375 191.160156 Z M 376.484375 191.160156 " style=" stroke:none;fill-rule:nonzero;fill:rgb(15.294118%,85.098039%,96.862745%);fill-opacity:1;" />
<path d="M 71.226562 402.152344 L 55.164062 402.152344 C 24.746094 402.152344 0 426.898438 0 457.316406 L 0 497.480469 C 0 505.765625 6.714844 512.480469 15 512.480469 L 111.394531 512.480469 C 119.675781 512.480469 126.390625 505.765625 126.390625 497.480469 L 126.390625 457.316406 C 126.390625 426.898438 101.644531 402.152344 71.226562 402.152344 Z M 71.226562 402.152344 " style=" stroke:none;fill-rule:nonzero;fill:rgb(92.156863%,96.470588%,100%);fill-opacity:1;" />
<path d="M 167.625 321.824219 L 151.5625 321.824219 C 121.140625 321.824219 96.394531 346.570312 96.394531 376.984375 L 96.394531 497.480469 C 96.394531 505.765625 103.109375 512.480469 111.394531 512.480469 L 207.789062 512.480469 C 216.074219 512.480469 222.789062 505.765625 222.789062 497.480469 L 222.789062 376.984375 C 222.789062 346.570312 198.042969 321.824219 167.625 321.824219 Z M 167.625 321.824219 " style=" stroke:none;fill-rule:nonzero;fill:rgb(69.803922%,86.27451%,100%);fill-opacity:1;" />
<path d="M 264.023438 241.492188 L 247.957031 241.492188 C 217.539062 241.492188 192.792969 266.238281 192.792969 296.65625 L 192.792969 497.480469 C 192.792969 505.765625 199.507812 512.480469 207.789062 512.480469 L 304.1875 512.480469 C 312.46875 512.480469 319.1875 505.765625 319.1875 497.480469 L 319.1875 296.65625 C 319.1875 266.238281 294.441406 241.492188 264.023438 241.492188 Z M 264.023438 241.492188 " style=" stroke:none;fill-rule:nonzero;fill:rgb(45.098039%,73.72549%,100%);fill-opacity:1;" />
<path d="M 456.8125 161.160156 L 344.351562 161.160156 C 313.933594 161.160156 289.1875 185.910156 289.1875 216.328125 L 289.1875 497.480469 C 289.1875 505.765625 295.902344 512.480469 304.1875 512.480469 L 496.980469 512.480469 C 505.261719 512.480469 511.980469 505.765625 511.980469 497.480469 L 511.980469 216.328125 C 511.980469 185.910156 487.234375 161.160156 456.8125 161.160156 Z M 456.8125 161.160156 " style=" stroke:none;fill-rule:nonzero;fill:rgb(0%,58.431373%,100%);fill-opacity:1;" />
<path d="M 507.132812 84.773438 L 478.027344 55.664062 L 507.585938 26.105469 C 511.878906 21.816406 513.160156 15.367188 510.839844 9.757812 C 508.515625 4.15625 503.046875 0.5 496.980469 0.5 L 376.484375 0.5 C 368.199219 0.5 361.484375 7.214844 361.484375 15.5 L 361.484375 95.832031 C 361.484375 104.113281 368.199219 110.828125 376.484375 110.828125 L 496.980469 110.828125 C 496.988281 110.828125 496.992188 110.828125 497 110.828125 C 505.285156 110.828125 512 104.113281 512 95.832031 C 512 91.453125 510.125 87.515625 507.132812 84.773438 Z M 507.132812 84.773438 " style=" stroke:none;fill-rule:nonzero;fill:rgb(100%,38.039216%,58.039216%);fill-opacity:1;" />
<path d="M 507.132812 84.773438 L 478.027344 55.664062 L 361.484375 55.664062 L 361.484375 95.832031 C 361.484375 104.113281 368.199219 110.832031 376.484375 110.832031 L 496.980469 110.832031 C 496.988281 110.828125 496.992188 110.828125 497 110.832031 C 505.285156 110.832031 512 104.113281 512 95.832031 C 512 91.453125 510.125 87.515625 507.132812 84.773438 Z M 507.132812 84.773438 " style=" stroke:none;fill-rule:nonzero;fill:rgb(100%,22.352941%,69.411765%);fill-opacity:1;" />
</g>
</svg>