<svg height="512pt" viewBox="-36 0 512 512" width="512pt" xmlns="http://www.w3.org/2000/svg"><path d="m430 422v20l-30 60-30-60v-20zm0 0" fill="#fff"/><path d="m370 90h60v332h-60zm0 0" fill="#ff5284"/><path d="m430 50v40h-60v-40c0-11.050781 8.949219-20 20-20h20c11.050781 0 20 8.949219 20 20zm0 0" fill="#fff"/><path d="m310 422v40c0 22.089844-17.910156 40-40 40h-220c-22.089844 0-40-17.910156-40-40v-40zm0 0" fill="#b9bfc9"/><path d="m310 50v372h-300v-372zm0 0" fill="#fff"/><path d="m310 50h-300c0-22.089844 17.910156-40 40-40h220c22.089844 0 40 17.910156 40 40zm0 0" fill="#b9bfc9"/><path d="m190 116c-44.179688 0-80 35.820312-80 80l80 80c44.179688 0 80-35.820312 80-80s-35.820312-80-80-80zm0 0" fill="#ff5284"/><path d="m110 196h-60v140h140v-60zm0 0" fill="#ffe35c"/><path d="m190 196v80c-44.179688 0-80-35.820312-80-80zm0 0" fill="#f9916b"/><path d="m210 452c-5.519531 0-10 4.480469-10 10s4.480469 10 10 10 10-4.480469 10-10-4.480469-10-10-10zm0 0"/><path d="m50 512h220c27.570312 0 50-22.429688 50-50v-412c0-27.570312-22.429688-50-50-50h-220c-27.570312 0-50 22.429688-50 50v412c0 27.570312 22.429688 50 50 50zm250-452v352h-280v-352zm-30 432h-220c-16.542969 0-30-13.457031-30-30v-30h280v30c0 16.542969-13.457031 30-30 30zm-220-472h220c13.035156 0 24.152344 8.359375 28.28125 20h-276.5625c4.128906-11.640625 15.246094-20 28.28125-20zm0 0"/><path d="m170 452h-60c-5.523438 0-10 4.476562-10 10s4.476562 10 10 10h60c5.523438 0 10-4.476562 10-10s-4.476562-10-10-10zm0 0"/><path d="m391.054688 506.472656c1.695312 3.386719 5.15625 5.527344 8.945312 5.527344s7.25-2.140625 8.945312-5.527344l30-60c.691407-1.390625 1.054688-2.921875 1.054688-4.472656v-392c0-16.542969-13.457031-30-30-30v-10c0-5.523438-4.476562-10-10-10s-10 4.476562-10 10v10c-16.542969 0-30 13.457031-30 30v392c0 1.550781.359375 3.082031 1.054688 4.472656zm28.945312-94.472656h-40v-312h40zm-20 67.640625-20-40v-7.640625h40v7.640625zm-10-439.640625h20c5.515625 0 10 4.484375 10 10v30h-40v-30c0-5.515625 4.484375-10 10-10zm0 0"/><path d="m50 346h140c5.523438 0 10-4.476562 10-10v-50.558594c44.9375-4.992187 80-43.195312 80-89.441406 0-49.625-40.375-90-90-90-46.246094 0-84.449219 35.0625-89.441406 80h-50.558594c-5.523438 0-10 4.476562-10 10v140c0 5.523438 4.476562 10 10 10zm130-80.726562c-30.609375-4.398438-54.875-28.664063-59.273438-59.273438h59.273438zm10-139.273438c38.597656 0 70 31.402344 70 70 0 35.203125-26.121094 64.40625-60 69.273438v-69.273438c0-5.523438-4.476562-10-10-10h-69.273438c4.867188-33.875 34.070313-60 69.273438-60zm-130 80h40.558594c4.625 41.652344 37.789062 74.816406 79.441406 79.441406v40.558594h-120zm0 0"/></svg>