<?xml version="1.0" encoding="iso-8859-1"?>
<!-- Generator: Adobe Illustrator 19.0.0, SVG Export Plug-In . SVG Version: 6.00 Build 0)  -->
<svg version="1.1" id="Capa_1" xmlns="http://www.w3.org/2000/svg" xmlns:xlink="http://www.w3.org/1999/xlink" x="0px" y="0px"
	 viewBox="0 0 512 512" style="enable-background:new 0 0 512 512;" xml:space="preserve">
<g>
	<path style="fill:#FFDBA9;" d="M298,154h-84V60h84V154z"/>
	<path style="fill:#FFDBA9;" d="M171.78,226.873l-81.406-47l42-72.746l81.406,47L171.78,226.873z"/>
</g>
<g>
	<path style="fill:#FFC473;" d="M340.22,226.873l-42-72.746l81.406-47l42,72.746L340.22,226.873z"/>
	<path style="fill:#FFC473;" d="M298,154h-42V60h42V154z"/>
</g>
<path style="fill:#FFF5CB;" d="M256,124c-56.794,0-103,46.206-103,103v15h48v-15c0-30.327,24.673-55,55-55s55,24.673,55,55v15h48
	v-15C359,170.206,312.794,124,256,124z"/>
<path style="fill:#FFEC97;" d="M256,124v48c30.327,0,55,24.673,55,55v15h48v-15C359,170.206,312.794,124,256,124z"/>
<path style="fill:#6B77E8;" d="M392,452c-23.135,0-45.599-6.603-64.963-19.093C310.92,422.511,297.589,408.489,288.06,392h-64.121
	c-9.528,16.489-22.86,30.512-38.977,40.907C165.599,445.397,143.135,452,120,452C53.832,452,0,398.168,0,332s53.832-120,120-120h272
	c66.168,0,120,53.832,120,120S458.168,452,392,452z"/>
<path style="fill:#3A4DE2;" d="M392,212H256v180h32.061c9.528,16.489,22.86,30.512,38.977,40.907
	C346.401,445.397,368.865,452,392,452c66.168,0,120-53.832,120-120S458.168,212,392,212z"/>
<polygon style="fill:#FFDB2D;" points="163,315 133,315 133,285 103,285 103,315 73,315 73,345 103,345 103,375 133,375 133,345 
	163,345 "/>
<g>
	<circle style="fill:#FF318E;" cx="393" cy="300" r="15"/>
	<circle style="fill:#FF318E;" cx="393" cy="360" r="15"/>
</g>
<g>
	<circle style="fill:#FFB64C;" cx="423" cy="330" r="15"/>
	<circle style="fill:#FFB64C;" cx="363" cy="330" r="15"/>
</g>
<rect x="276" y="286" style="fill:#979FEF;" width="30" height="30"/>
<rect x="206" y="286" style="fill:#C3C8F6;" width="30" height="30"/>
<g>
</g>
<g>
</g>
<g>
</g>
<g>
</g>
<g>
</g>
<g>
</g>
<g>
</g>
<g>
</g>
<g>
</g>
<g>
</g>
<g>
</g>
<g>
</g>
<g>
</g>
<g>
</g>
<g>
</g>
</svg>
