<svg height="472pt" viewBox="-28 0 472 472" width="472pt" xmlns="http://www.w3.org/2000/svg" xmlns:xlink="http://www.w3.org/1999/xlink"><linearGradient id="a" gradientUnits="userSpaceOnUse" x1="11.864538" x2="390.136538" y1="401.096" y2="22.824"><stop offset="0" stop-color="#41dfd0"/><stop offset="1" stop-color="#ee83ef"/></linearGradient><path d="m136 288c13.253906 0 24-10.746094 24-24s-10.746094-24-24-24-24 10.746094-24 24 10.746094 24 24 24zm0-32c4.417969 0 8 3.582031 8 8s-3.582031 8-8 8-8-3.582031-8-8 3.582031-8 8-8zm112-80h64c4.417969 0 8-3.582031 8-8v-64c0-4.417969-3.582031-8-8-8h-64c-4.417969 0-8 3.582031-8 8v64c0 4.417969 3.582031 8 8 8zm8-64h48v48h-48zm-199.648438 255.40625 7.648438 33.503906v39.089844c0 17.671875 14.328125 32 32 32h80c17.671875 0 32-14.328125 32-32v-39.089844l7.648438-33.503906c2.25-9.894531 7.238281-18.957031 14.398437-26.148438 17.136719-17.167968 29.625-38.410156 36.296875-61.730468 3.335938-.992188 5.632812-4.046875 5.65625-7.527344v-8h24c4.417969 0 8-3.582031 8-8v-48h40c4.417969 0 8-3.582031 8-8v-52h32v20h-8c-4.417969 0-8 3.582031-8 8v32c0 4.417969 3.582031 8 8 8h32c4.417969 0 8-3.582031 8-8v-32c0-4.417969-3.582031-8-8-8h-8v-28c0-4.417969-3.582031-8-8-8h-40v-60c0-4.417969-3.582031-8-8-8h-40v-32h20v8c0 4.417969 3.582031 8 8 8h32c4.417969 0 8-3.582031 8-8v-32c0-4.417969-3.582031-8-8-8h-32c-4.417969 0-8 3.582031-8 8v8h-28c-4.417969 0-8 3.582031-8 8v40h-72c-4.417969 0-8 3.582031-8 8v16h-16v-40h8c4.417969 0 8-3.582031 8-8v-32c0-4.417969-3.582031-8-8-8h-32c-4.417969 0-8 3.582031-8 8v32c0 4.417969 3.582031 8 8 8h8v48c0 4.417969 3.582031 8 8 8h24v20.753906c-41.890625-26.269531-94.746094-27.695312-137.996094-3.734375-43.25 23.964844-70.0624998 69.535157-70.003906 118.980469-.105469 37.992188 14.992188 74.445312 41.929688 101.238281 7.167968 7.195313 12.167968 16.265625 14.421874 26.167969zm343.648438-167.40625h-16v-16h16zm-60-184h16v16h-16zm-164 0h16v16h-16zm16 392v16h-112v-16zm-16 48h-80c-8.835938 0-16-7.164062-16-16h112c0 8.835938-7.164062 16-16 16zm80-192h-16v-16h16zm32-16h-16v-8c.003906-10.777344-1.269531-21.519531-3.792969-32h19.792969zm-64-168h112v112h-112zm-88 40c25.996094-.074219 51.292969 8.398438 72 24.113281v55.886719c0 4.417969 3.582031 8 8 8h35.59375c2.175781 7.839844 3.546875 15.882812 4.09375 24h-23.6875c-4.417969 0-8 3.582031-8 8v32c0 4.417969 3.582031 8 8 8h17.496094c-6.21875 18.820312-16.753906 35.925781-30.757813 49.953125-9.292969 9.320313-15.769531 21.066406-18.699219 33.894531l-6.4375 28.152344h-49.601562v-48h8c4.417969 0 8-3.582031 8-8v-21.480469c2.710938-1.277343 5.3125-2.765625 7.785156-4.457031l18.566406 10.722656c1.839844 1.0625 4.023438 1.351563 6.074219.800782 2.054688-.546876 3.800781-1.890626 4.863281-3.730469l16-27.710938c2.207032-3.828125.890626-8.722656-2.9375-10.929687l-18.542968-10.710938c.128906-1.511718.191406-3.007812.191406-4.503906s-.0625-2.992188-.191406-4.503906l18.542968-10.695313c3.828126-2.207031 5.144532-7.101562 2.9375-10.929687l-16-27.710938c-1.0625-1.839844-2.808593-3.183594-4.863281-3.730468-2.050781-.550782-4.234375-.261719-6.074219.800781l-18.566406 10.722656c-2.472656-1.695313-5.074218-3.191406-7.785156-4.472656v-21.480469c0-4.417969-3.582031-8-8-8h-32c-4.417969 0-8 3.582031-8 8v21.480469c-2.675781 1.296875-5.246094 2.808593-7.679688 4.519531l-18.671874-10.800781c-1.839844-1.0625-4.023438-1.351563-6.074219-.800781-2.050781.546874-3.800781 1.890624-4.863281 3.730468l-16 27.710938c-2.207032 3.828125-.890626 8.722656 2.9375 10.929687l18.558593 10.71875c-.132812 1.535157-.207031 3.023438-.207031 4.496094s.066406 2.984375.191406 4.503906l-18.542968 10.710938c-3.828126 2.207031-5.144532 7.101562-2.9375 10.929687l16 27.710938c1.0625 1.839844 2.8125 3.183594 4.863281 3.730468 2.050781.550782 4.234375.261719 6.074219-.800781l18.574218-10.730469c1.234375.847657 2.507813 1.648438 3.800782 2.402344 1.296874.75 2.625 1.429688 4 2.070313v21.488281c0 4.417969 3.582031 8 8 8h8v48h-49.621094l-6.402344-28.152344c-2.929688-12.832031-9.410156-24.582031-18.703125-33.902344-23.945313-23.800781-37.375-56.1875-37.296875-89.945312.074219-66.242188 53.757812-119.925781 120-120zm-39.296875 151.296875c-.957031-4.808594-.957031-9.761719 0-14.570313.621094-3.332031-.925781-6.695312-3.863281-8.390624l-16.296875-9.40625 8-13.859376 16.394531 9.464844c2.921875 1.703125 6.597656 1.382813 9.183594-.800781 3.683594-3.199219 7.925781-5.695313 12.511718-7.359375 3.222657-1.121094 5.378907-4.167969 5.367188-7.582031v-18.792969h16v18.824219c0 3.382812 2.132812 6.402343 5.320312 7.535156 4.625 1.625 8.910157 4.085937 12.648438 7.257813 2.578125 2.203124 6.261719 2.542968 9.199219.847656l16.257812-9.394532 8 13.859376-16.226562 9.390624c-2.933594 1.691407-4.484375 5.046876-3.871094 8.375.9375 4.824219.9375 9.785157 0 14.609376-.613281 3.328124.9375 6.683593 3.871094 8.375l16.257812 9.390624-8 13.859376-16.257812-9.394532c-2.933594-1.695312-6.621094-1.355468-9.199219.847656-3.738281 3.171876-8.023438 5.632813-12.648438 7.257813-3.1875 1.132813-5.316406 4.152344-5.320312 7.535156v18.824219h-16.03125v-18.824219c0-3.382812-2.128906-6.402343-5.320312-7.535156-2.320313-.824219-4.566407-1.855469-6.703126-3.082031-2.105468-1.203125-4.097656-2.601563-5.945312-4.175782-2.574219-2.203124-6.261719-2.542968-9.199219-.847656l-16.253906 9.394532-8-13.859376 16.222656-9.390624c2.949219-1.683594 4.511719-5.042969 3.902344-8.382813zm175.296875-143.296875h16v16h-16zm0 0" fill="url(#a)"/></svg>