<svg height="1188pt" viewBox="-79 0 1188 1188.436" width="1188pt" xmlns="http://www.w3.org/2000/svg"><path d="m633.683594 594.097656h-118.78125c-21.867188 0-39.59375 17.726563-39.59375 39.59375 0 21.867188 17.726562 39.59375 39.59375 39.59375h118.78125c21.867187 0 39.59375-17.726562 39.59375-39.59375 0-21.867187-17.726563-39.59375-39.59375-39.59375zm0 0" fill="#ffeb99"/><path d="m633.683594 732.675781h-118.78125c-21.867188 0-39.59375 17.726563-39.59375 39.59375 0 21.867188 17.726562 39.59375 39.59375 39.59375h118.78125c21.867187 0 39.59375-17.726562 39.59375-39.59375 0-21.867187-17.726563-39.59375-39.59375-39.59375zm0 0" fill="#ffeb99"/><g fill="#ffcd00"><path d="m732.664062 415.929688c0 87.464843-70.90625 158.375-158.371093 158.375-87.46875 0-158.375-70.910157-158.375-158.375 0-87.46875 70.90625-158.375 158.375-158.375 87.464843 0 158.371093 70.90625 158.371093 158.375zm0 0"/><path d="m633.683594 594.097656h-118.78125l-39.59375-79.183594h197.96875zm0 0"/><path d="m495.105469 653.488281h158.375v98.984375h-158.375zm0 0"/></g><path d="m997.941406 304.175781c-81.121094-174.542969-251.332031-290.628906-443.445312-302.433593l-19.085938-1.742188-17.460937.4375c-59.269531 2.167969-117.363281 17.199219-170.25 44.046875-140.621094 70.300781-229.25 214.226563-228.730469 371.445313v73.703124l-115.949219 193.253907c-5.632812 9.371093-2.597656 21.535156 6.773438 27.167969 3.078125 1.847656 6.601562 2.824218 10.191406 2.824218h123.929687l-12.019531 178.449219c-9.160156 52.792969 25.628907 103.203125 78.238281 113.375 1.304688.25 2.628907.375 3.957032.375.710937 0 1.417968-.039063 2.121094-.117187l120.519531-13.066407v176.308594c0 10.933594 8.867187 19.796875 19.796875 19.796875h475.121094c10.933593 0 19.796874-8.863281 19.796874-19.796875v-196.738281l154.691407-382.234375c33.988281-92.542969 31.054687-194.617188-8.195313-285.054688zm-28.804687 270.976563-155.839844 385.183594c-1.078125 2.820312-1.492187 5.847656-1.207031 8.851562 0 .414062-.238282.769531-.238282 1.1875v178.03125h-435.527343v-178.171875c-.027344-.601563-.085938-1.203125-.175781-1.800781 0-.238282 0-.472656 0-.730469s-.179688-.417969-.199219-.65625 0-.492187-.097657-.769531c-.191406-1.058594-.523437-2.082032-.988281-3.050782-.179687-.472656-.378906-.890624-.597656-1.34375-.351563-.871093-.765625-1.710937-1.246094-2.515624l-.117187-.21875-2.375-2.96875c-.160156-.140626-.378906-.199219-.535156-.335938-1.671876-1.585938-3.609376-2.863281-5.722657-3.78125h-.136719c-3.042968-1.457031-6.417968-2.085938-9.78125-1.824219l-139.328124 15.085938c-30.734376-7.742188-50.023438-38.191407-43.890626-69.289063l13.660157-201.53125c.816406-10.902344-7.359375-20.402344-18.261719-21.214844-.015625-.003906-.035156-.003906-.046875-.003906-1.625-.140625-111.457031 0-111.457031 0l100.765625-168.035156c.179687-.417969.328125-.847656.453125-1.285156.578125-1.191406 1.023437-2.4375 1.328125-3.722656.394531-1.289063.660156-2.617188.792969-3.960938 0-.472656.253906-.851562.253906-1.324219v-79.03125c-.542969-142.292969 79.597656-272.601562 206.835937-336.304687 47.769531-24.25 100.230469-37.839844 153.761719-39.832032h15.839844c183.828125 5.183594 348.992187 113.664063 426.777344 280.300782 35.035156 80.945312 37.652343 172.25 7.300781 255.0625zm0 0"/><path d="m574.292969 237.757812c-98.3125-.09375-178.089844 79.527344-178.183594 177.839844-.054687 54.421875 24.792969 105.875 67.441406 139.679688l15.597657 31.300781c-26.007813 19.386719-31.375 56.183594-11.988282 82.195313 2.40625 3.226562 5.136719 6.199218 8.148438 8.867187v50.679687c-24.390625 21.75-26.535156 59.152344-4.789063 83.546876 11.277344 12.648437 27.4375 19.855468 44.382813 19.792968h118.78125c32.679687.117188 59.269531-26.277344 59.386718-58.957031.0625-16.945313-7.144531-33.105469-19.792968-44.382813v-50.679687c24.285156-21.507813 26.535156-58.628906 5.027344-82.914063-2.667969-3.011718-5.640626-5.746093-8.867188-8.148437l15.617188-31.359375c77.027343-61.078125 89.957031-173.03125 28.878906-250.058594-33.800782-42.625-85.238282-67.453125-139.640625-67.402344zm59.390625 376.136719c10.929687 0 19.796875 8.867188 19.796875 19.796875 0 10.933594-8.867188 19.796875-19.796875 19.796875h-118.78125c-10.933594 0-19.796875-8.863281-19.796875-19.796875 0-10.929687 8.863281-19.796875 19.796875-19.796875zm0 178.171875h-118.78125c-10.933594 0-19.796875-8.863281-19.796875-19.796875 0-10.933593 8.863281-19.796875 19.796875-19.796875h118.78125c10.929687 0 19.796875 8.863282 19.796875 19.796875 0 10.933594-8.863281 19.796875-19.796875 19.796875zm0-79.1875h-118.78125v-19.796875h118.78125zm23.753906-186.089844c-.933594.730469-1.8125 1.523438-2.632812 2.378907-1.355469 1.425781-2.488282 3.046875-3.363282 4.808593l-20.136718 40.328126h-114.027344l-20.09375-40.308594c-.875-1.761719-2.007813-3.382813-3.363282-4.808594l-.199218-.21875c-.761719-.796875-1.589844-1.523438-2.476563-2.175781-61.226562-45.921875-73.636719-132.78125-27.714843-194.007813 45.921874-61.230468 132.78125-73.636718 194.007812-27.71875 61.226562 45.921875 73.636719 132.78125 27.714844 194.007813-7.878906 10.503906-17.207032 19.835937-27.714844 27.714843zm0 0"/><path d="m574.292969 198.164062c10.933593 0 19.796875-8.863281 19.796875-19.796874v-79.1875c0-10.929688-8.863282-19.792969-19.796875-19.792969-10.933594 0-19.796875 8.863281-19.796875 19.792969v79.1875c0 10.933593 8.863281 19.796874 19.796875 19.796874zm0 0"/><path d="m438.367188 220.101562c5.40625 9.503907 17.492187 12.828126 26.996093 7.421876 9.503907-5.402344 12.828125-17.488282 7.421875-26.992188-.042968-.078125-.085937-.152344-.128906-.226562l-39.59375-68.578126c-5.40625-9.503906-17.488281-12.828124-26.996094-7.421874-9.503906 5.402343-12.828125 17.488281-7.421875 26.992187.042969.078125.085938.152344.128907.226563zm0 0"/><path d="m378.445312 280.003906-68.558593-39.59375c-9.433594-5.527344-21.558594-2.363281-27.089844 7.066406-5.527344 9.433594-2.363281 21.5625 7.066406 27.089844.074219.046875.152344.089844.226563.132813l68.554687 39.59375c9.433594 5.527343 21.5625 2.363281 27.09375-7.066407 5.527344-9.433593 2.363281-21.5625-7.066406-27.089843-.078125-.046875-.152344-.089844-.226563-.132813zm0 0"/><path d="m336.730469 396.132812h-79.183594c-10.933594 0-19.796875 8.863282-19.796875 19.796876 0 10.933593 8.863281 19.796874 19.796875 19.796874h79.183594c10.933593 0 19.796875-8.863281 19.796875-19.796874 0-10.933594-8.863282-19.796876-19.796875-19.796876zm0 0"/><path d="m891.039062 396.132812h-79.1875c-10.933593 0-19.796874 8.863282-19.796874 19.796876 0 10.933593 8.863281 19.796874 19.796874 19.796874h79.1875c10.933594 0 19.796876-8.863281 19.796876-19.796874 0-10.933594-8.863282-19.796876-19.796876-19.796876zm0 0"/><path d="m865.761719 247.65625c-5.464844-9.472656-17.570313-12.71875-27.039063-7.257812-.011718.003906-.015625.007812-.023437.011718l-68.558594 39.59375c-9.503906 5.40625-12.828125 17.492188-7.421875 26.996094 5.402344 9.503906 17.488281 12.828125 26.992188 7.421875.078124-.042969.152343-.085937.226562-.128906l68.558594-39.59375c9.472656-5.460938 12.726562-17.5625 7.265625-27.039063 0 0 0 0 0-.003906zm0 0"/><path d="m683.175781 227.34375c9.464844 5.46875 21.574219 2.222656 27.039063-7.242188l39.59375-68.578124c5.53125-9.429688 2.367187-21.558594-7.0625-27.089844-9.429688-5.53125-21.5625-2.367188-27.089844 7.0625-.046875.078125-.089844.15625-.132812.230468l-39.59375 68.578126c-5.46875 9.46875-2.222657 21.574218 7.246093 27.039062zm0 0"/></svg>