<svg height="480pt" viewBox="0 -20 480.00008 480" width="480pt" xmlns="http://www.w3.org/2000/svg"><path d="m416 224h-120l-8 32h-96l-8-32h-120c-17.671875 0-32 14.328125-32 32v144c0 17.675781 14.328125 32 32 32h120l8-32h96l8 32h120c17.671875 0 32-14.324219 32-32v-144c0-17.671875-14.328125-32-32-32zm0 0" fill="#91dc5a"/><path d="m32 264-24 16v96l24 16zm0 0" fill="#ff5023"/><path d="m472 376v-96l-24-16v128zm0 0" fill="#ff5023"/><path d="m228.71875 180.722656c-3.039062 2.960938-4.742188 7.035156-4.71875 11.277344 0 8.835938 7.164062 16 16 16s16-7.164062 16-16c.019531-6.472656-3.875-12.316406-9.855469-14.789062-5.984375-2.472657-12.867187-1.085938-17.425781 3.511718zm0 0" fill="#5aaae7"/><path d="m476.441406 273.34375-20.441406-13.621094v-3.722656c-.027344-22.078125-17.917969-39.972656-40-40h-120c-3.667969 0-6.867188 2.496094-7.761719 6.058594l-6.484375 25.941406h-83.507812l-6.484375-25.941406c-.894531-3.5625-4.09375-6.058594-7.761719-6.058594h-120c-22.082031.027344-39.972656 17.921875-40 40v3.722656l-20.441406 13.597656c-2.230469 1.488282-3.5664065 3.996094-3.558594 6.679688v96c0 2.675781 1.335938 5.171875 3.558594 6.65625l20.441406 13.625v3.71875c.027344 22.082031 17.917969 39.972656 40 40h120c3.667969 0 6.867188-2.496094 7.761719-6.054688l6.484375-25.945312h83.507812l6.484375 25.945312c.894531 3.558594 4.09375 6.054688 7.761719 6.054688h120c22.082031-.027344 39.972656-17.917969 40-40v-3.71875l20.441406-13.601562c2.230469-1.488282 3.566406-3.996094 3.558594-6.679688v-96c0-2.671875-1.335938-5.171875-3.558594-6.65625zm-460.441406 98.378906v-87.441406l8-5.328125v98.097656zm424 28.277344c0 13.257812-10.746094 24-24 24h-113.753906l-6.484375-25.941406c-.894531-3.5625-4.09375-6.058594-7.761719-6.058594h-96c-3.667969 0-6.867188 2.496094-7.761719 6.058594l-6.484375 25.941406h-113.753906c-13.253906 0-24-10.742188-24-24v-144c0-13.253906 10.746094-24 24-24h113.753906l6.484375 25.945312c.894531 3.558594 4.09375 6.054688 7.761719 6.054688h96c3.667969 0 6.867188-2.496094 7.761719-6.054688l6.484375-25.945312h113.753906c13.253906 0 24 10.746094 24 24zm24-28.277344-8 5.328125v-98.097656l8 5.328125zm0 0"/><path d="m416 400h16v16h-16zm0 0"/><path d="m392 400h16v16h-16zm0 0"/><path d="m416 376h16v16h-16zm0 0"/><path d="m223.136719 174.992188c-4.59375 4.464843-7.171875 10.605468-7.136719 17.007812 0 13.257812 10.746094 24 24 24s24-10.742188 24-24c.046875-6.335938-2.476562-12.417969-6.992188-16.863281-9.4375-9.09375-24.359374-9.160157-33.871093-.144531zm22.558593 11.457031c1.492188 1.460937 2.324219 3.464843 2.304688 5.550781 0 4.417969-3.582031 8-8 8s-8-3.582031-8-8c-.007812-2.15625.878906-4.214844 2.449219-5.695312 1.457031-1.492188 3.464843-2.324219 5.550781-2.304688 2.15625-.007812 4.21875.878906 5.695312 2.449219zm0 0"/><path d="m143.894531 55.898438c25.460938-25.542969 60.042969-39.898438 96.105469-39.898438s70.644531 14.355469 96.105469 39.898438c2.007812 2.078124 4.980469 2.914062 7.777343 2.179687 2.796876-.730469 4.984376-2.914063 5.714844-5.714844.730469-2.796875-.101562-5.769531-2.179687-7.777343-28.460938-28.542969-67.109375-44.585938-107.417969-44.585938s-78.957031 16.042969-107.414062 44.585938c-3.035157 3.136718-2.992188 8.128906.09375 11.214843 3.085937 3.085938 8.078124 3.128907 11.214843.097657zm0 0"/><path d="m319.199219 88.800781c3.230469-.019531 6.128906-1.976562 7.355469-4.964843 1.222656-2.988282.53125-6.417969-1.753907-8.699219-46.859375-46.84375-122.820312-46.84375-169.679687 0-3.039063 3.132812-3.007813 8.125.070312 11.214843 3.082032 3.09375 8.070313 3.148438 11.214844.121094 40.621094-40.632812 106.488281-40.632812 147.105469 0 1.511719 1.503906 3.558593 2.339844 5.6875 2.328125zm0 0"/><path d="m296.558594 119.441406c3.238281 0 6.152344-1.949218 7.390625-4.9375 1.238281-2.992187.554687-6.429687-1.734375-8.71875-34.351563-34.378906-90.078125-34.378906-124.429688 0-3.03125 3.140625-2.988281 8.128906.097656 11.214844 3.085938 3.085938 8.074219 3.128906 11.214844.097656 28.113282-28.109375 73.691406-28.109375 101.804688 0 1.5 1.503906 3.535156 2.347656 5.65625 2.34375zm0 0"/><path d="m273.921875 150.082031c3.214844-.011719 6.113281-1.945312 7.355469-4.914062 1.238281-2.96875.582031-6.390625-1.667969-8.6875-10.492187-10.523438-24.742187-16.441407-39.601563-16.441407-14.859374 0-29.109374 5.917969-39.601562 16.441407-3.109375 3.140625-3.085938 8.207031.054688 11.316406 3.136718 3.109375 8.203124 3.085937 11.316406-.050781 7.484375-7.5 17.644531-11.710938 28.238281-11.710938s20.753906 4.210938 28.242187 11.710938c1.5 1.5 3.539063 2.339844 5.664063 2.335937zm0 0"/></svg>