<?xml version="1.0" encoding="iso-8859-1"?>
<!-- Generator: Adobe Illustrator 19.0.0, SVG Export Plug-In . SVG Version: 6.00 Build 0)  -->
<svg version="1.1" id="Capa_1" xmlns="http://www.w3.org/2000/svg" xmlns:xlink="http://www.w3.org/1999/xlink" x="0px" y="0px"
	 viewBox="0 0 512 512" style="enable-background:new 0 0 512 512;" xml:space="preserve">
<path style="fill:#FF7B48;" d="M396,504.5H116c-11.046,0-20-8.954-20-20v-457c0-11.046,8.954-20,20-20h280c11.046,0,20,8.954,20,20
	v457C416,495.546,407.046,504.5,396,504.5z"/>
<path style="fill:#FF5A51;" d="M396,7.5h-30c11.046,0,20,8.954,20,20v457c0,11.046-8.954,20-20,20h30c11.046,0,20-8.954,20-20v-457
	C416,16.454,407.046,7.5,396,7.5z"/>
<rect x="126" y="120" style="fill:#E75955;" width="260" height="44"/>
<rect x="126" y="192.96" style="fill:#FFBD2A;" width="130" height="86.88"/>
<rect x="126" y="306.12" style="fill:#FF993B;" width="130" height="86.88"/>
<rect x="290" y="193" style="fill:#A85759;" width="96" height="200"/>
<path style="fill:#F1EBE0;" d="M396,504.167H116c-11.046,0-20-8.954-20-20v-40h320v40C416,495.212,407.046,504.167,396,504.167z"/>
<path style="fill:#E8E1D7;" d="M386,444.167v40c0,11.046-8.954,20-20,20h30c11.046,0,20-8.954,20-20v-40H386z"/>
<path style="fill:#F1EBE0;" d="M416,67.5H96v-40c0-11.046,8.954-20,20-20h280c11.046,0,20,8.954,20,20V67.5z"/>
<path style="fill:#E8E1D7;" d="M396,7.5h-30c11.046,0,20,8.954,20,20v40h30v-40C416,16.454,407.046,7.5,396,7.5z"/>
<path d="M393.5,120c0-4.142-3.357-7.5-7.5-7.5H126c-4.143,0-7.5,3.358-7.5,7.5v44c0,4.142,3.357,7.5,7.5,7.5h260
	c4.143,0,7.5-3.358,7.5-7.5V120z M378.5,156.5h-245v-29h245V156.5z"/>
<path d="M118.5,279.838c0,4.142,3.357,7.5,7.5,7.5h130c4.143,0,7.5-3.358,7.5-7.5v-86.875c0-4.142-3.357-7.5-7.5-7.5H126
	c-4.143,0-7.5,3.358-7.5,7.5V279.838z M133.5,200.463h115v71.875h-115V200.463z"/>
<path d="M118.5,393c0,4.142,3.357,7.5,7.5,7.5h130c4.143,0,7.5-3.358,7.5-7.5v-86.875c0-4.142-3.357-7.5-7.5-7.5H126
	c-4.143,0-7.5,3.358-7.5,7.5V393z M133.5,313.625h115V385.5h-115V313.625z"/>
<path d="M386,185.5h-96c-4.143,0-7.5,3.358-7.5,7.5v200c0,4.142,3.357,7.5,7.5,7.5h96c4.143,0,7.5-3.358,7.5-7.5V193
	C393.5,188.858,390.143,185.5,386,185.5z M378.5,385.5h-81v-185h81V385.5z"/>
<path d="M416,408.667c-4.143,0-7.5,3.358-7.5,7.5v20.5h-305V127.75c0-4.142-3.357-7.5-7.5-7.5s-7.5,3.358-7.5,7.5v356.417l0,0v0.333
	c0,15.164,12.337,27.5,27.5,27.5h280c15.163,0,27.5-12.336,27.5-27.5v-0.333v-68l0,0C423.5,412.024,420.143,408.667,416,408.667z
	 M408.5,451.667v32.5c0,6.893-5.607,12.5-12.5,12.5H116c-6.893,0-12.5-5.607-12.5-12.5v-32.5H408.5z"/>
<path d="M233,30c-4.143,0-7.5,3.358-7.5,7.5s3.357,7.5,7.5,7.5h46c4.143,0,7.5-3.358,7.5-7.5S283.143,30,279,30H233z"/>
<circle cx="206.55" cy="37.5" r="7.5"/>
<path d="M174,482h164c4.143,0,7.5-3.358,7.5-7.5s-3.357-7.5-7.5-7.5H174c-4.143,0-7.5,3.358-7.5,7.5S169.857,482,174,482z"/>
<path d="M396,0H116c-15.163,0-27.5,12.336-27.5,27.5l0,0v68.25c0,4.142,3.357,7.5,7.5,7.5s7.5-3.358,7.5-7.5V75h249
	c4.143,0,7.5-3.358,7.5-7.5s-3.357-7.5-7.5-7.5h-249V27.5c0-6.893,5.607-12.5,12.5-12.5h280c6.893,0,12.5,5.607,12.5,12.5V60h-24.25
	c-4.143,0-7.5,3.358-7.5,7.5s3.357,7.5,7.5,7.5h24.25v308.667c0,4.142,3.357,7.5,7.5,7.5s7.5-3.358,7.5-7.5V27.5l0,0
	C423.5,12.336,411.163,0,396,0z"/>
<g>
</g>
<g>
</g>
<g>
</g>
<g>
</g>
<g>
</g>
<g>
</g>
<g>
</g>
<g>
</g>
<g>
</g>
<g>
</g>
<g>
</g>
<g>
</g>
<g>
</g>
<g>
</g>
<g>
</g>
</svg>
