<?xml version="1.0" encoding="utf-8"?>
<!-- Generator: Adobe Illustrator 19.0.0, SVG Export Plug-In . SVG Version: 6.00 Build 0)  -->
<svg version="1.1" id="_x39_6306a94-3bea-4326-87c9-b4488db4c6c8"
	 xmlns="http://www.w3.org/2000/svg" xmlns:xlink="http://www.w3.org/1999/xlink" x="0px" y="0px"
	 viewBox="-1950 2097.1 1097.1 807.9" style="enable-background:new -1950 2097.1 1097.1 807.9;" xml:space="preserve">
<style type="text/css">
	.st0{opacity:0.1;fill:#5882FD;enable-background:new    ;}
	.st1{opacity:0.1;}
	.st2{fill:none;stroke:#535461;stroke-width:2;stroke-miterlimit:10;}
	.st3{fill:#5882FD;}
	.st4{opacity:0.25;enable-background:new    ;}
	.st5{fill:#EAEAF3;}
	.st6{fill:#535461;}
	.st7{fill:#E6E8EC;}
	.st8{fill:#FFFFFF;}
</style>
<title>android</title>
<path class="st0" d="M-1938.2,2527c17.4,74.2,54.1,138.3,112.2,169.4c120.7,64.6,392.9,31.3,596.1-7
	c102.7-19.3,195.8-72.6,264.5-151.2L-1938.2,2527z"/>
<path class="st0" d="M-872.8,2177.7h-111.5c-5.3,0-9.6-4.3-9.6-9.6c0-5.3,4.3-9.6,9.6-9.6h19.3c-5.3,0-9.6-4.3-9.6-9.6
	c0-5.3,4.3-9.6,9.6-9.6h-13.8c-5.3,0-9.6-4.3-9.6-9.6c0-5.3,4.3-9.6,9.6-9.6h58.2c-12.9-6-28-10.3-45.4-12.5
	c-158.6-20.4-215.3-6.9-235.3,7c-24.7,17.1-52.2,29.7-81.5,35.7c-97.9,20.2-280.9,44.5-446.8-7.8c-82.5-26-143.8,17.9-180.5,91.3
	h1056.6c-1.4-21.3-5.5-41-13.1-58.2C-868.3,2176.9-870.5,2177.7-872.8,2177.7z"/>
<path class="st0" d="M-1947.6,2372.1c-4.3,43.2-2.8,86.7,4.3,129.4l978.7,35.8c27.2-31.3,50.1-66.2,68-103.7L-1947.6,2372.1z
	 M-1560.5,2464.5h-19.3c5.3,0,9.6,4.3,9.6,9.6s-4.3,9.6-9.6,9.6h-111.5c-5.3,0-9.6-4.3-9.6-9.6s4.3-9.6,9.6-9.6h19.3
	c-5.3,0-9.6-4.3-9.6-9.6s4.3-9.6,9.6-9.6l0,0h-13.8c-5.3,0-9.6-4.3-9.6-9.6s4.3-9.6,9.6-9.6l0,0h111.5c5.3,0,9.6,4.3,9.6,9.6
	s-4.3,9.6-9.6,9.6h13.8c5.3,0,9.6,4.3,9.6,9.6S-1555.2,2464.5-1560.5,2464.5z"/>
<path class="st0" d="M-853.4,2234.3l-1068.5,26c-13,33.4-21.6,71.2-25.6,110.3h1075.3c7-23,12.2-46.5,15.5-70.3
	C-853.4,2277.3-852.1,2255-853.4,2234.3z M-1730.5,2319.5h-19.3c5.3,0,9.6,4.3,9.6,9.6s-4.3,9.6-9.6,9.6h-111.5
	c-5.3,0-9.6-4.3-9.6-9.6s4.3-9.6,9.6-9.6h19.3c-5.3,0-9.6-4.3-9.6-9.6s4.3-9.6,9.6-9.6h-13.8c-5.3,0-9.6-4.3-9.6-9.6
	s4.3-9.6,9.6-9.6h111.5c5.3,0,9.6,4.3,9.6,9.6s-4.3,9.6-9.6,9.6h13.8c5.3,0,9.6,4.3,9.6,9.6S-1725.2,2319.5-1730.5,2319.5z"/>
<g class="st1">
	<path class="st2" d="M-1272.4,2720.3c0,0,28.2-69.5,80.9-95.3c22.2-10.7,40.3-28.2,51.6-50.1c5.3-10.4,9.6-21.3,12.9-32.5"/>
	<path class="st3" d="M-1094,2526c-5.5,6.9-33.9,17-33.9,17s3.4-30,8.9-36.9c5.9-6.6,16-7.1,22.6-1.2
		C-1090.3,2510.4-1089.3,2519.4-1094,2526L-1094,2526z"/>
	<path class="st3" d="M-1103.7,2580.7c-8.4,2.8-37.7-4.2-37.7-4.2s19.2-23.3,27.5-26.1c8.5-2.3,17.3,2.8,19.6,11.4
		C-1092.3,2569.5-1096.3,2577.6-1103.7,2580.7z"/>
	<path class="st3" d="M-1156.6,2645.3c-8.6-1.8-30.4-22.6-30.4-22.6s28.3-10.4,36.9-8.6c8.5,2.4,13.5,11.2,11.1,19.7
		C-1141.1,2641.4-1148.6,2646.4-1156.6,2645.3L-1156.6,2645.3z"/>
	<path class="st3" d="M-1207.6,2685.1c-8.8-0.3-33.8-17.2-33.8-17.2s26.1-15,34.9-14.8c8.8-0.3,16.2,6.7,16.5,15.5
		s-6.7,16.2-15.5,16.5C-1206.2,2685.2-1206.9,2685.2-1207.6,2685.1z"/>
	<path class="st3" d="M-1168.7,2557c1.1,8.8,20.2,32.1,20.2,32.1s12.6-27.4,11.4-36.1c-1.7-8.7-10.1-14.3-18.8-12.6
		C-1163.7,2541.8-1169.2,2548.9-1168.7,2557z"/>
	<path class="st3" d="M-1227.8,2604.3c3.7,8,28.9,24.5,28.9,24.5s3.8-29.9,0.1-37.9c-3.2-8.2-12.4-12.4-20.7-9.2
		c-8.2,3.2-12.4,12.4-9.2,20.7C-1228.4,2603.1-1228.1,2603.7-1227.8,2604.3L-1227.8,2604.3z"/>
	<path class="st3" d="M-1278.8,2658.3c2.3,8.5,24.3,29.1,24.3,29.1s8.8-28.8,6.5-37.4c-2.8-8.4-11.9-12.8-20.3-10
		C-1275.9,2642.6-1280.4,2650.4-1278.8,2658.3L-1278.8,2658.3z"/>
	<path class="st4" d="M-1094,2526c-5.5,6.9-33.9,17-33.9,17s3.4-30,8.9-36.9c5.9-6.6,16-7.1,22.6-1.2
		C-1090.3,2510.4-1089.3,2519.4-1094,2526L-1094,2526z"/>
	<path class="st4" d="M-1103.7,2580.7c-8.4,2.8-37.7-4.2-37.7-4.2s19.2-23.3,27.5-26.1c8.5-2.3,17.3,2.8,19.6,11.4
		C-1092.3,2569.5-1096.3,2577.6-1103.7,2580.7z"/>
	<path class="st4" d="M-1156.6,2645.3c-8.6-1.8-30.4-22.6-30.4-22.6s28.3-10.4,36.9-8.6c8.5,2.4,13.5,11.2,11.1,19.7
		C-1141.1,2641.4-1148.6,2646.4-1156.6,2645.3L-1156.6,2645.3z"/>
	<path class="st4" d="M-1207.6,2685.1c-8.8-0.3-33.8-17.2-33.8-17.2s26.1-15,34.9-14.8c8.8-0.3,16.2,6.7,16.5,15.5
		s-6.7,16.2-15.5,16.5C-1206.2,2685.2-1206.9,2685.2-1207.6,2685.1z"/>
	<path class="st4" d="M-1168.7,2557c1.1,8.8,20.2,32.1,20.2,32.1s12.6-27.4,11.4-36.1c-1.7-8.7-10.1-14.3-18.8-12.6
		C-1163.7,2541.8-1169.2,2548.9-1168.7,2557z"/>
	<path class="st4" d="M-1227.8,2604.3c3.7,8,28.9,24.5,28.9,24.5s3.8-29.9,0.1-37.9c-3.2-8.2-12.4-12.4-20.7-9.2
		c-8.2,3.2-12.4,12.4-9.2,20.7C-1228.4,2603.1-1228.1,2603.7-1227.8,2604.3L-1227.8,2604.3z"/>
	<path class="st4" d="M-1278.8,2658.3c2.3,8.5,24.3,29.1,24.3,29.1s8.8-28.8,6.5-37.4c-2.8-8.4-11.9-12.8-20.3-10
		C-1275.9,2642.6-1280.4,2650.4-1278.8,2658.3L-1278.8,2658.3z"/>
</g>
<g class="st1">
	<path class="st2" d="M-1292.4,2618.7c0,0,3.6-74.9,44.7-116.7c17.3-17.4,28.6-40,32-64.3c1.5-11.6,2-23.3,1.4-34.9"/>
	<path class="st3" d="M-1188.4,2376.2c-2.9,8.3-26.3,27.3-26.3,27.3s-6.7-29.4-3.8-37.7c2.3-8.5,11.1-13.6,19.6-11.3
		s13.6,11.1,11.3,19.6C-1187.9,2374.8-1188.2,2375.5-1188.4,2376.2z"/>
	<path class="st3" d="M-1179.6,2431c-7,5.4-36.9,8.6-36.9,8.6s10.3-28.3,17.3-33.7c6.6-5.9,16.7-5.3,22.6,1.3
		c5.9,6.6,5.3,16.7-1.3,22.6C-1178.5,2430.1-1179,2430.6-1179.6,2431z"/>
	<path class="st3" d="M-1208,2509.5c-8.7,1.2-36.2-11.3-36.2-11.3s23.2-19.2,32-20.4c8.7-1.7,17.1,3.9,18.8,12.5
		s-3.9,17.1-12.5,18.8C-1206.6,2509.3-1207.3,2509.4-1208,2509.5L-1208,2509.5z"/>
	<path class="st3" d="M-1242.9,2564c-8.4,2.6-37.6-5-37.6-5s19.6-22.9,28.1-25.5c8.6-2.1,17.2,3.2,19.3,11.8
		C-1231.2,2553.1-1235.4,2561.1-1242.9,2564L-1242.9,2564z"/>
	<path class="st3" d="M-1248.7,2430.2c4,7.9,29.7,23.6,29.7,23.6s2.8-30-1.2-37.9c-4.5-7.6-14.3-10.2-21.9-5.7
		C-1249.1,2414.2-1251.9,2422.8-1248.7,2430.2L-1248.7,2430.2z"/>
	<path class="st3" d="M-1288.7,2494.5c6.1,6.3,35.4,13.6,35.4,13.6s-6.3-29.5-12.5-35.8c-6.5-5.9-16.7-5.5-22.6,1.1
		C-1293.8,2479.3-1294,2488.4-1288.7,2494.5L-1288.7,2494.5z"/>
	<path class="st3" d="M-1319,2562.3c5,7.3,32.6,19.4,32.6,19.4s-1.3-30.1-6.2-37.4c-5.5-6.9-15.6-8-22.5-2.5
		C-1321.4,2546.7-1323,2555.4-1319,2562.3L-1319,2562.3z"/>
</g>
<path class="st0" d="M-1650.3,2872.8c39.3,13.2,87.3,5.2,131.9,6.1c6.1,0.1,12.6,0.5,17.5,2.8s7.3,6,10.7,9.2
	c12.5,11.8,38.1,15.6,60.5,13.6s42.9-8.6,64-13.7c36.5-8.7,78.3-12.7,114.3-3.2c3.3,0.9,6.8,1.9,10.3,1.5
	c7.9-0.8,10.2-7.1,15.8-10.7c10-6.5,31.6-4.8,36-13.3c2.6-5-3.3-10.2-9.8-13.6c-24.6-13.2-59.8-15.3-92.1-13.3s-63.9,7.6-96.3,7.6
	c-40.3,0-79.3-8.6-119.3-12.1c-27.7-2.4-57.9-2.1-83.8,5C-1618.6,2846.5-1624.8,2863.9-1650.3,2872.8z"/>
<path class="st5" d="M-1444,2199.9h45c1.9,0,3.5,1.6,3.5,3.5l0,0c0,1.9-1.6,3.5-3.5,3.5h-45c-1.9,0-3.5-1.6-3.5-3.5l0,0
	C-1447.5,2201.5-1445.9,2199.9-1444,2199.9z"/>
<circle class="st5" cx="-1377.5" cy="2203.9" r="5"/>
<path class="st6" d="M-1544.6,2192.5h243.3c24,0,43.4,19.4,43.4,43.4v584.2c0,24-19.4,43.4-43.4,43.4h-243.3
	c-24,0-43.4-19.4-43.4-43.4v-584.2C-1588,2212-1568.6,2192.5-1544.6,2192.5z"/>
<path class="st3" d="M-1304.6,2210.6h-37.9v4.6c0,11.9-9.7,21.6-21.6,21.6l0,0h-120.5c-11.9,0-21.6-9.7-21.6-21.6l0,0v-4.6h-35.5
	c-14.5,0-26.2,11.7-26.2,26.2l0,0v583.7c0,14.5,11.7,26.2,26.2,26.2h237c14.5,0,26.2-11.7,26.2-26.2v-583.6
	C-1278.4,2222.4-1290.1,2210.6-1304.6,2210.6L-1304.6,2210.6z"/>
<path class="st7" d="M-1450.5,2212.5h37.5c2.4,0,4.3,1.9,4.3,4.3v0.7c0,2.4-1.9,4.3-4.3,4.3h-37.5c-2.4,0-4.3-1.9-4.3-4.3v-0.7
	C-1454.8,2214.5-1452.9,2212.5-1450.5,2212.5z"/>
<circle class="st7" cx="-1396.4" cy="2217.2" r="5.3"/>
<g>
	<path class="st8" d="M-1501.1,2500.4c-18,31.2-6.6,78.7,13.3,107.3c9.9,14.4,20,27.3,33.8,27.3c0.3,0,0.5,0,0.8,0
		c6.5-0.3,11.1-2.2,15.7-4.1c5-2.2,10.3-4.4,18.6-4.4c7.9,0,12.9,2.2,17.7,4.3c4.7,2.1,9.7,4.2,16.9,4.1
		c15.5-0.3,25.1-14.2,33.4-26.5c8.8-12.8,13.2-25.3,14.7-30l0.1-0.3c0.3-0.9-0.2-1.7-0.9-2.1c0,0-0.1-0.1-0.2-0.1
		c-2.7-1.1-26.8-11.7-26.9-40.7c-0.3-23.6,18-36,21.6-38.3l0.2-0.1c0.3-0.3,0.7-0.7,0.8-1.1c0.1-0.4,0-0.9-0.3-1.4
		c-12.6-18.4-31.8-21.1-39.6-21.6c-1.1-0.1-2.2-0.2-3.4-0.2c-9.2,0-17.9,3.4-24.9,6.2c-4.8,1.9-9.1,3.5-11.9,3.5
		c-3.2,0-7.4-1.6-12.3-3.6c-6.6-2.6-13.9-5.5-21.7-5.5c-0.2,0-0.3,0-0.5,0C-1474.5,2473.6-1491.7,2484-1501.1,2500.4z"/>
	<path class="st8" d="M-1381.5,2422.2c-11,0.4-24.2,7.3-32.1,16.5c-6.7,7.8-13.3,20.7-11.5,33.8c0.1,0.9,0.8,1.5,1.5,1.5
		c0.8,0.1,1.5,0.1,2.2,0.1c10.8,0,22.3-6,30.3-15.5c8.4-10.1,12.6-23.1,11.3-34.7C-1379.8,2422.8-1380.6,2422.1-1381.5,2422.2z"/>
</g>
</svg>
