<svg height="512pt" viewBox="0 0 512 512.001" width="512pt" xmlns="http://www.w3.org/2000/svg"><path d="m468.910156 331.28125c-3.070312 0-6.101562-1.410156-8.0625-4.070312-3.273437-4.449219-2.320312-10.707032 2.125-13.984376 18.175782-13.378906 29.027344-34.773437 29.027344-57.226562s-10.851562-43.847656-29.027344-57.230469c-4.445312-3.273437-5.394531-9.53125-2.121094-13.980469 3.273438-4.449218 9.53125-5.398437 13.980469-2.125 23.273438 17.136719 37.167969 44.550782 37.167969 73.335938s-13.894531 56.199219-37.167969 73.335938c-1.785156 1.3125-3.863281 1.945312-5.921875 1.945312zm0 0"/><path d="m441.472656 306.410156c-3.070312 0-6.101562-1.410156-8.0625-4.070312-3.273437-4.449219-2.324218-10.707032 2.125-13.984375 10.277344-7.566407 16.417969-19.664063 16.417969-32.355469s-6.140625-24.785156-16.417969-32.355469c-4.449218-3.273437-5.398437-9.535156-2.125-13.980469 3.273438-4.449218 9.535156-5.398437 13.980469-2.125 15.378906 11.320313 24.5625 29.4375 24.5625 48.460938s-9.183594 37.140625-24.5625 48.464844c-1.785156 1.3125-3.859375 1.945312-5.917969 1.945312zm0 0"/><path d="m43.089844 331.28125c-2.058594 0-4.136719-.632812-5.921875-1.945312-23.273438-17.136719-37.167969-44.550782-37.167969-73.335938s13.894531-56.199219 37.167969-73.335938c4.449219-3.273437 10.707031-2.324218 13.984375 2.125 3.273437 4.449219 2.320312 10.707032-2.125 13.984376-18.175782 13.378906-29.027344 34.773437-29.027344 57.226562s10.851562 43.847656 29.027344 57.226562c4.445312 3.277344 5.398437 9.535157 2.125 13.984376-1.960938 2.660156-4.992188 4.070312-8.0625 4.070312zm0 0"/><path d="m70.53125 306.410156c-2.0625 0-4.136719-.632812-5.921875-1.949218-15.378906-11.320313-24.558594-29.4375-24.558594-48.460938s9.179688-37.140625 24.558594-48.460938c4.445313-3.277343 10.707031-2.324218 13.980469 2.121094 3.277344 4.449219 2.324218 10.707032-2.125 13.984375-10.277344 7.566407-16.414063 19.664063-16.414063 32.355469s6.136719 24.789062 16.414063 32.355469c4.449218 3.273437 5.402344 9.535156 2.125 13.980469-1.960938 2.664062-4.988282 4.074218-8.058594 4.074218zm0 0"/><path d="m396.800781 73.996094v334.003906h-281.601562v-334.003906" fill="#fcfcfc"/><path d="m310.335938 73.996094h-195.136719v-37.191406c0-14.804688 12-26.804688 26.804687-26.804688h227.992188c14.804687 0 26.804687 12.003906 26.804687 26.804688v37.191406" fill="#52607e"/><path d="m352.671875 84c-.652344 0-1.3125-.070312-1.953125-.199219-.636719-.128906-1.269531-.320312-1.878906-.570312-.597656-.25-1.179688-.558594-1.71875-.921875-.550782-.359375-1.0625-.777344-1.519532-1.238282-.460937-.460937-.882812-.96875-1.25-1.519531-.359374-.539062-.671874-1.121093-.921874-1.730469-.25-.601562-.4375-1.230468-.570313-1.871093-.128906-.640625-.1875-1.300781-.1875-1.949219s.058594-1.308594.1875-1.960938c.132813-.628906.320313-1.257812.570313-1.867187.25-.601563.5625-1.179687.921874-1.722656.367188-.550781.789063-1.058594 1.25-1.519531.457032-.460938.96875-.878907 1.519532-1.25.539062-.359376 1.121094-.667969 1.71875-.917969.609375-.25 1.242187-.441407 1.878906-.570313 1.28125-.261718 2.613281-.261718 3.902344 0 .640625.128906 1.269531.320313 1.871094.570313.605468.25 1.1875.558593 1.726562.917969.550781.371093 1.0625.789062 1.523438 1.25.457031.460937.878906.96875 1.238281 1.519531.359375.542969.667969 1.121093.917969 1.722656.25.609375.441406 1.238281.570312 1.867187.128906.652344.199219 1.3125.199219 1.960938s-.070313 1.3125-.199219 1.949219c-.128906.640625-.320312 1.273437-.570312 1.871093-.25.609376-.558594 1.191407-.917969 1.730469-.359375.550781-.78125 1.058594-1.238281 1.519531-.460938.460938-.972657.878907-1.523438 1.238282-.539062.363281-1.121094.671875-1.726562.921875-.601563.25-1.230469.441406-1.871094.570312-.640625.128907-1.300782.199219-1.949219.199219zm0 0"/><path d="m181.003906 408h215.796875v67.195312c0 14.804688-12 26.804688-26.804687 26.804688h-227.992188c-14.804687 0-26.804687-12.003906-26.804687-26.804688v-67.195312" fill="#52607e"/><path d="m256 475c-11.027344 0-20-8.972656-20-20s8.972656-20 20-20 20 8.972656 20 20-8.972656 20-20 20zm0 0" fill="#fcfcfc"/><path d="m256 485.003906c-16.542969 0-30-13.460937-30-30 0-16.542968 13.457031-30 30-30s30 13.457032 30 30c0 16.539063-13.457031 30-30 30zm0-40c-5.511719 0-10 4.484375-10 10 0 5.511719 4.488281 10 10 10 5.515625 0 10-4.488281 10-10 0-5.515625-4.484375-10-10-10zm0 0"/><path d="m170.371094 246h57.085937v58.664062h-57.085937zm0 0" fill="#50b4ff"/><path d="m170.371094 304.667969h57.085937v58.667969h-57.085937zm0 0" fill="#fcfcfc"/><path d="m227.457031 246h57.085938v58.664062h-57.085938zm0 0" fill="#fcfcfc"/><path d="m227.457031 187.332031h57.085938v58.664063h-57.085938zm0 0" fill="#52607e"/><path d="m227.457031 304.667969h57.085938v58.667969h-57.085938zm0 0" fill="#52607e"/><path d="m284.542969 246h57.089843v58.664062h-57.089843zm0 0" fill="#f3756a"/><path d="m284.542969 187.332031h57.089843v58.664063h-57.089843zm0 0" fill="#fcfcfc"/><path d="m284.542969 128.664062h57.089843v58.667969h-57.089843zm0 0" fill="#f3756a"/><path d="m284.542969 304.667969h57.089843v58.667969h-57.089843zm0 0" fill="#fcfcfc"/><path d="m369.996094 0h-227.992188c-20.292968 0-36.804687 16.511719-36.804687 36.808594v438.386718c0 20.292969 16.511719 36.804688 36.804687 36.804688h227.992188c20.296875 0 36.804687-16.511719 36.804687-36.804688v-438.386718c0-20.296875-16.507812-36.808594-36.804687-36.808594zm16.804687 475.191406c0 9.269532-7.539062 16.808594-16.804687 16.808594h-227.992188c-9.265625 0-16.804687-7.539062-16.804687-16.808594v-391.195312h185.136719c5.523437 0 10-4.476563 10-10 0-5.519532-4.476563-10-10-10h-185.136719v-27.1875c0-9.269532 7.539062-16.808594 16.804687-16.808594h227.992188c9.265625 0 16.804687 7.539062 16.804687 16.808594v361.191406h-205.796875c-5.523437 0-10 4.476562-10 10s4.476563 10 10 10h205.796875zm0 0"/><path d="m351.632812 363.335938v-234.671876c0-5.523437-4.480468-10-10-10h-57.089843c-5.519531 0-10 4.476563-10 10v48.667969h-47.085938c-5.523437 0-10 4.476563-10 10v48.667969h-47.085937c-5.523438 0-10 4.476562-10 10v117.335938c0 5.519531 4.476562 10 10 10h171.261718c5.519532 0 10-4.480469 10-10zm-134.175781-10h-37.085937v-38.671876h37.085937zm0-58.671876h-37.085937v-38.664062h37.085937zm57.085938 58.671876h-37.085938v-38.671876h37.085938zm0-58.671876h-37.085938v-38.664062h37.085938zm0-58.664062h-37.085938v-38.667969h37.085938zm57.089843 117.335938h-37.089843v-38.671876h37.089843zm0-58.671876h-37.089843v-38.664062h37.089843zm0-58.664062h-37.089843v-38.667969h37.089843zm0-58.667969h-37.089843v-38.667969h37.089843zm0 0"/></svg>