<svg height="512pt" viewBox="-106 0 512 512" width="512pt" xmlns="http://www.w3.org/2000/svg"><path d="m300 45c0-24.8125-20.1875-45-45-45h-105l-60 256 60 256h105c24.8125 0 45-20.1875 45-45v-75l-81.175781-136 81.175781-196zm0 0"/><path d="m0 45c0-24.8125 20.1875-45 45-45h105v512h-105c-24.8125 0-45-20.1875-45-45v-75l81.175781-136-81.175781-196zm0 0" fill="#3c4047"/><path d="m150 392h150v-332h-150l-60 166zm0 0" fill="#3c4047"/><path d="m0 60h150v332h-150zm0 0" fill="#636c72"/><path d="m180 437h-30l-20 15 20 15h30zm0 0" fill="#d3dee1"/><path d="m120 437h30v30h-30zm0 0" fill="#fff"/><path d="m235.960938 200.964844c.011718-.742188.039062-1.480469.039062-2.222656v-69.140626l-12.082031-2.398437c-24.226563-4.800781-49.070313-7.203125-73.917969-7.203125l-40 120.964844zm0 0" fill="#5aecff"/><path d="m150 120c-24.847656 0-49.691406 2.402344-73.917969 7.207031l-12.082031 2.394531v69.140626c0 .742187.027344 1.480468.039062 2.222656l85.960938 40zm0 0" fill="#fff"/><path d="m150 200.964844-20 65.5 20 65.535156 6.835938-3.535156c48.171874-24.664063 78.320312-73.375 79.125-127.5zm0 0" fill="#199aff"/><path d="m64.039062 200.964844c.804688 54.125 30.953126 102.835937 79.125 127.5l6.835938 2.535156v-130.035156zm0 0" fill="#08e2ff"/></svg>