<?xml version="1.0" encoding="utf-8"?>
<!-- Generator: Adobe Illustrator 16.0.0, SVG Export Plug-In . SVG Version: 6.00 Build 0)  -->
<!DOCTYPE svg PUBLIC "-//W3C//DTD SVG 1.1//EN" "http://www.w3.org/Graphics/SVG/1.1/DTD/svg11.dtd">
<svg version="1.1" id="Layer_1" xmlns="http://www.w3.org/2000/svg" xmlns:xlink="http://www.w3.org/1999/xlink" x="0px" y="0px"
	 width="1024px" height="313.699px" viewBox="0 0 1024 313.699" enable-background="new 0 0 1024 313.699" xml:space="preserve">
<path fill-rule="evenodd" clip-rule="evenodd" fill="#035E7F" d="M782.148,171.59c0-27.346,0-55.01,0-83.769
	c15.476,0.555,30.726,0.49,45.837,1.903c7.574,0.708,13.392,5.652,14.765,14.08c1.345,8.248-0.953,15.054-7.849,20.077
	c-0.759,0.552-1.482,1.16-2.174,1.703c0.29,0.563,0.367,1.002,0.588,1.096c12.813,5.404,16.605,11.372,15.162,23.916
	c-1.248,10.826-9.615,19.972-21.514,20.761C812.281,172.33,797.485,171.59,782.148,171.59z M802.6,158.18
	c6.592-0.727,12.677-0.897,18.508-2.199c4.81-1.072,6.511-5.42,6.396-10.032c-0.115-4.71-2.338-8.636-7.239-9.373
	c-5.741-0.864-11.623-0.792-17.665-1.139C802.6,143.232,802.6,149.966,802.6,158.18z M802.394,103.504c0,2.896,0,5.482,0,8.068
	c0,11.329,0.701,11.894,12.029,9.697c5.159-1,7.622-4.126,7.435-9.434c-0.174-4.975-2.72-7.809-8.009-8.272
	C810.284,103.251,806.672,103.504,802.394,103.504z"/>
<path fill-rule="evenodd" clip-rule="evenodd" fill="#035E7F" d="M933.752,87.791c14.732,0.6,29.271-0.011,43.42,2.054
	c20.527,2.996,32.761,21.473,31.143,44.164c-1.523,21.375-15.134,35.939-36.51,37.568c-12.486,0.949-25.106,0.172-38.053,0.172
	C933.752,144.444,933.752,116.804,933.752,87.791z M954.255,156.827c11.589,0.853,22.684,0.999,28.917-10.357
	c6.089-11.095,6.114-22.836-0.978-33.508c-6.608-9.948-17.114-9.882-27.939-8.846C954.255,121.717,954.255,139.047,954.255,156.827z
	"/>
<path fill-rule="evenodd" clip-rule="evenodd" fill="#EE444E" d="M534.044,130.859c0.389,10.729-1.557,20.947-8.469,29.461
	c-11.707,14.419-27.417,16.566-44.243,12.694c-15.996-3.682-24.96-14.964-27.381-30.652c-1.289-8.354-1.268-17.351,0.359-25.627
	c4.087-20.803,20.927-31.769,43.854-29.91c20.401,1.653,34.52,16.022,35.856,36.563
	C534.183,125.869,534.044,128.369,534.044,130.859z M473.129,130.896c1.447,5.9,2.25,11.865,4.407,17.29
	c2.692,6.77,8.094,10.786,15.768,10.859c7.658,0.073,13.066-3.792,16.048-10.495c5.316-11.945,5.102-24.165-0.042-36.117
	c-2.947-6.849-8.555-10.473-16.086-10.437c-7.644,0.037-13.075,4.154-15.69,10.97C475.381,118.575,474.591,124.706,473.129,130.896z
	"/>
<path fill-rule="evenodd" clip-rule="evenodd" fill="#EE444E" d="M768.96,129.672c-0.193,13.243-2.396,24.895-11.663,33.829
	c-12.903,12.443-28.523,13.608-44.533,8.575c-15.142-4.762-22.928-16.598-24.591-31.99c-0.806-7.473-0.895-15.363,0.591-22.68
	c4.362-21.502,20.533-32.394,43.797-30.585c20.662,1.605,34.746,16.034,35.998,36.876
	C768.699,126.017,768.87,128.335,768.96,129.672z M707.789,129.92c1.168,5.711,1.75,11.19,3.453,16.294
	c2.773,8.31,8.933,12.719,16.479,12.839c7.71,0.124,13.851-3.933,17.019-12.132c4.356-11.28,4.146-22.724-0.533-33.891
	c-2.953-7.056-8.464-10.995-16.229-11.033c-7.877-0.037-13.317,4.238-16.015,11.253C709.917,118.568,709.129,124.369,707.789,129.92
	z"/>
<path fill-rule="evenodd" clip-rule="evenodd" fill="#EE444E" d="M439.067,172.537c-5.778,0-11.227-0.089-16.671,0.031
	c-3.415,0.076-3.119-2.264-3.127-4.393c-0.04-8.974-0.022-17.948-0.025-26.921c0-1.967,0-3.936,0-6.254c-10.106,0-19.638,0-29.639,0
	c0,12.266,0,24.491,0,37.129c-6.977,0-13.503,0-20.379,0c0-27.665,0-55.34,0-83.419c6.454,0,12.98,0,19.981,0
	c0,9.913,0,19.811,0,30.112c9.99,0,19.525,0,30.038,0c0-6.817,0-13.71,0-20.601c0-9.914,0-9.914,10.071-9.914
	c3.124,0,6.25,0,9.752,0C439.067,116.397,439.067,144.065,439.067,172.537z"/>
<path fill-rule="evenodd" clip-rule="evenodd" fill="#EE444E" d="M542.552,147.075c2.853,1.883,4.459,2.98,6.099,4.021
	c9.534,6.047,19.653,9.655,31.137,7.211c4.503-0.958,8.368-2.92,8.482-8.248c0.109-5.218-3.997-7.025-7.997-8.24
	c-6.49-1.97-13.272-3.038-19.667-5.254c-15.566-5.395-22.205-21.477-14.458-34.715c5.287-9.036,14.067-13.142,23.909-14.378
	c10.77-1.354,21.533-0.415,31.982,3.062c3.14,1.044,4.624,2.608,4.427,6.075c-0.262,4.572-0.065,9.17-0.065,14.964
	c-2.608-1.565-4.084-2.462-5.575-3.341c-8.521-5.036-17.494-8.058-27.515-5.693c-4.206,0.991-8.113,2.765-8.42,7.834
	c-0.325,5.36,3.762,6.933,7.894,8.086c5.902,1.645,11.925,2.891,17.774,4.704c13.207,4.097,19.095,11.042,19.25,22.204
	c0.172,12.329-6.241,21.894-18.704,25.837c-15.604,4.94-31.143,3.362-46.221-2.758c-0.985-0.398-2.194-1.77-2.229-2.728
	C542.445,159.974,542.552,154.218,542.552,147.075z"/>
<path fill-rule="evenodd" clip-rule="evenodd" fill="#035E7F" d="M861.981,172.225c0-28.025,0-55.694,0-83.629
	c18.649,0,37.019,0,55.76,0c0,4.823,0,9.557,0,15.018c-11.577,0-23.251,0-35.221,0c0,5.438,0,10.16,0,15.417
	c10.747,0,21.297,0,32.295,0c0,5.363,0,10.205,0,15.577c-10.761,0-21.313,0-32.236,0c0,7.565,0,14.617,0,22.222
	c11.556,0,23.102,0,35.086,0c0,5.384,0,10.238,0,15.395C899.237,172.225,880.869,172.225,861.981,172.225z"/>
<path fill-rule="evenodd" clip-rule="evenodd" fill="#EE444E" d="M637.187,172.139c0-22.758,0-45.159,0-68.096
	c-8.228,0-16.123,0-24.456,0c0-5.379,0-10.239,0-15.421c23.044,0,46.078,0,69.545,0c0,4.764,0,9.619,0,15.021
	c-7.938,0-15.835,0-24.253,0c0,23.045,0,45.571,0,68.497C650.973,172.139,644.444,172.139,637.187,172.139z"/>
<g>
	<path fill-rule="evenodd" clip-rule="evenodd" fill="#035E7F" d="M152.208,28.176c0,6.732,0,13.465,0,20.368
		c-9.376,0.364-16.616,3.566-18.93,13.216c-0.804,3.35-0.916,6.911-0.979,10.382c-0.152,8.306,0.089,16.621-0.159,24.922
		c-0.299,10.051-4.612,17.482-14.664,20.766c-0.445,0.145-0.817,0.537-1.199,0.845c-0.114,0.091-0.148,0.282-0.403,0.809
		c0.938,0.425,1.857,0.896,2.814,1.267c8.314,3.22,12.618,9.577,13.195,18.176c0.534,7.942,0.223,15.938,0.395,23.908
		c0.082,3.81,0.269,7.631,0.669,11.421c0.93,8.783,6.902,14.623,15.685,14.845c11.126,0.281,22.264,0.158,33.395,0.161
		c33.069,0.016,66.138,0.019,99.206,0.003c14.771-0.009,20.877-6.113,20.905-20.835c0.016-7.645,0.145-15.291-0.029-22.931
		c-0.276-12.266,3.549-21.859,17.039-26.053c-1.725-1.002-2.742-1.739-3.868-2.225c-9.007-3.888-12.812-11.185-13.08-20.511
		c-0.248-8.634-0.055-17.281-0.059-25.921c-0.004-14.911-4.608-20.241-20.25-22.512c0-6.603,0-13.352,0-20.101
		c2.329,0,4.654,0,6.983,0c3.92,1.122,7.906,2.053,11.747,3.399c13.104,4.592,19.346,14.778,20.699,27.796
		c1.095,10.529,0.826,21.211,0.955,31.826c0.143,11.849,3.203,15.585,14.9,17.57c1.606,0.272,3.213,0.545,5.247,0.889
		c0,5.608,0.189,11.066-0.154,16.49c-0.073,1.148-1.92,2.638-3.263,3.145c-1.954,0.739-4.265,0.479-6.292,1.084
		c-7.362,2.194-10.234,6.105-10.4,13.745c-0.239,10.948,0.024,21.934-0.827,32.835c-1.596,20.405-14.945,32.352-35.574,32.455
		c-18.272,0.093-36.546,0.083-54.817-0.033c-3.505-0.022-4.986,0.602-5.63,4.708c-4.404,28.193-17.852,50.639-43.124,65.057
		c-9.736,5.551-20.244,8.933-31.433,10.134c-1.588,0.17-3.125,0.827-4.686,1.257c-3.989,0-7.98,0-11.97,0
		c-1.401-0.428-2.792-0.888-4.205-1.275c-9.039-2.47-18.567-3.837-27.036-7.593c-26.143-11.595-42.399-32.539-52.248-58.813
		c-1.309-3.494-3.139-4.843-6.684-5.303c-13.8-1.796-24.026-11.214-27.26-24.665c-0.257-1.075-0.843-2.071-1.277-3.104
		c0-2.66,0-5.32,0-7.979c2.003-4.655,3.354-9.752,6.134-13.881c7.799-11.58,19.152-16.155,32.769-13.616
		c12.416,2.315,20.882,10.014,24.473,22.139c3.688,12.456,0.734,23.683-8.708,32.724c-2.583,2.475-2.975,4.18-1.685,7.506
		c7.616,19.662,19.353,35.791,38.311,45.887c40.173,21.395,90.45,1.055,99.442-48.234c0.257-1.407,0.032-2.902,0.032-4.893
		c-1.926,0-3.713,0-5.499,0c-17.115-0.003-34.23,0.024-51.344-0.009c-22.916-0.042-36.843-14.045-36.864-37.019
		c-0.007-8.641,0.032-17.281-0.01-25.921c-0.052-10.71-4.748-16.047-15.307-16.848c-3.832-0.29-5.214-1.671-4.994-5.489
		c0.272-4.764,0.065-9.554,0.065-14.465c2.649-0.501,4.733-0.915,6.826-1.29c9.131-1.643,13.243-6.309,13.387-15.634
		c0.135-8.806,0.021-17.613,0.035-26.419c0.031-20.7,10.367-34.574,30.897-37.065c0.936-0.113,1.813-0.721,2.717-1.098
		C148.218,28.176,150.212,28.176,152.208,28.176z M48,198.95c6.856,0.156,13.089-5.832,13.339-12.815
		c0.248-6.876-5.669-13.2-12.634-13.504c-7.143-0.313-13.438,5.772-13.494,13.045C35.159,192.748,40.981,198.792,48,198.95z"/>
	<path fill-rule="evenodd" clip-rule="evenodd" fill="#EE444E" d="M266.231,137.77c-9.884,0-19.311,0-29.313,0
		c0,9.936,0,19.488,0,29.41c-13.272,0-25.964,0-39.201,0c0-9.598,0-19.169,0-29.281c-10.081,0-19.638,0-29.659,0
		c0-13.363,0-26.188,0-39.565c9.673,0,19.222,0,29.332,0c0-10.078,0-19.634,0-29.576c13.243,0,25.919,0,39.184,0
		c0,9.538,0,19.088,0,29.214c10.111,0,19.659,0,29.657,0C266.231,111.371,266.231,124.19,266.231,137.77z"/>
</g>
</svg>
