<?xml version="1.0" encoding="iso-8859-1"?>
<!-- Generator: Adobe Illustrator 19.0.0, SVG Export Plug-In . SVG Version: 6.00 Build 0)  -->
<svg version="1.1" id="Layer_1" xmlns="http://www.w3.org/2000/svg" xmlns:xlink="http://www.w3.org/1999/xlink" x="0px" y="0px"
	 viewBox="0 0 512.001 512.001" style="enable-background:new 0 0 512.001 512.001;" xml:space="preserve">
<path style="fill:#465A65;" d="M472.863,285.156H39.137c-4.13,0-7.479,3.361-7.479,7.507v211.569c0,4.146,3.348,7.507,7.479,7.507
	h433.727c4.131,0,7.479-3.361,7.479-7.507V292.664C480.342,288.518,476.994,285.156,472.863,285.156z"/>
<path style="fill:#2E3C42;" d="M472.863,285.156H39.137c-4.13,0-7.479,3.361-7.479,7.507v25.024h448.685v-25.024
	C480.342,288.518,476.994,285.156,472.863,285.156z"/>
<path style="fill:#68B9D8;" d="M147.658,122.016c-0.068-0.001-0.136-0.001-0.204,0c-52.124,0.716-96.158,43.613-96.158,93.673
	v28.612c0,4.146,3.348,7.507,7.479,7.507h177.562c4.13,0,7.479-3.361,7.479-7.507v-28.612
	C243.816,165.629,199.781,122.732,147.658,122.016z"/>
<path style="fill:#3695B2;" d="M147.658,122.016c-0.068-0.001-0.136-0.001-0.204,0c-4.463,0.061-8.865,0.439-13.186,1.097
	c46.153,7.025,82.972,46.802,82.972,92.577v28.612c0,4.146-3.348,7.507-7.479,7.507h26.577c4.13,0,7.479-3.361,7.479-7.507V215.69
	C243.816,165.629,199.781,122.732,147.658,122.016z"/>
<path style="fill:#D3333C;" d="M128.953,154.747h37.205l9.635-18.79c1.678-3.279,2.86-5.932,3.658-8.097
	c-10.003-3.628-20.714-5.692-31.793-5.844c-0.068-0.001-0.136-0.001-0.204,0c-10.979,0.151-21.596,2.179-31.521,5.746
	c0.868,2.299,1.974,4.993,3.384,8.195L128.953,154.747z"/>
<path style="fill:#AF273B;" d="M179.451,127.86c-6.56-2.379-13.43-4.07-20.504-5.006l-16.159,31.893h4.767h18.603l9.635-18.79
	C177.471,132.677,178.653,130.025,179.451,127.86z"/>
<path style="fill:#F2464F;" d="M166.256,154.747h-37.401l-11.502,50.121c-0.624,2.719,0.258,5.563,2.308,7.446l22.689,20.844
	c1.473,1.353,3.339,2.03,5.206,2.03s3.733-0.677,5.206-2.03l22.689-20.844c2.05-1.884,2.932-4.729,2.308-7.446L166.256,154.747z"/>
<path style="fill:#D3333C;" d="M133.826,225.328l8.524,7.832c1.473,1.353,3.339,2.03,5.206,2.03s3.733-0.677,5.206-2.03
	l22.689-20.844c2.05-1.884,2.932-4.729,2.308-7.446l-11.502-50.121h-18.7h-4.767l11.817,51.491L133.826,225.328z"/>
<path style="fill:#232323;" d="M395.496,203.11h-53.104c-4.13,0-7.479,3.361-7.479,7.507v33.684c0,4.146,3.348,7.507,7.479,7.507
	h53.104c4.13,0,7.479-3.361,7.479-7.507v-33.684C402.975,206.471,399.627,203.11,395.496,203.11z"/>
<path style="fill:#353535;" d="M464.58,75.578H273.309c-4.13,0-7.479,3.361-7.479,7.507v127.532c0,4.146,3.348,7.507,7.479,7.507
	h191.27c4.13,0,7.479-3.361,7.479-7.507V83.085C472.058,78.939,468.71,75.578,464.58,75.578z"/>
<path style="fill:#232323;" d="M464.58,75.578h-19.944v142.546h19.944c4.13,0,7.479-3.361,7.479-7.507V83.085
	C472.058,78.939,468.71,75.578,464.58,75.578z"/>
<path style="fill:#546F7A;" d="M504.522,236.793H7.479c-4.131,0-7.479,3.361-7.479,7.507v48.363c0,4.146,3.348,7.507,7.479,7.507
	h497.042c4.13,0,7.479-3.361,7.479-7.507v-48.363C512,240.155,508.652,236.793,504.522,236.793z"/>
<path style="fill:#FFC89F;" d="M147.555,0.261c-27.52,0-49.908,22.473-49.908,50.097v36.649c0,27.624,22.389,50.097,49.908,50.097
	s49.908-22.473,49.908-50.097V50.357C197.464,22.734,175.075,0.261,147.555,0.261z"/>
<path style="fill:#F7B081;" d="M147.555,0.261c-4.842,0-9.519,0.71-13.95,2.006c20.749,6.075,35.958,25.327,35.958,48.091v36.649
	c0,22.763-15.209,42.016-35.958,48.091c4.43,1.297,9.108,2.006,13.95,2.006c27.52,0,49.908-22.473,49.908-50.097V50.357
	C197.464,22.734,175.075,0.261,147.555,0.261z"/>
<path d="M197.464,68.679V50.357c0-27.624-22.389-50.097-49.908-50.097S97.647,22.734,97.647,50.357v18.325h7.479
	c37.085,0,50.595-25.135,50.595-25.135s9.443,25.013,34.263,25.13L197.464,68.679z"/>
<g>
</g>
<g>
</g>
<g>
</g>
<g>
</g>
<g>
</g>
<g>
</g>
<g>
</g>
<g>
</g>
<g>
</g>
<g>
</g>
<g>
</g>
<g>
</g>
<g>
</g>
<g>
</g>
<g>
</g>
</svg>
