<svg width="72" height="72" fill="none" xmlns="http://www.w3.org/2000/svg"><g clip-path="url(#clip0)" fill="#FF5200"><path d="M15 20.567a.97.97 0 00.645-.239 27.326 27.326 0 012.845-2.093.999.999 0 10-1.078-1.682 29.588 29.588 0 00-3.055 2.248A1.001 1.001 0 0015 20.567zM59.452 31.734a.996.996 0 00-.66 1.25c.38 1.224.673 2.488.873 3.752a1 1 0 001.976-.31 29.328 29.328 0 00-.94-4.032 1 1 0 00-1.25-.66zM29.12 14.269c.047 0 .095-.004.14-.01A27.028 27.028 0 0133 14h.108c.555 0 .947-.448.947-1s-.5-1-1.052-1c-1.346 0-2.698.094-4.018.278a1 1 0 00.136 1.99zM21.464 16.487a.977.977 0 00.412-.09 26.991 26.991 0 013.612-1.334c.532-.156.836-.71.684-1.24a1.005 1.005 0 00-1.238-.682c-1.32.382-2.626.866-3.884 1.436a1 1 0 00.414 1.91zM36.946 14.287c1.272.186 2.538.466 3.764.83a.993.993 0 001.242-.672 1.001 1.001 0 00-.674-1.244 28.803 28.803 0 00-4.044-.892.995.995 0 00-1.134.844c-.08.546.3 1.054.846 1.134zM41 34c-2.758 0-5 2.244-5 5s2.242 5 5 5 5-2.244 5-5-2.242-5-5-5zm0 8c-1.654 0-3-1.346-3-3s1.346-3 3-3 3 1.346 3 3-1.346 3-3 3zM57.311 54.917a1.005 1.005 0 00-1.376.32 27.373 27.373 0 01-2.268 3.118A1 1 0 0054.433 60a.992.992 0 00.764-.358 28.78 28.78 0 002.432-3.346 1 1 0 00-.318-1.378zM55.314 27.1l.737 2.216a.998.998 0 001.657.388l4-4a.995.995 0 00.265-.936.995.995 0 00-.656-.718l-2.214-.738 1.602-1.602a1 1 0 00-.708-1.708h-2.901a10.99 10.99 0 00-8.148-5.735l-1.806-.258a1.01 1.01 0 00-.848.284.996.996 0 00-.284.848l.26 1.811A10.99 10.99 0 0052 25.098V28a1 1 0 001.706.708l1.608-1.608zm2.955-1.954l.878.292-1.71 1.71-.292-.878 1.124-1.124zm-10.02-8.473l-.07-.494.485.068a8.994 8.994 0 016.777 4.89l.15.297c.53 1.062.91 1.82 1.2 2.358l-.99.99-2.67-1.334a8.996 8.996 0 01-4.881-6.775zM60.257 47.505a.995.995 0 00-1.23.697 26.636 26.636 0 01-1.294 3.63 1 1 0 001.832.805c.552-1.26 1.02-2.57 1.388-3.9a1.001 1.001 0 00-.696-1.232z"/><path d="M33 22c-10.476 0-19 8.524-19 19 0 10.475 8.524 19 19 19 10.477 0 18.999-8.525 18.999-19 0-10.476-8.524-19-19-19zm0 36c-9.374 0-17-7.627-17-17 0-9.374 7.626-17 17-17 9.373 0 16.999 7.626 16.999 17 0 9.373-7.626 17-17 17zM60.981 39.562a1 1 0 00-.986 1.014L60 41c0 1.146-.072 2.298-.217 3.424a1.003 1.003 0 00.994 1.128.998.998 0 00.99-.874c.154-1.21.232-2.446.232-3.678l-.004-.452c-.01-.552-.426-1.056-1.014-.986z"/></g><defs><clipPath id="clip0"><path fill="#fff" d="M14 12h48v48H14z"/></clipPath></defs></svg>