<?xml version="1.0" encoding="iso-8859-1"?>
<!-- Generator: Adobe Illustrator 19.0.0, SVG Export Plug-In . SVG Version: 6.00 Build 0)  -->
<svg version="1.1" id="Layer_1" xmlns="http://www.w3.org/2000/svg" xmlns:xlink="http://www.w3.org/1999/xlink" x="0px" y="0px"
	 viewBox="0 0 326.653 326.653" style="enable-background:new 0 0 326.653 326.653;" xml:space="preserve">
<g>
	<path style="fill:#5C6670;" d="M70.297,310.226c0,9.035,7.391,16.427,16.426,16.427h134.385c9.035,0,16.427-7.392,16.427-16.427
		V16.427C237.534,7.392,230.143,0,221.107,0H86.723c-9.035,0-16.426,7.392-16.426,16.427V310.226z"/>
	<path style="fill:#1E252B;" d="M89.118,310.226c0,9.035,7.391,16.427,16.426,16.427h134.385c9.034,0,16.427-7.392,16.427-16.427
		V16.427C256.355,7.392,248.963,0,239.929,0H105.544c-9.035,0-16.426,7.392-16.426,16.427V310.226z"/>
	<rect x="89.118" y="34.087" style="fill:#FFC843;" width="167.237" height="235.621"/>
	<g>
		<path style="fill:#1E252B;" d="M141.607,176.233l-31.277-14.85c-3.527-1.67-5.661-4.268-5.661-7.888v-0.929
			c0-3.62,2.134-6.218,5.661-7.889l31.277-14.85c1.113-0.557,2.134-0.928,3.433-0.928c2.971-0.093,5.663,2.506,5.663,5.847
			c0,2.692-1.486,4.547-3.9,5.662l-28.028,12.529l28.028,12.529c2.413,1.114,3.9,3.248,3.9,5.848c0,3.434-2.692,5.847-6.127,5.753
			C143.556,177.068,142.535,176.698,141.607,176.233z"/>
		<path style="fill:#1E252B;" d="M149.492,190.156l36.289-75.826c1.021-2.135,2.691-3.248,4.917-3.248
			c2.972,0,5.478,2.506,5.478,5.289c0,1.021-0.373,2.043-0.65,2.692l-36.29,75.825c-1.02,2.135-2.689,3.249-4.918,3.249
			c-2.971,0-5.476-2.505-5.476-5.29C148.843,191.825,149.215,190.805,149.492,190.156z"/>
		<path style="fill:#1E252B;" d="M203.866,129.829l31.276,14.85c3.527,1.671,5.661,4.269,5.661,7.889v0.929
			c0,3.62-2.134,6.218-5.661,7.888l-31.276,14.85c-1.114,0.557-2.135,0.928-3.434,0.928c-2.972,0.093-5.664-2.506-5.664-5.847
			c0-2.692,1.487-4.548,3.899-5.662l28.027-12.529l-28.027-12.529c-2.412-1.114-3.899-3.248-3.899-5.847
			c0-3.434,2.692-5.847,6.128-5.754C201.917,128.994,202.937,129.365,203.866,129.829z"/>
	</g>
	<circle style="fill:#5C6670;" cx="172.736" cy="298.733" r="14.766"/>
	<circle style="fill:#5C6670;" cx="193.245" cy="16.015" r="6.677"/>
	<path style="fill:#5C6670;" d="M152.641,11.08c-2.723,0-4.934,2.209-4.934,4.935c0,2.724,2.211,4.934,4.934,4.934h19.692
		c2.725,0,4.935-2.211,4.935-4.934c0-2.726-2.21-4.935-4.935-4.935H152.641z"/>
	<circle style="fill:#C3C6C8;" cx="79.682" cy="63.549" r="5.672"/>
	<circle style="fill:#C3C6C8;" cx="79.682" cy="87.675" r="5.672"/>
</g>
<g>
</g>
<g>
</g>
<g>
</g>
<g>
</g>
<g>
</g>
<g>
</g>
<g>
</g>
<g>
</g>
<g>
</g>
<g>
</g>
<g>
</g>
<g>
</g>
<g>
</g>
<g>
</g>
<g>
</g>
</svg>
