<svg xmlns="http://www.w3.org/2000/svg" viewBox="0 0 105 33"><path fill-rule="evenodd" clip-rule="evenodd" d="M24.0094 7.97168C24.8269 8.94361 25.5005 10.028 26.0094 11.1917C26.7507 12.8883 27.132 14.7202 27.1294 16.5717C27.1239 24.0451 21.0727 30.1051 13.5994 30.1217C11.8605 30.1207 10.1384 29.7811 8.52939 29.1217C7.38174 28.6657 6.30439 28.0496 5.32939 27.2917C1.18237 24.1312 -0.77959 18.8691 0.286103 13.7651C1.35179 8.66115 5.25548 4.62372 10.3207 3.38676C15.3858 2.14979 20.7111 3.93344 24.0094 7.97168ZM18.1094 6.76168C16.6936 6.10281 15.1509 5.76151 13.5894 5.76168L13.5994 5.74168C9.89642 5.73891 6.45021 7.63345 4.46836 10.7614C2.4865 13.8894 2.24534 17.8146 3.82939 21.1617C4.28108 20.6871 4.55943 20.0741 4.61939 19.4217C4.9831 16.9091 6.9568 14.9354 9.46939 14.5717C10.887 14.4431 12.0191 13.3361 12.1794 11.9217C12.5431 9.40909 14.5168 7.43539 17.0294 7.07168C17.4012 7.01503 17.7642 6.91084 18.1094 6.76168ZM5.31939 23.5717C5.35939 23.535 5.39939 23.4994 5.4394 23.4639L5.43946 23.4638C5.51943 23.3927 5.59941 23.3217 5.67939 23.2417C6.56904 22.3791 7.1401 21.2405 7.29939 20.0117C7.36397 19.3209 7.67239 18.6757 8.16939 18.1917C8.64763 17.6938 9.29136 17.388 9.97939 17.3317C12.492 16.968 14.4657 14.9943 14.8294 12.4817C14.8726 11.7592 15.1827 11.0785 15.6994 10.5717C16.1894 10.0835 16.8393 9.78878 17.5294 9.74168C18.6533 9.58704 19.7015 9.08739 20.5294 8.31168C21.472 9.09375 22.2707 10.0346 22.8894 11.0917C22.8514 11.143 22.8078 11.19 22.7594 11.2317C22.2821 11.7339 21.6392 12.0464 20.9494 12.1117C18.4337 12.4691 16.4568 14.446 16.0994 16.9617C15.9541 18.381 14.8293 19.5017 13.4094 19.6417C10.8898 20.0026 8.90579 21.9744 8.52939 24.4917C8.47557 24.9804 8.30773 25.4497 8.03939 25.8617C7.01338 25.2525 6.09447 24.4789 5.31939 23.5717ZM10.5894 27.0117C11.5648 27.2914 12.5747 27.4328 13.5894 27.4317V27.3817C16.9385 27.3687 20.0927 25.8055 22.1315 23.1484C24.1703 20.4914 24.8637 17.04 24.0094 13.8017C23.2502 14.3385 22.3714 14.6817 21.4494 14.8017C20.0334 14.9461 18.9139 16.0657 18.7694 17.4817C18.4046 19.9974 16.4259 21.972 13.9094 22.3317C12.4934 22.4761 11.3739 23.5957 11.2294 25.0117C11.14 25.7118 10.923 26.3897 10.5894 27.0117Z"></path><path d="M35.144 8.622H38.444L43.174 18.918L47.926 8.622H51.204V24H48.014V15.266L43.944 24H42.404L38.356 15.266V24H35.144V8.622ZM59.4311 24.33C58.1551 24.33 57.0331 24.1027 56.0651 23.648C55.1118 23.1787 54.3711 22.526 53.8431 21.69C53.3298 20.8393 53.0731 19.8493 53.0731 18.72C53.0731 17.62 53.3298 16.6447 53.8431 15.794C54.3711 14.9433 55.1118 14.2833 56.0651 13.814C57.0331 13.3447 58.1551 13.11 59.4311 13.11C60.6925 13.11 61.7998 13.3447 62.7531 13.814C63.7211 14.2833 64.4618 14.9433 64.9751 15.794C65.5031 16.6447 65.7671 17.62 65.7671 18.72C65.7671 19.8493 65.5031 20.8393 64.9751 21.69C64.4618 22.526 63.7285 23.1787 62.7751 23.648C61.8218 24.1027 60.7071 24.33 59.4311 24.33ZM59.4311 21.734C60.3258 21.734 61.0371 21.4627 61.5651 20.92C62.0931 20.3627 62.3571 19.6293 62.3571 18.72C62.3571 17.7813 62.0931 17.048 61.5651 16.52C61.0518 15.9773 60.3405 15.706 59.4311 15.706C58.5218 15.706 57.8031 15.9773 57.2751 16.52C56.7471 17.048 56.4831 17.7813 56.4831 18.72C56.4831 19.6293 56.7471 20.3627 57.2751 20.92C57.8178 21.4627 58.5365 21.734 59.4311 21.734ZM72.4541 24.33C71.3688 24.33 70.4008 24.1027 69.5501 23.648C68.7141 23.1787 68.0541 22.526 67.5701 21.69C67.1008 20.8393 66.8661 19.8567 66.8661 18.742C66.8661 17.642 67.1008 16.6667 67.5701 15.816C68.0394 14.9653 68.6994 14.3053 69.5501 13.836C70.4008 13.352 71.3688 13.11 72.4541 13.11C73.2461 13.11 73.9721 13.22 74.6321 13.44C75.2921 13.66 75.8494 13.9753 76.3041 14.386V7.742H79.6261V24H76.4141V22.856C75.8714 23.3693 75.2774 23.7433 74.6321 23.978C74.0014 24.2127 73.2754 24.33 72.4541 24.33ZM73.3121 21.756C74.0014 21.756 74.6101 21.5727 75.1381 21.206C75.6808 20.8393 76.0694 20.348 76.3041 19.732V17.73C76.0988 17.1287 75.7174 16.6447 75.1601 16.278C74.6174 15.8967 74.0014 15.706 73.3121 15.706C72.4174 15.706 71.6841 15.9847 71.1121 16.542C70.5548 17.0993 70.2761 17.8327 70.2761 18.742C70.2761 19.6513 70.5548 20.3847 71.1121 20.942C71.6841 21.4847 72.4174 21.756 73.3121 21.756ZM85.5527 24.33C84.262 24.33 83.206 24.0073 82.3847 23.362C81.578 22.702 81.1747 21.8073 81.1747 20.678C81.1747 19.5047 81.5634 18.5953 82.3407 17.95C83.118 17.29 84.218 16.96 85.6407 16.96C86.2714 16.96 86.8727 17.026 87.4447 17.158C88.0167 17.29 88.5227 17.4733 88.9627 17.708V17.444C88.9627 16.784 88.728 16.3 88.2587 15.992C87.7894 15.684 87.0707 15.53 86.1027 15.53C84.812 15.53 83.624 15.772 82.5387 16.256V13.836C83.008 13.6307 83.6167 13.462 84.3647 13.33C85.1127 13.1833 85.8607 13.11 86.6087 13.11C88.5154 13.11 89.938 13.506 90.8767 14.298C91.8154 15.0753 92.2847 16.168 92.2847 17.576V24H89.1607V23.032C88.266 23.8973 87.0634 24.33 85.5527 24.33ZM86.4547 22.13C86.9974 22.13 87.4887 22.0273 87.9287 21.822C88.3687 21.6167 88.7134 21.3307 88.9627 20.964V19.908C88.2147 19.4093 87.3934 19.16 86.4987 19.16C85.8827 19.16 85.406 19.292 85.0687 19.556C84.746 19.8053 84.5847 20.1793 84.5847 20.678C84.5847 21.1473 84.746 21.5067 85.0687 21.756C85.3914 22.0053 85.8534 22.13 86.4547 22.13ZM94.4838 7.742H97.8058V24H94.4838V7.742ZM101.939 11.812C101.425 11.812 100.993 11.6433 100.641 11.306C100.289 10.9687 100.113 10.5433 100.113 10.03C100.113 9.53133 100.289 9.11333 100.641 8.776C100.993 8.424 101.425 8.248 101.939 8.248C102.452 8.248 102.885 8.424 103.237 8.776C103.589 9.11333 103.765 9.53133 103.765 10.03C103.765 10.5433 103.589 10.9687 103.237 11.306C102.885 11.6433 102.452 11.812 101.939 11.812ZM100.267 13.44H103.611V24H100.267V13.44Z"></path></svg>