<svg xmlns="http://www.w3.org/2000/svg" viewBox="0 0 502 145"><path fill-rule="evenodd" clip-rule="evenodd" d="M92.1617 89.3368L63.2918 106.005L63.2918 144.862L63.2935 144.863L125.817 108.765L125.817 36.5686L63.2935 0.470331L0.769534 36.5686L0.769541 108.765L34.4219 128.194L34.4219 56.0007L63.2918 39.3326L92.1617 56.0007L92.1617 89.3368Z"></path><mask id="mask0" maskUnits="userSpaceOnUse" x="0" y="0" width="126" height="145"><path fill-rule="evenodd" clip-rule="evenodd" d="M92.1617 89.3368L63.2918 106.005L63.2918 144.862L63.2935 144.863L125.817 108.765L125.817 36.5686L63.2935 0.470331L0.769534 36.5686L0.769541 108.765L34.4219 128.194L34.4219 56.0007L63.2918 39.3326L92.1617 56.0007L92.1617 89.3368Z"></path></mask><path d="M162.698 89.3125H179.201C190.024 89.3125 196.773 84.502 196.773 74.8141C196.773 69.469 194.234 65.7275 189.757 63.6563C193.231 61.5851 195.035 58.3113 195.035 54.2357C195.035 45.3495 188.755 40.539 177.931 40.539H162.698V89.3125ZM178.733 68.6005C185.548 68.6005 187.419 70.6717 187.419 74.6136C187.419 78.5556 184.613 80.7604 179.201 80.7604H171.985V68.6005H178.733ZM177.998 49.0911C183.477 49.0911 185.682 50.6946 185.682 54.2357C185.682 57.6431 183.677 59.9148 177.931 59.9148H171.985V49.0911H177.998ZM201.136 89.3125H210.423V40.539H201.136V89.3125ZM216.07 89.3125H225.357V55.4383L246.737 89.3125H256.626V40.539H247.339V73.3442L226.626 40.539H216.07V89.3125ZM261.939 89.3125H275.635C290.535 89.3125 301.024 78.8229 301.024 64.9257C301.024 51.0955 291.737 40.539 275.235 40.539H261.939V89.3125ZM274.166 49.1579C286.125 49.1579 291.737 55.7056 291.737 64.9257C291.737 73.8787 285.123 80.6936 274.566 80.6936H271.226V49.1579H274.166ZM329.239 89.9806C343.136 89.9806 354.227 78.8229 354.227 64.9257C354.227 51.0955 343.136 39.8709 329.239 39.8709C315.409 39.8709 304.318 51.0955 304.318 64.9257C304.318 78.8229 315.409 89.9806 329.239 89.9806ZM329.239 80.8272C320.487 80.8272 313.538 73.6783 313.538 64.9257C313.538 56.1732 320.487 49.0242 329.239 49.0242C337.992 49.0242 345.007 56.1732 345.007 64.9257C345.007 73.6783 337.992 80.8272 329.239 80.8272ZM374.62 89.3125H383.907V75.4154H391.324C401.479 75.4154 408.962 67.6651 408.962 57.9772C408.962 48.2893 401.479 40.539 391.391 40.539H374.62V89.3125ZM390.722 49.1579C396.001 49.1579 399.609 53.0998 399.609 57.9772C399.609 62.8545 396.001 66.7965 390.722 66.7965H383.907V49.1579H390.722ZM437.549 89.9806C451.447 89.9806 462.538 78.8229 462.538 64.9257C462.538 51.0955 451.447 39.8709 437.549 39.8709C423.719 39.8709 412.628 51.0955 412.628 64.9257C412.628 78.8229 423.719 89.9806 437.549 89.9806ZM437.549 80.8272C428.797 80.8272 421.848 73.6783 421.848 64.9257C421.848 56.1732 428.797 49.0242 437.549 49.0242C446.302 49.0242 453.317 56.1732 453.317 64.9257C453.317 73.6783 446.302 80.8272 437.549 80.8272ZM482.797 89.9806C493.554 89.9806 499.701 82.4976 499.701 74.7473C499.701 65.3934 492.218 62.4537 485.603 60.3156C480.392 58.5785 475.715 57.3091 475.715 53.5675C475.715 50.4941 478.053 48.1557 482.396 48.1557C486.204 48.1557 489.077 49.7592 491.082 52.7658L498.765 46.953C494.823 42.8774 490.28 39.8709 482.329 39.8709C472.909 39.8709 466.094 46.0845 466.094 53.9016C466.094 63.2554 473.376 65.7943 479.924 67.7987C485.135 69.4022 490.013 70.6717 490.013 74.6804C490.013 78.0211 487.474 81.0945 482.73 81.0945C478.387 81.0945 474.579 78.6892 472.174 74.5468L463.688 81.2281C468.098 86.2391 473.978 89.9806 482.797 89.9806Z"></path></svg>