<svg xmlns="http://www.w3.org/2000/svg" viewBox="0 0 137 30"><path fill-rule="evenodd" clip-rule="evenodd" d="M29.6888 9.88087C29.689 5.80726 27.189 2.15113 23.3929 0.673391C19.5968 -0.804353 15.2828 0.199264 12.5288 3.20087H0.0488281V29.5409H26.3988V17.2309C28.4905 15.36 29.6869 12.6872 29.6888 9.88087ZM24.6188 9.88087C24.6229 11.8313 23.4511 13.5919 21.6503 14.3411C19.8495 15.0903 17.7747 14.6804 16.3941 13.3027C15.0135 11.9249 14.5993 9.85099 15.3448 8.04865C16.0902 6.24631 17.8484 5.07087 19.7988 5.07087C22.4569 5.07086 24.6133 7.22276 24.6188 9.88087ZM5.11883 24.4709H21.3288V19.6409C20.8231 19.7247 20.3115 19.7682 19.7988 19.7709C14.339 19.7654 9.91434 15.3407 9.90883 9.88087C9.91322 9.34093 9.9634 8.80233 10.0588 8.27087H5.11883V24.4709Z"></path><path d="M54.126 23.9502H50.9033V17.2471H44.6191V23.9502H41.3965V8.30957H44.6191V14.6475H50.9033V8.30957H54.126V23.9502ZM56.2637 18.0312C56.2637 16.8783 56.4857 15.8506 56.9297 14.9482C57.3737 14.0459 58.0111 13.3477 58.8418 12.8535C59.6797 12.3594 60.6501 12.1123 61.7529 12.1123C63.3213 12.1123 64.5996 12.5921 65.5879 13.5518C66.5833 14.5114 67.1383 15.8148 67.2529 17.4619L67.2744 18.2568C67.2744 20.04 66.7767 21.4723 65.7812 22.5537C64.7858 23.6279 63.4502 24.165 61.7744 24.165C60.0986 24.165 58.7594 23.6279 57.7568 22.5537C56.7614 21.4795 56.2637 20.0186 56.2637 18.1709V18.0312ZM59.3682 18.2568C59.3682 19.3597 59.5758 20.2048 59.9912 20.792C60.4066 21.3721 61.001 21.6621 61.7744 21.6621C62.5264 21.6621 63.1136 21.3757 63.5361 20.8027C63.9587 20.2227 64.1699 19.2988 64.1699 18.0312C64.1699 16.9499 63.9587 16.112 63.5361 15.5176C63.1136 14.9232 62.5192 14.626 61.7529 14.626C60.9938 14.626 60.4066 14.9232 59.9912 15.5176C59.5758 16.1048 59.3682 17.0179 59.3682 18.2568ZM72.4629 23.9502H69.3477V7.4502H72.4629V23.9502ZM74.5469 18.0527C74.5469 16.2409 74.9515 14.7979 75.7607 13.7236C76.5771 12.6494 77.6908 12.1123 79.1016 12.1123C80.2331 12.1123 81.1676 12.5348 81.9053 13.3799V7.4502H85.0205V23.9502H82.2168L82.0664 22.7148C81.293 23.6816 80.2975 24.165 79.0801 24.165C77.7122 24.165 76.613 23.6279 75.7822 22.5537C74.9587 21.4723 74.5469 19.972 74.5469 18.0527ZM77.6514 18.2783C77.6514 19.3669 77.8411 20.2012 78.2207 20.7812C78.6003 21.3613 79.1517 21.6514 79.875 21.6514C80.8346 21.6514 81.5114 21.2467 81.9053 20.4375V15.8506C81.5186 15.0413 80.849 14.6367 79.8965 14.6367C78.3997 14.6367 77.6514 15.8506 77.6514 18.2783ZM90.3379 12.3271L90.4346 13.627C91.2581 12.6172 92.3717 12.1123 93.7754 12.1123C95.2721 12.1123 96.2998 12.7031 96.8584 13.8848C97.6748 12.7031 98.8385 12.1123 100.35 12.1123C101.61 12.1123 102.548 12.4811 103.164 13.2188C103.78 13.9492 104.088 15.0521 104.088 16.5273V23.9502H100.973V16.5381C100.973 15.8792 100.844 15.3994 100.586 15.0986C100.328 14.7907 99.8734 14.6367 99.2217 14.6367C98.2907 14.6367 97.6462 15.0807 97.2881 15.9688L97.2988 23.9502H94.1943V16.5488C94.1943 15.8757 94.0618 15.3887 93.7969 15.0879C93.5319 14.7871 93.0807 14.6367 92.4434 14.6367C91.5625 14.6367 90.9251 15.002 90.5312 15.7324V23.9502H87.4268V12.3271H90.3379ZM113.219 23.9502C113.076 23.6709 112.972 23.3236 112.907 22.9082C112.155 23.7461 111.178 24.165 109.975 24.165C108.836 24.165 107.891 23.8356 107.139 23.1768C106.394 22.5179 106.021 21.6872 106.021 20.6846C106.021 19.4528 106.476 18.5075 107.386 17.8486C108.302 17.1898 109.624 16.8568 111.35 16.8496H112.778V16.1836C112.778 15.6465 112.639 15.2168 112.359 14.8945C112.087 14.5723 111.654 14.4111 111.06 14.4111C110.537 14.4111 110.125 14.5365 109.824 14.7871C109.531 15.0378 109.384 15.3815 109.384 15.8184H106.279C106.279 15.1452 106.487 14.5221 106.902 13.9492C107.318 13.3763 107.905 12.9287 108.664 12.6064C109.423 12.277 110.275 12.1123 111.221 12.1123C112.653 12.1123 113.788 12.474 114.626 13.1973C115.471 13.9134 115.894 14.9232 115.894 16.2266V21.2646C115.901 22.3675 116.055 23.2018 116.355 23.7676V23.9502H113.219ZM110.651 21.791C111.11 21.791 111.532 21.6908 111.919 21.4902C112.306 21.2826 112.592 21.0068 112.778 20.6631V18.665H111.618C110.064 18.665 109.237 19.2021 109.137 20.2764L109.126 20.459C109.126 20.8457 109.262 21.1644 109.534 21.415C109.806 21.6657 110.179 21.791 110.651 21.791ZM121.995 9.46973V12.3271H123.982V14.6045H121.995V20.4053C121.995 20.835 122.077 21.1429 122.242 21.3291C122.407 21.5153 122.722 21.6084 123.188 21.6084C123.531 21.6084 123.836 21.5833 124.101 21.5332V23.8857C123.492 24.0719 122.865 24.165 122.221 24.165C120.044 24.165 118.934 23.0658 118.891 20.8672V14.6045H117.193V12.3271H118.891V9.46973H121.995ZM131.062 24.165C129.357 24.165 127.968 23.6423 126.894 22.5967C125.826 21.5511 125.293 20.1582 125.293 18.418V18.1172C125.293 16.9499 125.519 15.9079 125.97 14.9912C126.421 14.0674 127.058 13.3584 127.882 12.8643C128.713 12.363 129.658 12.1123 130.718 12.1123C132.308 12.1123 133.557 12.6136 134.467 13.6162C135.383 14.6188 135.842 16.0404 135.842 17.8809V19.1484H128.44C128.541 19.9076 128.841 20.5163 129.343 20.9746C129.851 21.4329 130.492 21.6621 131.266 21.6621C132.462 21.6621 133.396 21.2288 134.069 20.3623L135.595 22.0703C135.129 22.7292 134.499 23.2448 133.704 23.6172C132.909 23.9824 132.028 24.165 131.062 24.165ZM130.707 14.626C130.091 14.626 129.59 14.8337 129.203 15.249C128.824 15.6644 128.58 16.2588 128.473 17.0322H132.791V16.7852C132.777 16.0977 132.59 15.5677 132.232 15.1953C131.874 14.8158 131.366 14.626 130.707 14.626Z"></path></svg>