<svg xmlns="http://www.w3.org/2000/svg" viewBox="0 0 109 44"><path d="M34.2693 20.98C40.0628 20.98 44.7593 16.2835 44.7593 10.49C44.7593 4.69653 40.0628 0 34.2693 0C28.4758 0 23.7793 4.69653 23.7793 10.49C23.7793 16.2835 28.4758 20.98 34.2693 20.98Z"></path><path d="M57.7185 20.98C63.512 20.98 68.2085 16.2835 68.2085 10.49C68.2085 4.69653 63.512 0 57.7185 0C51.925 0 47.2285 4.69653 47.2285 10.49C47.2285 16.2835 51.925 20.98 57.7185 20.98Z"></path><rect x="0.338867" width="20.97" height="20.97"></rect><path d="M6.2 40.6C5.56 40.6 4.91333 40.54 4.26 40.42C3.62 40.3 3.08 40.14 2.64 39.94V37.72C3.66667 38.1733 4.85333 38.4 6.2 38.4C7.28 38.4 8.05333 38.18 8.52 37.74C8.98667 37.3 9.22 36.64 9.22 35.76V35.16C8.80667 35.5333 8.3 35.8133 7.7 36C7.1 36.2 6.46 36.3 5.78 36.3C4.79333 36.3 3.90667 36.0867 3.12 35.66C2.34667 35.22 1.74 34.6133 1.3 33.84C0.86 33.0667 0.64 32.1867 0.64 31.2C0.64 30.1867 0.853333 29.2933 1.28 28.52C1.72 27.7467 2.32 27.1533 3.08 26.74C3.85333 26.3133 4.73333 26.1 5.72 26.1C6.46667 26.1 7.12667 26.2067 7.7 26.42C8.27333 26.6333 8.81333 26.9733 9.32 27.44V26.4H12.24V35.38C12.24 37.0467 11.7467 38.3333 10.76 39.24C9.77333 40.1467 8.25333 40.6 6.2 40.6ZM6.5 33.96C7.12667 33.96 7.68667 33.7933 8.18 33.46C8.68667 33.1133 9.03333 32.66 9.22 32.1V30.3C9.00667 29.74 8.65333 29.2933 8.16 28.96C7.68 28.6267 7.12667 28.46 6.5 28.46C5.68667 28.46 5.02 28.7067 4.5 29.2C3.99333 29.6933 3.74 30.3533 3.74 31.18C3.74 32.02 3.99333 32.6933 4.5 33.2C5.02 33.7067 5.68667 33.96 6.5 33.96ZM14.3408 26.4H17.2608V27.78C17.6474 27.3133 18.1874 26.96 18.8808 26.72C19.5741 26.4667 20.3608 26.34 21.2408 26.34V28.64C20.3208 28.64 19.5074 28.78 18.8008 29.06C18.1074 29.34 17.6274 29.7667 17.3608 30.34V36H14.3408V26.4ZM28.0444 36.3C26.2044 36.3 24.7577 35.86 23.7044 34.98C22.651 34.0867 22.1244 32.84 22.1244 31.24C22.1244 29.6533 22.591 28.4 23.5244 27.48C24.471 26.56 25.8177 26.1 27.5644 26.1C28.711 26.1 29.6844 26.3133 30.4844 26.74C31.2844 27.1667 31.891 27.76 32.3044 28.52C32.7177 29.2667 32.9244 30.1133 32.9244 31.06V32.28H25.0044C25.2177 33.5067 26.3644 34.12 28.4444 34.12C29.0577 34.12 29.691 34.0667 30.3444 33.96C30.9977 33.8533 31.5644 33.7067 32.0444 33.52V35.64C31.5777 35.84 30.9777 36 30.2444 36.12C29.511 36.24 28.7777 36.3 28.0444 36.3ZM30.0644 30.32C30.0244 29.68 29.7844 29.1867 29.3444 28.84C28.9044 28.48 28.2977 28.3 27.5244 28.3C26.7644 28.3 26.1644 28.48 25.7244 28.84C25.2844 29.2 25.0444 29.6933 25.0044 30.32H30.0644ZM40.1147 36.3C38.2747 36.3 36.828 35.86 35.7747 34.98C34.7214 34.0867 34.1947 32.84 34.1947 31.24C34.1947 29.6533 34.6614 28.4 35.5947 27.48C36.5414 26.56 37.888 26.1 39.6347 26.1C40.7814 26.1 41.7547 26.3133 42.5547 26.74C43.3547 27.1667 43.9614 27.76 44.3747 28.52C44.788 29.2667 44.9947 30.1133 44.9947 31.06V32.28H37.0747C37.288 33.5067 38.4347 34.12 40.5147 34.12C41.128 34.12 41.7614 34.0667 42.4147 33.96C43.068 33.8533 43.6347 33.7067 44.1147 33.52V35.64C43.648 35.84 43.048 36 42.3147 36.12C41.5814 36.24 40.848 36.3 40.1147 36.3ZM42.1347 30.32C42.0947 29.68 41.8547 29.1867 41.4147 28.84C40.9747 28.48 40.368 28.3 39.5947 28.3C38.8347 28.3 38.2347 28.48 37.7947 28.84C37.3547 29.2 37.1147 29.6933 37.0747 30.32H42.1347ZM46.665 26.4H49.585V27.58C50.025 27.0867 50.545 26.72 51.145 26.48C51.7583 26.2267 52.3983 26.1 53.065 26.1C54.3717 26.1 55.345 26.4533 55.985 27.16C56.6383 27.8533 56.965 28.7933 56.965 29.98V36H53.945V30.32C53.945 29.08 53.3717 28.46 52.225 28.46C51.7183 28.46 51.245 28.5867 50.805 28.84C50.365 29.08 49.9917 29.44 49.685 29.92V36H46.665V26.4ZM62.9097 36.3C62.1897 36.3 61.4164 36.22 60.5897 36.06C59.7764 35.9133 59.1364 35.7 58.6697 35.42V33.06C59.203 33.38 59.843 33.64 60.5897 33.84C61.3364 34.04 62.0297 34.14 62.6697 34.14C63.2164 34.14 63.6164 34.0933 63.8697 34C64.123 33.9067 64.2497 33.7333 64.2497 33.48C64.2497 33.28 64.1764 33.12 64.0297 33C63.883 32.8667 63.6564 32.7533 63.3497 32.66C63.0564 32.5533 62.563 32.4 61.8697 32.2C61.0564 31.96 60.4164 31.72 59.9497 31.48C59.4964 31.2267 59.1497 30.9133 58.9097 30.54C58.683 30.1667 58.5697 29.6867 58.5697 29.1C58.5697 28.1 58.963 27.3533 59.7497 26.86C60.5497 26.3533 61.6297 26.1 62.9897 26.1C63.6564 26.1 64.343 26.1733 65.0497 26.32C65.7697 26.4533 66.323 26.6333 66.7097 26.86V29.16C66.323 28.9067 65.8164 28.7 65.1897 28.54C64.5764 28.38 63.9764 28.3 63.3897 28.3C62.843 28.3 62.4164 28.3533 62.1097 28.46C61.8164 28.5667 61.6697 28.7667 61.6697 29.06C61.6697 29.3133 61.8097 29.5067 62.0897 29.64C62.383 29.7733 62.923 29.94 63.7097 30.14L64.1097 30.24C64.9497 30.4667 65.603 30.72 66.0697 31C66.5364 31.2667 66.863 31.5933 67.0497 31.98C67.2497 32.3533 67.3497 32.8267 67.3497 33.4C67.3497 34.28 66.9697 34.9867 66.2097 35.52C65.4497 36.04 64.3497 36.3 62.9097 36.3ZM69.0478 26.4H71.9678V27.46C72.9411 26.5533 74.1411 26.1 75.5678 26.1C76.5678 26.1 77.4478 26.3133 78.2078 26.74C78.9811 27.1533 79.5811 27.7467 80.0078 28.52C80.4345 29.28 80.6478 30.1667 80.6478 31.18C80.6478 32.18 80.4345 33.0667 80.0078 33.84C79.5811 34.6133 78.9811 35.22 78.2078 35.66C77.4478 36.0867 76.5678 36.3 75.5678 36.3C74.8878 36.3 74.2411 36.2 73.6278 36C73.0145 35.8 72.4945 35.5133 72.0678 35.14V40.38H69.0478V26.4ZM74.8078 33.94C75.6211 33.94 76.2811 33.6867 76.7878 33.18C77.3078 32.6733 77.5678 32.0067 77.5678 31.18C77.5678 30.3533 77.3078 29.6933 76.7878 29.2C76.2811 28.7067 75.6211 28.46 74.8078 28.46C74.1811 28.46 73.6211 28.6267 73.1278 28.96C72.6345 29.2933 72.2811 29.7333 72.0678 30.28V32.1C72.2678 32.66 72.6145 33.1067 73.1078 33.44C73.6145 33.7733 74.1811 33.94 74.8078 33.94ZM85.9286 36.3C84.7553 36.3 83.7953 36.0067 83.0486 35.42C82.3153 34.82 81.9486 34.0067 81.9486 32.98C81.9486 31.9133 82.3019 31.0867 83.0086 30.5C83.7153 29.9 84.7153 29.6 86.0086 29.6C86.5819 29.6 87.1286 29.66 87.6486 29.78C88.1686 29.9 88.6286 30.0667 89.0286 30.28V30.04C89.0286 29.44 88.8153 29 88.3886 28.72C87.9619 28.44 87.3086 28.3 86.4286 28.3C85.2553 28.3 84.1753 28.52 83.1886 28.96V26.76C83.6153 26.5733 84.1686 26.42 84.8486 26.3C85.5286 26.1667 86.2086 26.1 86.8886 26.1C88.6219 26.1 89.9153 26.46 90.7686 27.18C91.6219 27.8867 92.0486 28.88 92.0486 30.16V36H89.2086V35.12C88.3953 35.9067 87.3019 36.3 85.9286 36.3ZM86.7486 34.3C87.2419 34.3 87.6886 34.2067 88.0886 34.02C88.4886 33.8333 88.8019 33.5733 89.0286 33.24V32.28C88.3486 31.8267 87.6019 31.6 86.7886 31.6C86.2286 31.6 85.7953 31.72 85.4886 31.96C85.1953 32.1867 85.0486 32.5267 85.0486 32.98C85.0486 33.4067 85.1953 33.7333 85.4886 33.96C85.7819 34.1867 86.2019 34.3 86.7486 34.3ZM94.0478 26.4H96.9678V27.78C97.3545 27.3133 97.8945 26.96 98.5878 26.72C99.2811 26.4667 100.068 26.34 100.948 26.34V28.64C100.028 28.64 99.2145 28.78 98.5078 29.06C97.8145 29.34 97.3345 29.7667 97.0678 30.34V36H94.0478V26.4ZM106.251 36.3C105.131 36.3 104.278 35.9933 103.691 35.38C103.118 34.7533 102.831 33.8867 102.831 32.78V28.58H101.431V26.4H102.831V23.52H105.851V26.4H108.111V28.58H105.851V32.38C105.851 32.94 105.958 33.3467 106.171 33.6C106.385 33.84 106.765 33.96 107.311 33.96C107.751 33.96 108.171 33.8533 108.571 33.64V35.9C107.958 36.1667 107.185 36.3 106.251 36.3Z"></path></svg>