<svg xmlns="http://www.w3.org/2000/svg" viewBox="0 0 118 30"><path fill-rule="evenodd" clip-rule="evenodd" d="M0.989102 13.3847C2.50718 7.28306 7.98643 3 14.2741 3C20.5618 3 26.041 7.28306 27.5591 13.3847H26.3591C24.3348 13.3549 22.352 13.9599 20.6891 15.1147C20.5931 15.1842 20.4929 15.2477 20.3891 15.3047H20.2491C20.1453 15.2477 20.0451 15.1842 19.9491 15.1147C16.5176 12.8072 12.0306 12.8072 8.5991 15.1147C8.50313 15.1842 8.40294 15.2477 8.2991 15.3047H8.1591C8.05526 15.2477 7.95507 15.1842 7.8591 15.1147C6.19623 13.9599 4.21342 13.3549 2.1891 13.3847H0.989102ZM24.1991 19.6547C24.8151 19.175 25.5786 18.924 26.3591 18.9447H27.9691V15.7347H26.3591C24.9843 15.7181 23.641 16.146 22.5291 16.9547C21.2448 17.9016 19.4934 17.9016 18.2091 16.9547C15.8741 15.3293 12.7741 15.3293 10.4391 16.9547C9.15475 17.9016 7.40345 17.9016 6.1191 16.9547C4.9935 16.1357 3.6309 15.7072 2.2391 15.7347H0.579102V18.9447H2.1891C2.96961 18.924 3.73309 19.175 4.3491 19.6547C6.68004 21.2813 9.77816 21.2813 12.1091 19.6547C12.7259 19.1765 13.4888 18.9257 14.2691 18.9447C15.0499 18.9223 15.8139 19.1735 16.4291 19.6547C18.7641 21.2801 21.8641 21.2801 24.1991 19.6547ZM26.3591 24.6847C25.5786 24.664 24.8151 24.915 24.1991 25.3947C21.8641 27.0201 18.7641 27.0201 16.4291 25.3947C15.8139 24.9135 15.0499 24.6623 14.2691 24.6847C13.4888 24.6657 12.7259 24.9165 12.1091 25.3947C9.77816 27.0213 6.68004 27.0213 4.3491 25.3947C3.73309 24.915 2.96961 24.664 2.1891 24.6847H0.579102V21.4747H2.2391C3.6309 21.4472 4.9935 21.8757 6.1191 22.6947C7.40345 23.6416 9.15475 23.6416 10.4391 22.6947C12.7741 21.0693 15.8741 21.0693 18.2091 22.6947C19.4934 23.6416 21.2448 23.6416 22.5291 22.6947C23.641 21.886 24.9843 21.4581 26.3591 21.4747H27.9691V24.6847H26.3591Z"></path><path d="M38.64 8.02H41.84L44.34 17.06L46.8 8.02H49.14L51.52 17.06L54.02 8.02H57.2L53.28 22H50.42L47.92 13.14L45.44 22H42.56L38.64 8.02ZM61.6295 22.3C60.3229 22.3 59.3429 21.9467 58.6895 21.24C58.0362 20.52 57.7095 19.5667 57.7095 18.38V12.4H60.7295V18.06C60.7295 19.3133 61.3095 19.94 62.4695 19.94C62.9762 19.94 63.4495 19.82 63.8895 19.58C64.3295 19.34 64.6962 18.98 64.9895 18.5V12.4H68.0095V22H65.0895V20.84C64.6629 21.3333 64.1429 21.7 63.5295 21.94C62.9295 22.18 62.2962 22.3 61.6295 22.3ZM74.1342 22.3C73.0142 22.3 72.1609 21.9933 71.5742 21.38C71.0009 20.7533 70.7142 19.8867 70.7142 18.78V14.58H69.3142V12.4H70.7142V9.52H73.7342V12.4H75.9942V14.58H73.7342V18.38C73.7342 18.94 73.8409 19.3467 74.0542 19.6C74.2676 19.84 74.6476 19.96 75.1942 19.96C75.6342 19.96 76.0542 19.8533 76.4542 19.64V21.9C75.8409 22.1667 75.0676 22.3 74.1342 22.3ZM83.0309 22.3C81.2976 22.3 79.9176 21.86 78.8909 20.98C77.8643 20.0867 77.3509 18.8333 77.3509 17.22C77.3509 15.6067 77.8643 14.3533 78.8909 13.46C79.9309 12.5533 81.3176 12.1 83.0509 12.1C84.6243 12.1 85.8776 12.3933 86.8109 12.98V15.36C86.3843 15.0533 85.8843 14.8267 85.3109 14.68C84.7509 14.5333 84.1576 14.46 83.5309 14.46C82.5976 14.46 81.8509 14.6867 81.2909 15.14C80.7309 15.5933 80.4509 16.2867 80.4509 17.22C80.4509 18.1533 80.7243 18.8467 81.2709 19.3C81.8309 19.74 82.5776 19.96 83.5109 19.96C84.8043 19.96 85.9443 19.6467 86.9309 19.02V21.38C85.9443 21.9933 84.6443 22.3 83.0309 22.3ZM93.6973 22.3C92.5373 22.3 91.5173 22.0933 90.6373 21.68C89.7707 21.2533 89.0973 20.66 88.6173 19.9C88.1507 19.1267 87.9173 18.2267 87.9173 17.2C87.9173 16.2 88.1507 15.3133 88.6173 14.54C89.0973 13.7667 89.7707 13.1667 90.6373 12.74C91.5173 12.3133 92.5373 12.1 93.6973 12.1C94.844 12.1 95.8507 12.3133 96.7173 12.74C97.5973 13.1667 98.2707 13.7667 98.7373 14.54C99.2173 15.3133 99.4573 16.2 99.4573 17.2C99.4573 18.2267 99.2173 19.1267 98.7373 19.9C98.2707 20.66 97.604 21.2533 96.7373 21.68C95.8707 22.0933 94.8573 22.3 93.6973 22.3ZM93.6973 19.94C94.5107 19.94 95.1573 19.6933 95.6373 19.2C96.1173 18.6933 96.3573 18.0267 96.3573 17.2C96.3573 16.3467 96.1173 15.68 95.6373 15.2C95.1707 14.7067 94.524 14.46 93.6973 14.46C92.8707 14.46 92.2173 14.7067 91.7373 15.2C91.2573 15.68 91.0173 16.3467 91.0173 17.2C91.0173 18.0267 91.2573 18.6933 91.7373 19.2C92.2307 19.6933 92.884 19.94 93.6973 19.94ZM106.022 22.3C104.862 22.3 103.842 22.0933 102.962 21.68C102.095 21.2533 101.422 20.66 100.942 19.9C100.475 19.1267 100.242 18.2267 100.242 17.2C100.242 16.2 100.475 15.3133 100.942 14.54C101.422 13.7667 102.095 13.1667 102.962 12.74C103.842 12.3133 104.862 12.1 106.022 12.1C107.168 12.1 108.175 12.3133 109.042 12.74C109.922 13.1667 110.595 13.7667 111.062 14.54C111.542 15.3133 111.782 16.2 111.782 17.2C111.782 18.2267 111.542 19.1267 111.062 19.9C110.595 20.66 109.928 21.2533 109.062 21.68C108.195 22.0933 107.182 22.3 106.022 22.3ZM106.022 19.94C106.835 19.94 107.482 19.6933 107.962 19.2C108.442 18.6933 108.682 18.0267 108.682 17.2C108.682 16.3467 108.442 15.68 107.962 15.2C107.495 14.7067 106.848 14.46 106.022 14.46C105.195 14.46 104.542 14.7067 104.062 15.2C103.582 15.68 103.342 16.3467 103.342 17.2C103.342 18.0267 103.582 18.6933 104.062 19.2C104.555 19.6933 105.208 19.94 106.022 19.94ZM113.474 7.22H116.494V22H113.474V7.22Z"></path></svg>