<svg xmlns="http://www.w3.org/2000/svg" viewBox="0 0 116 30"><path fill-rule="evenodd" clip-rule="evenodd" d="M2.83926 1.93V22.24C2.83926 22.4893 2.74022 22.7284 2.56394 22.9047C2.38765 23.081 2.14856 23.18 1.89926 23.18H1.67926C1.16011 23.18 0.739258 22.7591 0.739258 22.24V1.93C0.744739 1.41476 1.16399 0.999971 1.67926 1H1.89926C2.41453 0.999971 2.83378 1.41476 2.83926 1.93ZM14.3696 14.8046C14.5681 14.6156 14.8355 14.5163 15.1093 14.53L15.0593 14.55C15.3503 14.5203 15.6397 14.6195 15.8513 14.8215C16.0628 15.0234 16.1754 15.3079 16.1593 15.6V21.1C16.1593 21.6799 15.6892 22.15 15.1093 22.15C14.5294 22.15 14.0593 21.6799 14.0593 21.1V15.53C14.0589 15.2559 14.1711 14.9937 14.3696 14.8046ZM17.3693 17.7C17.3693 17.1477 17.817 16.7 18.3693 16.7C18.6586 16.6734 18.9452 16.774 19.1545 16.9756C19.3638 17.1772 19.475 17.4599 19.4593 17.75V18.96C19.4593 19.5371 18.9914 20.005 18.4143 20.005C17.8371 20.005 17.3693 19.5371 17.3693 18.96V17.7ZM9.46926 26.02V18.79C9.15655 19.0277 8.7719 19.1512 8.37926 19.14C8.01909 19.1311 7.67022 19.0125 7.37926 18.8V26.02C7.37926 26.5971 7.84712 27.065 8.42426 27.065C9.0014 27.065 9.46926 26.5971 9.46926 26.02ZM5.10926 21.53C4.74942 21.5192 4.40109 21.4008 4.10926 21.19V28.44C4.10926 29.0199 4.57936 29.49 5.15926 29.49C5.73916 29.49 6.20926 29.0199 6.20926 28.44V21.24C5.88271 21.4511 5.49742 21.5526 5.10926 21.53ZM11.7893 16.67C11.4126 16.6674 11.0459 16.5487 10.7393 16.33V23.6C10.7393 24.1799 11.2094 24.65 11.7893 24.65C12.3692 24.65 12.8393 24.1799 12.8393 23.6V16.34C12.522 16.5763 12.1347 16.6995 11.7393 16.69L11.7893 16.67ZM5.21926 20.76H4.99926C4.48011 20.76 4.05926 20.3391 4.05926 19.82V4.35C4.06474 3.83476 4.48399 3.41997 4.99926 3.42H5.21926C5.73453 3.41997 6.15378 3.83476 6.15926 4.35V19.84C6.15926 20.3591 5.73841 20.78 5.21926 20.78V20.76ZM8.29926 18.38H8.52926C9.04288 18.38 9.45926 17.9636 9.45926 17.45V6.75C9.45929 6.23473 9.0445 5.81548 8.52926 5.81H8.29926C8.05086 5.80999 7.81279 5.90934 7.63809 6.08592C7.46339 6.26249 7.36659 6.50162 7.36926 6.75V17.45C7.36926 17.9636 7.78563 18.38 8.29926 18.38ZM11.8393 15.93H11.6293C11.114 15.93 10.6947 15.5152 10.6893 15V9.24C10.6727 8.98047 10.7643 8.72567 10.9424 8.53618C11.1205 8.3467 11.3692 8.23947 11.6293 8.24H11.8493C12.3684 8.24 12.7893 8.66085 12.7893 9.18V14.98C12.7919 15.231 12.6941 15.4727 12.5175 15.6512C12.3409 15.8296 12.1003 15.93 11.8493 15.93H11.8393ZM14.9393 13.78H15.1593H15.1693C15.6845 13.7745 16.0993 13.3553 16.0993 12.84V11.35C16.0938 10.8348 15.6745 10.42 15.1593 10.42H14.9393C14.424 10.42 14.0047 10.8348 13.9993 11.35V12.84C13.9993 13.3591 14.4201 13.78 14.9393 13.78Z"></path><path d="M31.3 8.02H33.24L40.36 18.56V8.02H42.42V22H40.46L33.34 11.46V22H31.3V8.02ZM53.9709 22.3C52.5843 22.3 51.3309 22 50.2109 21.4C49.0909 20.7867 48.2109 19.9267 47.5709 18.82C46.9309 17.7133 46.6109 16.4467 46.6109 15.02C46.6109 13.5933 46.9309 12.3267 47.5709 11.22C48.2109 10.1133 49.0909 9.25333 50.2109 8.64C51.3309 8.02667 52.5843 7.72 53.9709 7.72C55.3576 7.72 56.6109 8.02667 57.7309 8.64C58.8509 9.25333 59.7309 10.1133 60.3709 11.22C61.0109 12.3267 61.3309 13.5933 61.3309 15.02C61.3309 16.4467 61.0109 17.7133 60.3709 18.82C59.7309 19.9267 58.8509 20.7867 57.7309 21.4C56.6109 22 55.3576 22.3 53.9709 22.3ZM53.9709 20.46C54.9576 20.46 55.8509 20.24 56.6509 19.8C57.4643 19.3467 58.1043 18.7133 58.5709 17.9C59.0376 17.0733 59.2709 16.1133 59.2709 15.02C59.2709 13.94 59.0376 12.9933 58.5709 12.18C58.1176 11.3533 57.4909 10.72 56.6909 10.28C55.8909 9.82667 54.9976 9.6 54.0109 9.6C53.0109 9.6 52.1043 9.82 51.2909 10.26C50.4909 10.7 49.8509 11.3333 49.3709 12.16C48.9043 12.9867 48.6709 13.94 48.6709 15.02C48.6709 16.1133 48.9043 17.0733 49.3709 17.9C49.8376 18.7133 50.4709 19.3467 51.2709 19.8C52.0843 20.24 52.9843 20.46 53.9709 20.46ZM65.5344 8.02H71.1544C72.6477 8.02 73.7944 8.38 74.5944 9.1C75.3944 9.82 75.7944 10.8733 75.7944 12.26C75.7944 13.2867 75.521 14.16 74.9744 14.88C74.4277 15.5867 73.6544 16.0667 72.6544 16.32L75.7344 22H73.6144L70.6344 16.48H67.5744V22H65.5344V8.02ZM70.8144 14.76C71.7077 14.76 72.4144 14.5533 72.9344 14.14C73.4677 13.7133 73.7344 13.0867 73.7344 12.26C73.7344 11.3533 73.4744 10.7067 72.9544 10.32C72.4477 9.93333 71.7344 9.74 70.8144 9.74H67.5744V14.76H70.8144ZM79.9953 8.02H84.4953C86.002 8.02 87.3086 8.3 88.4153 8.86C89.522 9.42 90.3686 10.22 90.9553 11.26C91.5553 12.3 91.8553 13.5267 91.8553 14.94C91.8553 17.26 91.182 19.02 89.8353 20.22C88.502 21.4067 86.6286 22 84.2153 22H79.9953V8.02ZM84.1953 20.3C86.062 20.3 87.462 19.84 88.3953 18.92C89.3286 18 89.7953 16.6733 89.7953 14.94C89.7953 13.34 89.3353 12.0733 88.4153 11.14C87.5086 10.2067 86.2086 9.74 84.5153 9.74H82.0353V20.3H84.1953ZM96.0578 8.02H98.1178V22H96.0578V8.02ZM109.726 22.3C108.286 22.3 107.006 22 105.886 21.4C104.766 20.8 103.892 19.9533 103.266 18.86C102.639 17.7533 102.326 16.4733 102.326 15.02C102.326 13.5667 102.639 12.2867 103.266 11.18C103.892 10.0733 104.766 9.22 105.886 8.62C107.006 8.02 108.286 7.72 109.726 7.72C111.646 7.72 113.252 8.20667 114.546 9.18V11.14C113.386 10.1133 111.839 9.6 109.906 9.6C108.826 9.6 107.866 9.82 107.026 10.26C106.199 10.7 105.552 11.3333 105.086 12.16C104.619 12.9733 104.386 13.9267 104.386 15.02C104.386 16.1133 104.619 17.0733 105.086 17.9C105.566 18.7267 106.219 19.36 107.046 19.8C107.886 20.24 108.839 20.46 109.906 20.46C110.892 20.46 111.772 20.3333 112.546 20.08C113.332 19.8133 114.059 19.3933 114.726 18.82V20.8C113.526 21.8 111.859 22.3 109.726 22.3Z"></path></svg>