<svg xmlns="http://www.w3.org/2000/svg" viewBox="0 0 86 17"><path fill-rule="evenodd" clip-rule="evenodd" d="M20.3866 5.8288L15.5083 16.856H19.0878L22.6156 9.22698L20.3866 5.8288Z" fill="#0B1E46" fill-opacity="0.6"></path><path fill-rule="evenodd" clip-rule="evenodd" d="M28.9499 16.856L27.0367 13.6343L22.4064 13.6397L24.4572 9.21951L21.2676 3.90328L22.8603 0.256531L32.8495 16.856H28.9499ZM47.5463 5.82879L42.668 16.856H46.2475L49.7759 9.22698L47.5463 5.82879Z" fill="#0B1E46" fill-opacity="0.6"></path><path fill-rule="evenodd" clip-rule="evenodd" d="M56.1111 16.856L54.1973 13.6343L49.567 13.6397L51.6179 9.21951L48.4282 3.90328L50.0209 0.256531L60.0106 16.856H56.1111ZM68.7768 16.856L58.9935 0.270932L62.6877 0.256531L72.6764 16.856H68.7768ZM77.6059 4.69908L74.6077 0.256531L70.9157 0.270932L75.4388 7.74737L77.6059 4.69908Z" fill="#0B1E46" fill-opacity="0.6"></path><path fill-rule="evenodd" clip-rule="evenodd" d="M66.1174 3.62432L68.1634 0.256531L71.8566 0.270932L68.0642 6.72967L66.1174 3.62432ZM79.381 16.5941H76.7392L76.6725 8.53465L81.777 0.256531L85.4701 0.270932L79.4488 10.1599L79.381 16.5941ZM64.7055 12.4497L62.0743 16.856H58.1737L62.7005 9.29258L64.7055 12.4497ZM33.1852 0.256531V16.856H37.1179V0.256531H33.1852ZM38.4476 16.856H41.9972V12.8348H38.4476V16.856ZM8.12793 7.00117H16.5949V10.5652H8.12793V7.00117Z" fill="#0B1E46" fill-opacity="0.6"></path><path fill-rule="evenodd" clip-rule="evenodd" d="M12.1238 4.87672C11.3184 3.66808 9.8884 3.5214 8.60134 3.5214C6.36646 3.5214 3.65741 4.80845 3.65741 8.8723C3.65741 12.9356 6.29926 13.6813 8.4664 13.6813C10.6335 13.6813 11.5824 12.9367 11.9889 11.9883H15.7135C15.7135 13.6141 13.3426 17 8.80456 17C4.26707 17 0 14.1555 0 8.94111C0 5.21489 2.97948 0 7.99222 0C13.0044 0 14.2232 1.89671 14.9011 2.70959L12.1238 4.87672Z" fill="#0B1E46" fill-opacity="0.6"></path></svg>