<svg xmlns="http://www.w3.org/2000/svg" viewBox="0 0 102 28"><g clip-path="url(#clip0_4057_3106)"><path d="M48.4471 22.1263C43.8244 22.1263 39.6768 19.5009 39.6768 15.8299C39.6768 12.1576 43.8248 9.52951 48.4802 9.52951C50.5042 9.52951 52.3943 10.0403 54.4497 11.1867L53.0008 13.048C51.6837 12.4111 50.1323 12.0295 48.4802 12.0295C46.5232 12.0295 44.2632 13.1251 44.2632 15.8296C44.2632 18.5324 46.49 19.6274 48.4802 19.6274C50.1323 19.6274 51.7171 19.2964 53.066 18.7089L54.5173 20.673C52.7972 21.5929 50.7053 22.1263 48.4471 22.1263ZM74.8513 22.0783C79.505 22.0783 83.6547 19.4519 83.6547 15.7823C83.6547 12.1096 79.505 9.4815 74.8513 9.4815C70.1959 9.4815 66.0458 12.1092 66.0458 15.7823C66.0458 19.4523 70.1959 22.0783 74.8513 22.0783ZM79.0679 15.7823C79.0679 18.4847 76.8083 19.5797 74.8513 19.5797C72.8933 19.5797 70.6343 18.4847 70.6343 15.7823C70.6343 13.0768 72.8933 11.9818 74.8513 11.9818C76.8083 11.9818 79.0679 13.0768 79.0679 15.7823ZM85.5283 21.7744H89.8761V14.2762C89.8761 13.2637 90.6624 12.0721 92.0694 12.0643C93.0521 12.0721 93.9953 12.7448 93.9953 13.5981L93.9865 21.7744H98.3458V13.3665C98.3458 11.1519 95.972 9.30335 93.1397 9.30335C93.1116 9.30335 93.0849 9.30706 93.0572 9.30774C93.0292 9.30706 93.0024 9.30335 92.9754 9.30335C91.8479 9.30265 90.7429 9.61919 89.7868 10.2168C89.779 10.1843 89.5346 9.38042 85.5283 9.38042V21.7744ZM33.327 21.7744H37.5862V9.78948H33.327V21.7744ZM56.548 21.7744H60.8089V14.5064C60.8089 13.3584 62.1568 12.4399 63.6081 12.4399C64.3173 12.4399 64.9847 12.5819 65.5452 12.83V9.67825C65.0409 9.60162 64.5316 9.56207 64.0215 9.55993C62.8796 9.55993 61.7342 9.89089 60.7968 10.447C60.7271 10.3054 60.2048 9.63566 56.548 9.63566V21.7744ZM25.2014 16.9973L25.2007 21.7754H29.5623V13.0518C28.2987 14.355 26.8413 15.6822 25.2014 16.9973Z" fill="#0B1E46" fill-opacity="0.6"></path><path d="M29.5622 13.0517C34.3654 8.09645 36.3548 3.49038 34.8062 1.27337C33.1896 -1.042 28.1674 -0.103885 21.6573 3.33588C21.4009 3.45953 21.1537 3.60155 20.9176 3.76082C20.6033 3.97921 20.7865 4.13776 21.0187 4.05358C21.2966 3.95542 21.5687 3.84165 21.8338 3.71282C26.7137 1.39846 30.5199 0.983318 32.0077 2.59857C34.2751 5.05898 29.6318 13.1221 21.5914 19.0861C20.5181 19.8819 18.8616 21.0475 17.7828 21.6949C17.7098 21.7402 17.6378 21.7849 17.5675 21.8295C17.2821 22.0164 17.0283 22.1902 16.8285 22.3467C16.6337 22.4978 16.6713 22.7385 17.0222 22.5874C17.2362 22.4961 17.4958 22.3579 17.7723 22.1885C17.8349 22.1503 17.8964 22.1155 17.962 22.0753C19.1743 21.3393 20.9741 20.0966 22.2036 19.2379C23.2268 18.5236 24.2264 17.776 25.2009 16.9966C26.8411 15.6822 28.2985 14.3543 29.5622 13.0517Z" fill="#0B1E46" fill-opacity="0.6"></path><path d="M8.15183 27.9984H12.5135V23.4786C13.7329 22.7551 14.9287 21.9924 16.099 21.1919C16.3657 21.0087 16.602 20.8261 16.7734 20.6696C17.0557 20.4113 16.8511 20.2788 16.6334 20.3934C16.4093 20.5117 16.1443 20.6713 15.8572 20.8539C9.1197 25.1635 4.57109 26.4785 2.89161 24.1983C1.43254 22.2186 3.82398 18.3911 8.15217 14.0686V24.1013C9.38001 23.6844 10.8313 23.0195 12.5128 22.0844L12.5118 12.7759L13.4712 14.8174C14.5229 17.0716 16.4313 18.4195 18.8579 18.4195C21.2835 18.4195 23.1918 17.0716 24.2435 14.8174L25.2029 12.7759L25.2019 15.1508C26.7627 13.6369 28.0954 12.1258 29.1058 10.664C29.2319 10.4835 29.2208 10.3314 29.1522 10.1644C28.8121 9.45372 28.2778 8.85389 27.611 8.43432C26.9443 8.01474 26.1723 7.79259 25.3845 7.79356C23.7395 7.79356 22.3108 8.74757 21.6259 10.1275L19.8004 14C19.6117 14.377 19.2642 14.5862 18.8575 14.5862C18.4519 14.5862 18.1023 14.377 17.9137 14L16.0888 10.1282C15.74 9.42709 15.2028 8.83698 14.5375 8.42404C15.8725 7.36456 17.1699 6.41833 18.4475 5.64282C18.6996 5.4876 18.9429 5.31854 19.1763 5.13641C19.3738 4.98597 19.3372 4.74527 18.9853 4.893C18.7713 4.98259 18.4945 5.11883 18.2172 5.28752C16.912 6.07824 15.5777 6.88722 14.3022 7.75908C14.1473 7.86455 13.9945 7.97037 13.8417 8.07618C13.3598 7.88898 12.8472 7.79325 12.3303 7.7939C11.7813 7.79332 11.2377 7.90103 10.7305 8.11086C10.2232 8.32068 9.76236 8.62851 9.37426 9.0167C8.98616 9.4049 8.67844 9.86584 8.46874 10.3731C8.25903 10.8804 8.15146 11.4241 8.15217 11.973V12.548C1.99034 18.0425 -1.24456 23.4826 0.445741 25.9048C1.68676 27.681 4.62958 27.2709 8.15183 25.7405V27.9984ZM100.012 10.8337H100.171C100.35 10.8337 100.502 10.7685 100.502 10.6001C100.502 10.4801 100.415 10.3601 100.171 10.3601C100.099 10.3601 100.051 10.3655 100.012 10.3706V10.8337ZM100.012 11.591H99.794V10.2239C99.9086 10.2083 100.017 10.1918 100.181 10.1918C100.388 10.1918 100.524 10.235 100.606 10.2952C100.687 10.355 100.73 10.447 100.73 10.5775C100.73 10.7573 100.611 10.8662 100.464 10.9101V10.9206C100.584 10.9423 100.665 11.0521 100.693 11.2526C100.726 11.4646 100.757 11.547 100.779 11.5907H100.551C100.518 11.547 100.486 11.422 100.459 11.2421C100.426 11.0673 100.339 11.0024 100.164 11.0024H100.012V11.591ZM100.241 9.84322C99.702 9.84322 99.2615 10.3054 99.2615 10.8774C99.2615 11.4598 99.7024 11.9169 100.246 11.9169C100.791 11.923 101.226 11.4595 101.226 10.8824C101.226 10.3054 100.791 9.84322 100.246 9.84322H100.241ZM100.246 9.65188C100.916 9.65188 101.449 10.1965 101.449 10.877C101.449 11.569 100.916 12.1079 100.241 12.1079C99.5719 12.1079 99.0276 11.569 99.0276 10.877C99.0276 10.1965 99.5715 9.65188 100.241 9.65188H100.246Z" fill="#0B1E46" fill-opacity="0.6"></path></g><defs><clipPath id="clip0_4057_3106"><rect width="101.449" height="28" fill="white"></rect></clipPath></defs></svg>