<svg xmlns="http://www.w3.org/2000/svg" viewBox="0 0 115 25"><path fill-rule="evenodd" clip-rule="evenodd" d="M11.3334 19.9945C7.69674 19.3385 4.89166 16.1782 4.89166 12.2856C4.89166 8.35201 7.69674 5.18909 11.3354 4.53305L11.3334 0.287231C5.37012 0.998218 0.94873 6.18487 0.94873 12.2862C0.94873 18.3889 5.37213 23.538 11.3354 24.241L11.3334 19.9945Z" fill="#0B1E46" fill-opacity="0.6"></path><path fill-rule="evenodd" clip-rule="evenodd" d="M15.4286 4.51028C17.2744 4.8068 18.9533 5.75342 20.1624 7.17924C21.3714 8.60507 22.0309 10.4162 22.0218 12.2856C22.0218 16.2318 19.137 19.4222 15.4272 20.018L15.4286 24.2625C21.4696 23.6292 25.9647 18.4372 25.9647 12.2856C25.9647 6.13195 21.4683 0.899726 15.4272 0.262451L15.4286 4.51028Z" fill="#0B1E46" fill-opacity="0.6"></path><path fill-rule="evenodd" clip-rule="evenodd" d="M13.4696 17.7054C14.8699 17.7051 16.2128 17.1485 17.2028 16.1581C18.1928 15.1677 18.7489 13.8247 18.7487 12.4243C18.7485 11.7312 18.6118 11.0449 18.3464 10.4047C18.081 9.76442 17.6921 9.1827 17.2019 8.69273C16.7117 8.20277 16.1298 7.81416 15.4894 7.54908C14.849 7.28401 14.1626 7.14768 13.4696 7.14785C12.7764 7.1475 12.09 7.28372 11.4495 7.54873C10.809 7.81374 10.2271 8.20234 9.73681 8.69234C9.24657 9.18234 8.85767 9.76413 8.59233 10.4045C8.327 11.0448 8.19043 11.7312 8.19043 12.4243C8.19008 13.1178 8.32637 13.8045 8.59152 14.4453C8.85667 15.086 9.24549 15.6683 9.73574 16.1587C10.226 16.6491 10.8081 17.0382 11.4488 17.3036C12.0894 17.569 12.7761 17.7055 13.4696 17.7054ZM30.2096 18.0928V6.66135L32.1797 6.31088V8.69781H32.2233C32.8585 7.29728 33.9314 6.268 35.6395 6.268H36.6916L35.8144 8.37013C33.9307 8.26023 32.3117 9.64066 32.3117 12.5087V17.743L30.2096 18.0928ZM39.7741 14.3247C40.475 15.4411 41.5029 16.1206 42.817 16.1206C44.3295 16.1206 45.7957 15.0933 46.9349 14.1927L47.3517 16.4048C45.9712 17.3704 44.6806 18.0934 42.949 18.0934C39.38 18.0934 37.0594 15.421 37.0594 11.8956C37.0594 8.87339 39.642 6.31155 42.5986 6.31155C44.9641 6.31155 46.3653 7.3844 47.5701 9.35452L39.7741 14.3247ZM44.6799 9.00472C44.1968 8.45657 43.4952 8.281 42.7507 8.281C40.3658 8.281 38.8976 10.2076 39.1616 12.5081L44.6799 9.00472ZM57.6204 9.3103C56.6783 8.61137 56.0651 8.281 54.8174 8.281C52.6925 8.281 51.2484 10.1868 51.2484 12.2226C51.2484 14.2162 52.9337 16.12 54.8609 16.12C56.043 16.12 56.8304 15.5517 57.5983 14.8072L58.9566 16.1856C57.8396 17.3476 56.4397 18.0928 54.7953 18.0928C51.8615 18.0928 49.1469 15.5524 49.1469 12.2896C49.1469 9.0255 51.4675 6.31088 54.7953 6.31088C56.3278 6.31088 57.7303 6.85769 58.8903 7.86621L57.6204 9.3103ZM72.1605 12.2005C72.1605 15.5303 69.403 18.0928 66.1174 18.0928C62.8339 18.0928 60.0958 15.5303 60.0958 12.2005C60.0958 8.87272 62.8339 6.31088 66.1174 6.31088C69.403 6.31088 72.1605 8.87272 72.1605 12.2005ZM66.1181 8.281C65.6032 8.28039 65.0932 8.38134 64.6174 8.57809C64.1415 8.77483 63.7091 9.06351 63.345 9.42758C62.9809 9.79165 62.6921 10.224 62.4953 10.6998C62.2985 11.1756 62.1974 11.6856 62.198 12.2005C62.198 14.3482 63.9268 16.1206 66.1181 16.1206C66.6372 16.1274 67.1524 16.031 67.6339 15.8371C68.1155 15.6432 68.5537 15.3555 68.9231 14.9908C69.2926 14.6262 69.586 14.1918 69.7862 13.7128C69.9864 13.2339 70.0895 12.7199 70.0895 12.2008C70.0895 11.6817 69.9864 11.1678 69.7862 10.6888C69.586 10.2099 69.2926 9.77545 68.9231 9.41079C68.5537 9.04613 68.1155 8.75848 67.6339 8.56454C67.1524 8.3706 66.6372 8.27422 66.1181 8.281ZM73.9986 18.0928V6.66135L76.1021 6.31088V7.95265H76.145C76.7796 6.81481 78.1144 6.31088 79.4285 6.31088C81.6848 6.31088 83.7869 7.38373 83.7869 10.1647V17.7423L81.6848 18.0928V10.3396C81.6848 8.69715 80.5241 8.17178 79.2322 8.17178C77.5676 8.17178 76.1014 9.18029 76.1014 11.5672V17.7423L73.9986 18.0928ZM91.912 8.52224H88.9555V14.3911C88.9555 15.7916 89.3924 16.2312 90.9249 16.2312C91.4054 16.2312 91.8658 16.1421 92.3268 16.0992L91.9549 18.0036C91.5374 18.0492 91.1668 18.0928 90.2662 18.0928C88.3189 18.0928 86.8527 16.6909 86.8527 14.6993V8.52291H85.1211L85.8669 6.66202H86.8527V3.94741L88.9548 3.44415V6.66269H91.9113V8.52224H91.912ZM95.739 14.3247C96.4379 15.4411 97.4679 16.1206 98.782 16.1206C100.294 16.1206 101.761 15.0933 102.9 14.1927L103.315 16.4048C101.936 17.3704 100.645 18.0934 98.9146 18.0934C95.3456 18.0934 93.025 15.421 93.025 11.8956C93.025 8.87339 95.6077 6.31155 98.5642 6.31155C100.928 6.31155 102.331 7.3844 103.535 9.35452L95.739 14.3247ZM100.644 9.00472C100.161 8.45657 99.4594 8.281 98.7149 8.281C96.33 8.281 94.8618 10.2076 95.1265 12.5081L100.644 9.00472ZM113.586 9.3103C112.643 8.61137 112.031 8.281 110.782 8.281C108.657 8.281 107.213 10.1868 107.213 12.2226C107.213 14.2162 108.899 16.12 110.826 16.12C112.008 16.12 112.797 15.5517 113.564 14.8072L114.921 16.1856C113.802 17.3476 112.401 18.0928 110.759 18.0928C107.826 18.0928 105.108 15.5524 105.108 12.2896C105.108 9.0255 107.432 6.31088 110.759 6.31088C112.293 6.31088 113.695 6.85769 114.854 7.86621L113.586 9.3103Z" fill="#0B1E46" fill-opacity="0.6"></path></svg>