<svg xmlns="http://www.w3.org/2000/svg" viewBox="0 0 124 25"><path fill-rule="evenodd" clip-rule="evenodd" d="M103.424 12.635V14.1723C105.276 13.6835 111.354 12.3034 112.402 15.9891C113.188 18.6965 108.979 22.8011 104.595 19.0453C102.847 17.5608 102.219 15.0285 102.219 12.635C102.219 10.2593 102.847 7.72707 104.595 6.24193C108.979 2.48615 113.188 6.59141 112.402 9.29875C111.354 12.9845 105.276 11.6044 103.424 11.1155V12.635ZM121.66 12.635C121.66 18.0675 117.275 22.4172 111.93 22.4172C110.638 22.4172 109.293 22.1378 108.105 21.6317C111.825 22.0506 115.651 20.3216 116.455 17.8938C116.943 16.4265 116.455 15.0292 115.738 14.173C116.594 14.1208 119.947 13.1074 119.947 12.6357C119.947 12.1818 116.594 11.1684 115.738 11.1162C116.455 10.26 116.943 8.86272 116.455 7.39542C115.651 4.96754 111.825 3.23797 108.105 3.65748C109.315 3.14483 110.616 2.87783 111.93 2.87197C117.276 2.87131 121.66 7.22035 121.66 12.635ZM111.931 0.582825C118.534 0.582825 123.931 5.96314 123.931 12.5828C123.931 19.2025 118.534 24.5828 111.931 24.5828C105.329 24.5828 99.9311 19.2025 99.9311 12.5828C99.9311 5.96314 105.329 0.582825 111.931 0.582825ZM90.9529 9.80547V8.8799H87.6345V19.2025H91.1095V14.1373C91.1095 11.5872 92.9957 11.395 95.2504 12.0589V9.03713C93.8869 8.28598 91.8085 8.51324 90.9529 9.80547ZM73.7827 15.6396C72.9093 16.373 72.2097 16.513 71.6508 16.513C70.2535 16.513 69.0663 15.5696 69.0663 14.1552C69.0663 12.8101 70.1306 11.5872 71.5114 11.5872C72.2969 11.5872 73.1181 12.0761 73.7827 12.7044V9.52535C72.6986 8.98428 71.7902 8.73918 70.7774 8.73918C67.6341 8.73918 65.8873 11.2021 65.8873 14.1367C65.8873 17.0184 68.0007 19.5692 70.7774 19.5513C72.3154 19.5513 73.642 18.9224 73.7827 18.8352V15.6396ZM57.0135 9.73544V8.82705H53.8166V19.2025H57.1179V14.2424C57.1179 11.9017 57.8512 11.43 58.9175 11.395C60.1403 11.395 61.2403 11.8317 61.2231 13.6313V19.2032H64.6988V13.3168C64.6988 10.7667 63.2665 8.63612 61.0137 8.51324C58.7602 8.39036 57.7125 8.75768 57.0135 9.73544ZM30.219 19.2025H33.5374V16.0935L35.0397 14.7134L38.1315 19.2025H42.2189L37.3632 12.635L41.4506 8.70483H37.1709L33.5374 12.1983V1.31614H30.219V19.2025ZM25.4154 19.2025H28.7173V1.31614H25.4154V19.2025ZM20.4724 9.57886C19.8435 8.82771 18.6556 8.47822 17.4856 8.47822C14.1322 8.47822 12.612 11.5 12.612 14.0151C12.612 16.9675 15.1099 19.3082 17.3806 19.3082C18.7779 19.3082 19.7741 19.0459 20.4724 18.2948V19.186H23.8959V8.84488H20.4724V9.57886ZM18.2533 11.5522C18.8832 11.5529 19.487 11.8034 19.9324 12.2488C20.3778 12.6942 20.6283 13.298 20.629 13.9279C20.6301 14.2402 20.5695 14.5496 20.4505 14.8384C20.3315 15.1271 20.1565 15.3895 19.9357 15.6103C19.7149 15.8311 19.4525 16.0061 19.1638 16.1251C18.875 16.2441 18.5656 16.3047 18.2533 16.3036C16.9439 16.3036 15.8604 15.2551 15.8604 13.9279C15.8604 12.6178 16.9439 11.5522 18.2533 11.5522ZM48.9437 9.57886C48.3147 8.82771 47.1269 8.47822 45.9569 8.47822C42.6028 8.47822 41.0833 11.5 41.0833 14.0151C41.0833 16.9675 43.5812 19.3082 45.8519 19.3082C47.2491 19.3082 48.2447 19.0459 48.9437 18.2948V19.186H52.3672V8.84488H48.9437V9.57886ZM46.7252 11.5522C47.3551 11.5529 47.9589 11.8034 48.4043 12.2488C48.8497 12.6942 49.1002 13.298 49.1009 13.9279C49.1021 14.2402 49.0414 14.5496 48.9224 14.8384C48.8034 15.1271 48.6285 15.3895 48.4076 15.6103C48.1868 15.8311 47.9244 16.0061 47.6357 16.1251C47.347 16.2441 47.0375 16.3047 46.7252 16.3036C45.4152 16.3036 44.3324 15.2551 44.3324 13.9279C44.3324 12.6178 45.4152 11.5522 46.7252 11.5522ZM82.568 9.57886C81.9397 8.82771 80.7512 8.47822 79.5812 8.47822C76.2278 8.47822 74.7076 11.5 74.7076 14.0151C74.7076 16.9675 77.2055 19.3082 79.4768 19.3082C80.8741 19.3082 81.869 19.0459 82.5687 18.2948V19.186H85.9921V8.84488H82.5687V9.57886H82.568ZM80.3502 11.5522C80.9801 11.5529 81.5839 11.8034 82.0293 12.2488C82.4747 12.6942 82.7252 13.298 82.7259 13.9279C82.727 14.2402 82.6663 14.5496 82.5474 14.8384C82.4284 15.1271 82.2534 15.3895 82.0326 15.6103C81.8118 15.8311 81.5494 16.0061 81.2607 16.1251C80.9719 16.2441 80.6625 16.3047 80.3502 16.3036C79.0395 16.3036 77.9567 15.2551 77.9567 13.9279C77.9567 12.6178 79.0395 11.5522 80.3502 11.5522ZM6.25397 11.5522C6.88383 11.5529 7.48768 11.8034 7.93306 12.2488C8.37844 12.6942 8.62896 13.298 8.62966 13.9279C8.62966 15.2551 7.56403 16.3036 6.25397 16.3036C4.9439 16.3036 3.86044 15.2551 3.86044 13.9279C3.86044 12.6178 4.9439 11.5522 6.25397 11.5522ZM6.53342 19.5342C9.59024 19.4998 11.8437 17.0541 11.8437 14.1373C11.8437 11.0105 9.95756 8.53042 7.07515 8.53042C5.73007 8.53042 4.34998 8.93209 3.73888 9.56103V1.31614H0.331925V12.6879C0.192528 17.3335 3.47661 19.5698 6.53342 19.5342Z" fill="#0B1E46" fill-opacity="0.6"></path></svg>