<svg xmlns="http://www.w3.org/2000/svg" viewBox="0 0 71 22"><g clip-path="url(#clip0_4057_3132)"><path d="M0 17.75H6.0744C10.6852 17.75 11.8567 13.433 11.8567 10.4319C11.8567 7.79669 10.8697 3.80861 6.18514 3.80861H0V17.75ZM2.85344 6.22392H5.67158C6.91535 6.22392 8.89094 6.55453 8.89094 10.6517C8.89094 12.9579 8.0869 15.3347 5.70849 15.3347H2.85344V6.22392ZM12.8068 7.43078V17.75H15.5158V7.43078H12.8068ZM15.5142 3.66256H12.8068V6.18701H15.5158V3.66256H15.5142ZM24.1869 7.43078V8.96824H24.15C23.821 8.27173 23.0522 7.1387 21.112 7.1387C18.8443 7.1387 16.8318 8.89441 16.8318 12.4813C16.8318 16.1051 18.7705 17.8239 21.2596 17.8239C22.9062 17.8239 23.6011 17.0551 24.0408 16.2511L24.0777 16.288V17.5318C24.0777 19.2153 23.3828 19.9102 21.9192 19.9102C20.3464 19.9102 20.1266 19.3982 20.0158 18.8847H17.0517C17.1608 21.0801 19.4285 21.9949 21.5517 21.9949C26.6744 21.9949 26.7835 18.9938 26.7835 17.2012V7.43078H24.1869ZM19.613 12.6642C19.613 10.2489 20.7477 9.48179 21.7716 9.48179C23.2721 9.48179 24.1131 10.8716 24.1131 12.5182C24.1131 13.9449 23.6364 15.5193 21.7716 15.5193C20.1619 15.5177 19.613 13.9818 19.613 12.6642ZM28.4686 7.43078V17.75H31.1777V7.43078H28.4686ZM31.1761 3.66256H28.467V6.18701H31.1761V3.66256ZM36.6647 4.61425H33.9573V7.43078H32.5306V9.36945H33.9573V15.6268C33.9573 16.9813 34.3585 17.8961 36.7385 17.8961H37.0675C37.5056 17.8961 37.9454 17.8592 38.3482 17.8223V15.7745C38.1652 15.8114 37.9823 15.8114 37.7993 15.8114C36.7016 15.8114 36.6647 15.5915 36.6647 14.9704V9.37106H38.3482V7.43078H36.6647V4.61425ZM47.8634 10.1398C47.8634 7.57843 45.1913 7.1387 43.7277 7.1387C41.606 7.1387 39.4106 7.57682 39.1169 10.7609H41.7152C41.8243 10.1382 42.0442 9.33254 43.3987 9.33254C44.0952 9.33254 45.1913 9.36945 45.1913 10.541C45.1913 11.1268 44.6794 11.2728 44.2396 11.345L41.789 11.7109C40.0686 11.9661 38.7879 12.9916 38.7879 15.0041C38.7879 17.1643 40.3607 18.0421 41.935 18.0421C43.7662 18.0421 44.6441 17.1643 45.2651 16.5416C45.3374 17.1274 45.3743 17.2734 45.5203 17.7484H48.4476V17.3472C48.1186 17.2381 47.8634 16.9813 47.8634 15.7375V10.1398ZM45.1913 14.054C45.1913 15.2978 43.9845 16.1035 42.776 16.1035C42.2271 16.1035 41.4953 15.8098 41.4953 14.8597C41.4953 13.725 42.3363 13.4683 43.3618 13.2869C44.4595 13.104 44.9345 12.9579 45.1913 12.7381V14.054ZM52.0714 3.81021H49.3623V17.75H52.0714V3.81021ZM63.4867 2.85853H63.3776C63.1224 2.85853 62.8657 2.89384 62.6458 2.93075C62.3133 2.98974 61.9921 3.10077 61.6941 3.25974C60.9254 3.69787 60.4503 4.39438 60.4503 5.16311C60.4503 6.44379 61.7679 7.4693 63.3776 7.4693C65.0242 7.4693 66.3418 6.44539 66.3418 5.16311C66.3418 4.1023 65.4286 3.22444 64.2202 2.93075C63.9781 2.88669 63.7328 2.86254 63.4867 2.85853ZM70.5128 12.6642C70.5128 14.9704 68.794 18.5188 63.3038 18.5188C57.9612 18.5188 56.1317 15.4824 56.1317 13.0301C56.1317 12.1154 56.1317 9.73697 59.2788 8.45629C57.6691 7.76138 56.7913 6.62674 56.7913 4.94324C56.7913 1.86993 59.6078 0.003479 63.2316 0.003479C67.5117 0.003479 69.781 2.23584 69.781 4.72338C69.781 6.26084 69.0861 7.57682 67.4026 8.34555C69.3782 9.1881 70.5128 10.3597 70.5128 12.6642ZM60.9254 14.6767C61.4742 15.2994 62.2799 15.6653 63.3407 15.6653C64.4015 15.6653 65.1333 15.2994 65.61 14.7506C66.3049 14.2386 66.7799 13.5068 66.7799 12.6642C66.7799 11.1637 65.2072 9.91992 63.3038 9.91992C61.4004 9.91992 59.8646 11.1637 59.8646 12.6642C59.8646 13.4699 60.2674 14.1648 60.9254 14.6767Z" fill="#0B1E46" fill-opacity="0.6"></path></g><defs><clipPath id="clip0_4057_3132"><rect width="70.5128" height="22" fill="white"></rect></clipPath></defs></svg>