<svg xmlns="http://www.w3.org/2000/svg" viewBox="0 0 83 6" fill="none"><path d="M1.5 3C4.16667 0.333333 6.83333 0.333333 9.5 3C12.1667 5.66667 14.8333 5.66667 17.5 3C20.1667 0.333333 22.8333 0.333333 25.5 3C28.1667 5.66667 30.8333 5.66667 33.5 3C36.1667 0.333333 38.8333 0.333333 41.5 3C44.1667 5.66667 46.8333 5.66667 49.5 3C52.1667 0.333333 54.8333 0.333333 57.5 3C60.1667 5.66667 62.8333 5.66667 65.5 3C68.1667 0.333333 70.8333 0.333333 73.5 3C76.1667 5.66667 78.8333 5.66667 81.5 3" stroke="#2377FC" stroke-width="1.5"></path></svg>