<svg xmlns="http://www.w3.org/2000/svg" viewBox="0 0 144 42" fill="none"><g clip-path="url(#clip0_4060_3813)"><path d="M18.5001 27.35L8.5001 21.55V26.65L18.4001 32.55L31.5001 25.35V28.25L18.4001 35.55L5.9001 28.15V7.15L2.7001 8.95C1.2001 9.85 0.200098 11.45 0.200098 13.25L0.100098 28.55C0.100098 30.35 1.0001 31.95 2.6001 32.85L15.8001 40.55C17.3001 41.45 19.2001 41.45 20.8001 40.55L34.1001 32.95C35.6001 32.05 36.6001 30.45 36.6001 28.65L36.7001 16.55L18.5001 27.35Z" fill="#2377FC" stroke="#2377FC" stroke-width="0.2595" stroke-miterlimit="10"></path><path d="M25 3.65L21 1.35C19.5 0.449999 17.6 0.449999 16 1.35L8.5 5.65V13.45L25 3.65Z" fill="#2377FC" stroke="#2377FC" stroke-width="0.2595" stroke-miterlimit="10"></path><path d="M8.5 18.55L18.5 24.35L36.7 13.55V13.35C36.7 11.55 35.8 9.95 34.3 9.05L18.4 18.55L15.7 17.05L31.7 7.65L27.5 5.15L8.5 16.35V18.55Z" fill="#2377FC" stroke="#2377FC" stroke-width="0.2595" stroke-miterlimit="10"></path><path d="M61.4001 22.35H52.9001C53.0001 23.75 53.3001 24.75 54.0001 25.45C54.7001 26.15 55.6001 26.45 56.9001 26.45C58.3001 26.45 59.5001 25.95 60.6001 25.05L61.2001 26.45C60.7001 26.95 60.0001 27.35 59.2001 27.55C58.4001 27.85 57.6001 27.95 56.8001 27.95C55.0001 27.95 53.5001 27.45 52.5001 26.35C51.5001 25.25 50.9001 23.75 50.9001 21.95C50.9001 20.75 51.1001 19.65 51.6001 18.75C52.1001 17.85 52.7001 17.15 53.6001 16.65C54.4001 16.15 55.4001 15.85 56.5001 15.85C58.1001 15.85 59.3001 16.35 60.1001 17.35C61.0001 18.35 61.4001 19.75 61.4001 21.55V22.35ZM54.0001 18.45C53.4001 19.05 53.0001 19.95 52.9001 21.15H59.7001C59.7001 19.95 59.4001 19.05 58.8001 18.45C58.2001 17.85 57.5001 17.55 56.4001 17.55C55.4001 17.45 54.6001 17.75 54.0001 18.45Z" fill="#0B1E46"></path><path d="M74.3 20.55V27.85H72.4V20.65C72.4 19.55 72.2 18.75 71.8 18.25C71.4 17.75 70.7 17.55 69.8 17.55C68.7 17.55 67.9 17.85 67.2 18.55C66.6 19.25 66.2 20.05 66.2 21.25V27.95H64.3V16.25H66.2V18.15C66.6 17.45 67.1 16.85 67.8 16.55C68.5 16.15 69.3 15.95 70.2 15.95C72.9 15.95 74.3 17.45 74.3 20.55Z" fill="#0B1E46"></path><path d="M88.3001 16.25V27.15C88.3001 28.85 87.9001 30.25 87.0001 31.05C86.1001 31.95 84.8001 32.35 83.0001 32.35C81.0001 32.35 79.2001 31.85 77.8001 30.75L78.4001 29.35C79.2001 29.85 79.9001 30.25 80.6001 30.45C81.3001 30.65 82.1001 30.75 82.9001 30.75C84.0001 30.75 84.9001 30.45 85.4001 29.85C85.9001 29.25 86.3001 28.35 86.3001 27.25V25.15C86.0001 25.95 85.4001 26.45 84.8001 26.85C84.1001 27.25 83.3001 27.45 82.3001 27.45C81.3001 27.45 80.4001 27.25 79.6001 26.75C78.8001 26.25 78.2001 25.55 77.8001 24.75C77.4001 23.85 77.1001 22.85 77.1001 21.75C77.1001 20.65 77.3001 19.55 77.8001 18.75C78.2001 17.85 78.9001 17.15 79.6001 16.75C80.4001 16.25 81.3001 16.05 82.3001 16.05C83.2001 16.05 84.0001 16.25 84.7001 16.65C85.4001 17.05 85.9001 17.65 86.3001 18.35V16.35H88.3001V16.25ZM85.4001 24.85C86.0001 24.15 86.4001 23.05 86.4001 21.75C86.4001 20.45 86.1001 19.45 85.5001 18.65C84.9001 17.95 84.0001 17.55 82.8001 17.55C81.7001 17.55 80.8001 17.95 80.1001 18.65C79.5001 19.35 79.1001 20.45 79.1001 21.75C79.1001 23.05 79.4001 24.05 80.1001 24.85C80.8001 25.65 81.6001 25.95 82.8001 25.95C83.9001 25.95 84.8001 25.55 85.4001 24.85Z" fill="#0B1E46"></path><path d="M91.8003 11.15H94.2003V13.35H91.8003V11.15ZM91.9003 27.95V16.25H93.8003V27.95H91.9003Z" fill="#0B1E46"></path><path d="M104.8 25.35L104.6 27.95C104.1 28.05 103.7 28.05 103.2 28.05C101.4 28.05 100.1 27.65 99.3004 26.85C98.5004 26.05 98.1004 24.85 98.1004 23.25V18.75H95.9004V16.05H98.0004V12.55H101.6V16.05H104.6V18.75H101.6V23.25C101.6 24.65 102.3 25.35 103.6 25.35C104 25.45 104.4 25.45 104.8 25.35Z" fill="#0B1E46"></path><path d="M117 22.75H109.3C109.4 23.65 109.7 24.35 110.2 24.85C110.7 25.25 111.4 25.45 112.3 25.45C112.9 25.45 113.5 25.35 114.1 25.15C114.7 24.95 115.2 24.65 115.7 24.25L116.7 26.65C116.1 27.05 115.4 27.45 114.6 27.75C113.8 28.05 112.9 28.15 112.1 28.15C110.1 28.15 108.6 27.65 107.4 26.55C106.3 25.45 105.7 23.95 105.7 22.05C105.7 20.85 105.9 19.75 106.4 18.85C106.9 17.95 107.6 17.15 108.5 16.65C109.4 16.15 110.4 15.85 111.5 15.85C113.1 15.85 114.5 16.35 115.4 17.45C116.3 18.55 116.9 19.95 116.9 21.85V22.75H117ZM110.1 18.95C109.7 19.35 109.4 20.05 109.3 20.85H113.9C113.9 20.05 113.6 19.35 113.3 18.95C112.9 18.55 112.4 18.35 111.7 18.35C111 18.35 110.5 18.55 110.1 18.95Z" fill="#0B1E46"></path><path d="M120.3 26.45C119.2 25.35 118.6 23.85 118.6 22.05C118.6 20.85 118.9 19.75 119.4 18.75C119.9 17.85 120.7 17.05 121.6 16.55C122.6 16.05 123.7 15.75 124.9 15.75C125.8 15.75 126.6 15.85 127.4 16.15C128.2 16.45 128.8 16.75 129.3 17.25L128.3 19.75C127.8 19.35 127.3 19.05 126.8 18.85C126.2 18.65 125.7 18.55 125.2 18.55C124.3 18.55 123.5 18.85 123 19.35C122.5 19.95 122.2 20.75 122.2 21.85C122.2 22.95 122.5 23.75 123 24.35C123.5 24.95 124.3 25.25 125.2 25.25C125.7 25.25 126.3 25.15 126.8 24.95C127.4 24.75 127.9 24.45 128.3 24.05L129.3 26.55C128.8 26.95 128.1 27.35 127.3 27.65C126.5 27.95 125.6 28.05 124.7 28.05C122.9 28.15 121.4 27.55 120.3 26.45Z" fill="#0B1E46"></path><path d="M141.6 17.05C142.3 17.85 142.6 19.15 142.6 20.75V27.85H139V20.95C139 20.15 138.9 19.55 138.6 19.15C138.3 18.75 137.8 18.55 137.2 18.55C136.4 18.55 135.8 18.75 135.4 19.25C134.9 19.75 134.7 20.35 134.7 21.15V27.75H131V10.95H134.6V17.65C135 17.05 135.5 16.55 136.2 16.25C136.8 15.95 137.6 15.75 138.4 15.75C139.8 15.85 140.9 16.25 141.6 17.05Z" fill="#0B1E46"></path></g><defs><clipPath id="clip0_4060_3813"><rect width="143.9" height="40.9" fill="white" transform="translate(0 0.549999)"></rect></clipPath></defs></svg>