<svg xmlns="http://www.w3.org/2000/svg" width="209" height="61" viewBox="0 0 209 61" fill="none"><path d="M28.112 40.0006L12.9691 32.0728L13.3611 39.7746L28.4059 47.82L47.2098 36.0051L47.3968 40.2899L28.5039 52.2133L9.62881 42.1069L8.13233 10.6306L3.50932 13.6228C2.42349 14.3216 1.53869 15.299 0.944342 16.4562C0.349999 17.6133 0.0671747 18.9091 0.124455 20.2127L1.10428 43.1645C1.16016 44.4678 1.55352 45.733 2.24473 46.8328C2.93593 47.9326 3.90056 48.8281 5.04142 49.429L25.1101 60.0417C26.2504 60.6464 27.5275 60.9354 28.8129 60.8803C30.0983 60.8247 31.3467 60.4261 32.4321 59.7255L51.5299 47.3861C52.6119 46.6832 53.4937 45.705 54.0876 44.5488C54.6814 43.3926 54.9666 42.0989 54.9148 40.7961L54.1309 22.5992L28.112 40.0006Z" fill="url(#paint0_linear_7_14116)"></path><path d="M35.9773 4.15827L29.9202 0.95821C28.7792 0.354798 27.5016 0.0671737 26.2162 0.124305C24.9308 0.181436 23.6829 0.581305 22.5982 1.28364L11.8111 8.25325L12.3723 19.9416L35.9773 4.15827Z" fill="url(#paint1_linear_7_14116)"></path><path d="M12.7375 27.6343L27.8804 35.5441L53.9438 18.1246V17.8443C53.8915 16.5551 53.5081 15.3021 52.8315 14.2096C52.155 13.1171 51.2089 12.223 50.0869 11.6159L27.3726 26.8027L23.3286 24.7868L46.1943 9.56396L39.8254 6.19214L12.5861 24.4072L12.7375 27.6343Z" fill="url(#paint2_linear_7_14116)"></path><path d="M88.9743 32.0636H76.4694C76.5631 34.0772 77.1017 35.6051 78.0852 36.6474C79.0687 37.6661 80.4621 38.1754 82.2652 38.1754C84.2557 38.1754 86.0822 37.4884 87.7449 36.1144L88.6933 38.2109C87.9439 38.9216 86.9838 39.4902 85.8129 39.9166C84.6421 40.3193 83.4478 40.5207 82.2301 40.5207C79.5605 40.5207 77.4529 39.7271 75.9074 38.1399C74.3853 36.5527 73.6242 34.3614 73.6242 31.5661C73.6242 29.7894 73.9638 28.2259 74.6429 26.8756C75.322 25.5016 76.2704 24.4356 77.4881 23.6775C78.7292 22.9195 80.1342 22.5405 81.7032 22.5405C83.9747 22.5405 85.7544 23.2985 87.0424 24.8146C88.3303 26.3071 88.9743 28.368 88.9743 30.9975V32.0636ZM81.7383 24.7791C80.2396 24.7791 79.0336 25.2529 78.1203 26.2005C77.2305 27.148 76.7036 28.4865 76.5397 30.2158H86.4803C86.4335 28.4628 86.0003 27.1243 85.1807 26.2005C84.3611 25.2529 83.2136 24.7791 81.7383 24.7791ZM101.772 22.5405C105.871 22.5405 107.92 24.8265 107.92 29.3985V40.2719H105.074V29.5762C105.074 27.9653 104.758 26.7927 104.126 26.0583C103.517 25.324 102.534 24.9568 101.175 24.9568C99.6064 24.9568 98.3535 25.4424 97.4168 26.4137C96.4801 27.3849 96.0118 28.6997 96.0118 30.3579V40.2719H93.1666V22.9669H95.9767V25.8096C96.5387 24.7436 97.3232 23.9381 98.3301 23.3933C99.3371 22.8247 100.485 22.5405 101.772 22.5405ZM128.445 22.9669V39.0993C128.445 41.6814 127.79 43.624 126.478 44.9269C125.167 46.2535 123.223 46.9168 120.647 46.9168C117.65 46.9168 115.133 46.135 113.095 44.5715L114.044 42.4395C115.191 43.1975 116.268 43.7424 117.275 44.074C118.282 44.4057 119.406 44.5715 120.647 44.5715C122.287 44.5715 123.528 44.1214 124.371 43.2212C125.214 42.3447 125.635 41.0537 125.635 39.348V36.2921C125.144 37.4055 124.383 38.2583 123.352 38.8506C122.345 39.4428 121.151 39.7389 119.769 39.7389C118.271 39.7389 116.936 39.3836 115.765 38.6729C114.617 37.9622 113.716 36.9554 113.06 35.6525C112.428 34.3496 112.112 32.8453 112.112 31.1397C112.112 29.4341 112.428 27.9298 113.06 26.6269C113.716 25.324 114.617 24.3172 115.765 23.6065C116.936 22.8958 118.271 22.5405 119.769 22.5405C121.128 22.5405 122.31 22.8366 123.317 23.4288C124.324 24.021 125.085 24.862 125.6 25.9517V22.9669H128.445ZM120.331 37.3581C121.971 37.3581 123.258 36.8133 124.195 35.7236C125.132 34.6102 125.6 33.0822 125.6 31.1397C125.6 29.2208 125.132 27.7166 124.195 26.6269C123.282 25.5135 121.994 24.9568 120.331 24.9568C118.669 24.9568 117.357 25.5135 116.397 26.6269C115.461 27.7166 114.992 29.2208 114.992 31.1397C114.992 33.0822 115.461 34.6102 116.397 35.7236C117.357 36.8133 118.669 37.3581 120.331 37.3581ZM133.712 40.2719V22.9669H136.557V40.2719H133.712ZM133.431 15.4692H136.873V18.7028H133.431V15.4692ZM150.307 37.216C150.822 37.216 151.36 37.1805 151.923 37.1094L151.712 40.414C151.009 40.4851 150.365 40.5207 149.78 40.5207C147.368 40.5207 145.588 39.964 144.441 38.8506C143.293 37.7135 142.719 36.0315 142.719 33.8047V26.236H139.418V22.8958H142.719V17.7078H147.11V22.8958H151.641V26.236H147.11V33.7337C147.11 36.0552 148.176 37.216 150.307 37.216ZM169.56 32.3834H157.864C158.004 33.9942 158.484 35.1906 159.304 35.9723C160.123 36.7541 161.294 37.1449 162.816 37.1449C164.713 37.1449 166.446 36.529 168.015 35.2972L169.279 38.3531C168.483 39.0164 167.476 39.5494 166.259 39.9521C165.064 40.3548 163.858 40.5562 162.641 40.5562C159.831 40.5562 157.606 39.7507 155.967 38.1399C154.351 36.529 153.543 34.3259 153.543 31.5306C153.543 29.7539 153.894 28.1785 154.597 26.8045C155.299 25.4306 156.283 24.3645 157.547 23.6065C158.835 22.8484 160.287 22.4694 161.903 22.4694C164.268 22.4694 166.13 23.2393 167.488 24.7791C168.87 26.3189 169.56 28.4391 169.56 31.1397V32.3834ZM162.008 25.5964C160.838 25.5964 159.889 25.9754 159.163 26.7335C158.461 27.4915 158.027 28.5812 157.864 30.0026H165.802C165.755 28.5575 165.404 27.4678 164.748 26.7335C164.093 25.9754 163.179 25.5964 162.008 25.5964ZM180.985 40.5562C179.182 40.5562 177.613 40.189 176.278 39.4546C174.967 38.7203 173.96 37.6779 173.257 36.3276C172.555 34.9774 172.204 33.402 172.204 31.6016C172.204 29.8012 172.567 28.2141 173.293 26.8401C174.042 25.4424 175.096 24.3645 176.454 23.6065C177.812 22.8484 179.381 22.4694 181.161 22.4694C182.379 22.4694 183.561 22.6707 184.709 23.0735C185.879 23.4525 186.816 23.9737 187.519 24.637L186.254 27.764C185.528 27.1717 184.755 26.7216 183.936 26.4137C183.14 26.1057 182.343 25.9517 181.547 25.9517C180.025 25.9517 178.843 26.4374 178 27.4086C177.156 28.3562 176.735 29.7302 176.735 31.5306C176.735 33.3073 177.156 34.6812 178 35.6525C178.843 36.6001 180.025 37.0739 181.547 37.0739C182.343 37.0739 183.14 36.9199 183.936 36.6119C184.755 36.304 185.528 35.8539 186.254 35.2616L187.519 38.3531C186.769 39.0401 185.809 39.5849 184.638 39.9876C183.467 40.3667 182.25 40.5562 180.985 40.5562ZM200.279 22.4694C202.34 22.4694 203.874 23.0616 204.881 24.2461C205.888 25.4306 206.391 27.2191 206.391 29.6117V40.2719H202.001V29.8605C202.001 28.5102 201.743 27.5271 201.228 26.9111C200.736 26.2952 199.952 25.9873 198.874 25.9873C197.61 25.9873 196.591 26.39 195.818 27.1954C195.069 28.0008 194.694 29.0787 194.694 30.429V40.2719H190.304V15.2205H194.694V25.3121C195.28 24.3882 196.053 23.6894 197.013 23.2156C197.996 22.7181 199.085 22.4694 200.279 22.4694Z" fill="#0A1636"></path><defs><linearGradient id="paint0_linear_7_14116" x1="35.4188" y1="18.0631" x2="12.5073" y2="53.6535" gradientUnits="userSpaceOnUse"><stop stop-color="#0FD2ED"></stop><stop offset="1" stop-color="#008DF3"></stop></linearGradient><linearGradient id="paint1_linear_7_14116" x1="35.4188" y1="18.0632" x2="12.5073" y2="53.6536" gradientUnits="userSpaceOnUse"><stop stop-color="#0FD2ED"></stop><stop offset="1" stop-color="#008DF3"></stop></linearGradient><linearGradient id="paint2_linear_7_14116" x1="35.4188" y1="18.0631" x2="12.5073" y2="53.6535" gradientUnits="userSpaceOnUse"><stop stop-color="#0FD2ED"></stop><stop offset="1" stop-color="#008DF3"></stop></linearGradient></defs></svg>