<svg xmlns="http://www.w3.org/2000/svg" width="209" height="61" viewBox="0 0 209 61" fill="none"><path d="M28.112 40.0009L12.9691 32.0731L13.3611 39.7749L28.4059 47.8202L47.2098 36.0053L47.3968 40.2902L28.5039 52.2135L9.6288 42.1072L8.13231 10.6309L3.50931 13.623C2.42347 14.3219 1.53867 15.2993 0.944327 16.4564C0.349983 17.6135 0.0671595 18.9093 0.12444 20.213L1.10427 43.1648C1.16015 44.468 1.55351 45.7333 2.24471 46.8331C2.93592 47.9329 3.90055 48.8283 5.04141 49.4293L25.1101 60.042C26.2504 60.6466 27.5275 60.9357 28.8129 60.8806C30.0983 60.8249 31.3467 60.4263 32.4321 59.7257L51.5299 47.3863C52.6119 46.6834 53.4937 45.7052 54.0876 44.549C54.6814 43.3929 54.9666 42.0991 54.9148 40.7964L54.1309 22.5994L28.112 40.0009Z" fill="url(#paint0_linear_62_85)"></path><path d="M35.9774 4.15827L29.9202 0.95821C28.7792 0.354798 27.5016 0.0671737 26.2162 0.124305C24.9308 0.181436 23.6829 0.581305 22.5982 1.28364L11.8112 8.25325L12.3724 19.9416L35.9774 4.15827Z" fill="url(#paint1_linear_62_85)"></path><path d="M12.7376 27.6346L27.8804 35.5443L53.9439 18.1248V17.8446C53.8915 16.5553 53.5081 15.3023 52.8316 14.2099C52.155 13.1174 51.2089 12.2233 50.0869 11.6162L27.3727 26.8029L23.3287 24.7871L46.1943 9.5642L39.8254 6.19238L12.5862 24.4074L12.7376 27.6346Z" fill="url(#paint2_linear_62_85)"></path><path d="M85.9743 32.0633H73.4695C73.5631 34.0769 74.1017 35.6049 75.0853 36.6472C76.0688 37.6658 77.4621 38.1752 79.2653 38.1752C81.2558 38.1752 83.0823 37.4882 84.7449 36.1142L85.6933 38.2107C84.944 38.9214 83.9839 39.4899 82.813 39.9163C81.6421 40.319 80.4479 40.5204 79.2302 40.5204C76.5606 40.5204 74.453 39.7268 72.9075 38.1396C71.3853 36.5524 70.6243 34.3612 70.6243 31.5658C70.6243 29.7891 70.9638 28.2257 71.6429 26.8754C72.322 25.5014 73.2704 24.4354 74.4881 23.6773C75.7293 22.9192 77.1343 22.5402 78.7033 22.5402C80.9747 22.5402 82.7545 23.2983 84.0424 24.8144C85.3304 26.3068 85.9743 28.3678 85.9743 30.9973V32.0633ZM78.7384 24.7789C77.2397 24.7789 76.0337 25.2526 75.1204 26.2002C74.2305 27.1478 73.7037 28.4862 73.5397 30.2156H83.4804C83.4336 28.4625 83.0003 27.1241 82.1807 26.2002C81.3611 25.2526 80.2137 24.7789 78.7384 24.7789ZM98.7725 22.5402C102.871 22.5402 104.92 24.8262 104.92 29.3983V40.2717H102.074V29.5759C102.074 27.9651 101.758 26.7924 101.126 26.0581C100.517 25.3237 99.5336 24.9565 98.1754 24.9565C96.6064 24.9565 95.3536 25.4422 94.4169 26.4134C93.4802 27.3847 93.0119 28.6994 93.0119 30.3577V40.2717H90.1666V22.9666H92.9767V25.8093C93.5387 24.7433 94.3232 23.9379 95.3302 23.393C96.3371 22.8245 97.4846 22.5402 98.7725 22.5402ZM125.445 22.9666V39.099C125.445 41.6812 124.79 43.6237 123.478 44.9266C122.167 46.2532 120.223 46.9165 117.648 46.9165C114.65 46.9165 112.133 46.1348 110.095 44.5713L111.044 42.4392C112.191 43.1973 113.268 43.7422 114.275 44.0738C115.282 44.4055 116.406 44.5713 117.648 44.5713C119.287 44.5713 120.528 44.1212 121.371 43.221C122.214 42.3445 122.635 41.0534 122.635 39.3478V36.2919C122.144 37.4053 121.383 38.2581 120.352 38.8503C119.345 39.4425 118.151 39.7387 116.769 39.7387C115.271 39.7387 113.936 39.3833 112.765 38.6726C111.618 37.962 110.716 36.9552 110.06 35.6523C109.428 34.3493 109.112 32.8451 109.112 31.1394C109.112 29.4338 109.428 27.9295 110.06 26.6266C110.716 25.3237 111.618 24.3169 112.765 23.6062C113.936 22.8956 115.271 22.5402 116.769 22.5402C118.128 22.5402 119.31 22.8363 120.317 23.4286C121.324 24.0208 122.085 24.8618 122.6 25.9515V22.9666H125.445ZM117.331 37.3579C118.971 37.3579 120.259 36.813 121.195 35.7233C122.132 34.6099 122.6 33.082 122.6 31.1394C122.6 29.2206 122.132 27.7163 121.195 26.6266C120.282 25.5132 118.994 24.9565 117.331 24.9565C115.669 24.9565 114.357 25.5132 113.397 26.6266C112.461 27.7163 111.992 29.2206 111.992 31.1394C111.992 33.082 112.461 34.6099 113.397 35.7233C114.357 36.813 115.669 37.3579 117.331 37.3579ZM130.712 40.2717V22.9666H133.557V40.2717H130.712ZM130.431 15.469H133.873V18.7025H130.431V15.469ZM147.307 37.2157C147.822 37.2157 148.361 37.1802 148.923 37.1091L148.712 40.4138C148.009 40.4849 147.365 40.5204 146.78 40.5204C144.368 40.5204 142.588 39.9637 141.441 38.8503C140.293 37.7132 139.72 36.0313 139.72 33.8045V26.2357H136.418V22.8956H139.72V17.7076H144.11V22.8956H148.642V26.2357H144.11V33.7334C144.11 36.055 145.176 37.2157 147.307 37.2157ZM166.561 32.3831H154.864C155.004 33.994 155.484 35.1903 156.304 35.9721C157.123 36.7538 158.294 37.1447 159.816 37.1447C161.713 37.1447 163.446 36.5288 165.015 35.2969L166.28 38.3528C165.483 39.0161 164.476 39.5491 163.259 39.9519C162.064 40.3546 160.858 40.5559 159.641 40.5559C156.831 40.5559 154.606 39.7505 152.967 38.1396C151.351 36.5288 150.543 34.3257 150.543 31.5303C150.543 29.7536 150.894 28.1783 151.597 26.8043C152.299 25.4303 153.283 24.3643 154.547 23.6062C155.835 22.8482 157.287 22.4691 158.903 22.4691C161.268 22.4691 163.13 23.239 164.488 24.7789C165.87 26.3187 166.561 28.4389 166.561 31.1394V32.3831ZM159.008 25.5961C157.838 25.5961 156.889 25.9752 156.163 26.7332C155.461 27.4913 155.027 28.581 154.864 30.0023H162.802C162.755 28.5573 162.404 27.4676 161.748 26.7332C161.093 25.9752 160.179 25.5961 159.008 25.5961ZM177.985 40.5559C176.182 40.5559 174.613 40.1888 173.278 39.4544C171.967 38.72 170.96 37.6777 170.258 36.3274C169.555 34.9771 169.204 33.4018 169.204 31.6014C169.204 29.801 169.567 28.2138 170.293 26.8398C171.042 25.4422 172.096 24.3643 173.454 23.6062C174.812 22.8482 176.381 22.4691 178.161 22.4691C179.379 22.4691 180.561 22.6705 181.709 23.0732C182.88 23.4523 183.816 23.9734 184.519 24.6367L183.254 27.7637C182.528 27.1715 181.755 26.7214 180.936 26.4134C180.14 26.1055 179.343 25.9515 178.547 25.9515C177.025 25.9515 175.843 26.4371 175 27.4084C174.157 28.3559 173.735 29.7299 173.735 31.5303C173.735 33.307 174.157 34.681 175 35.6523C175.843 36.5998 177.025 37.0736 178.547 37.0736C179.343 37.0736 180.14 36.9196 180.936 36.6117C181.755 36.3037 182.528 35.8536 183.254 35.2614L184.519 38.3528C183.769 39.0398 182.809 39.5847 181.638 39.9874C180.468 40.3664 179.25 40.5559 177.985 40.5559ZM197.279 22.4691C199.34 22.4691 200.874 23.0614 201.881 24.2458C202.888 25.4303 203.391 27.2189 203.391 29.6115V40.2717H199.001V29.8602C199.001 28.5099 198.743 27.5268 198.228 26.9109C197.736 26.295 196.952 25.987 195.874 25.987C194.61 25.987 193.591 26.3897 192.818 27.1952C192.069 28.0006 191.694 29.0785 191.694 30.4288V40.2717H187.304V15.2202H191.694V25.3119C192.28 24.388 193.053 23.6891 194.013 23.2154C194.996 22.7179 196.085 22.4691 197.279 22.4691Z" fill="white"></path><defs><linearGradient id="paint0_linear_62_85" x1="35.4188" y1="18.0633" x2="12.5073" y2="53.6538" gradientUnits="userSpaceOnUse"><stop stop-color="#0FD2ED"></stop><stop offset="1" stop-color="#008DF3"></stop></linearGradient><linearGradient id="paint1_linear_62_85" x1="35.4188" y1="18.0632" x2="12.5073" y2="53.6536" gradientUnits="userSpaceOnUse"><stop stop-color="#0FD2ED"></stop><stop offset="1" stop-color="#008DF3"></stop></linearGradient><linearGradient id="paint2_linear_62_85" x1="35.4188" y1="18.0633" x2="12.5073" y2="53.6538" gradientUnits="userSpaceOnUse"><stop stop-color="#0FD2ED"></stop><stop offset="1" stop-color="#008DF3"></stop></linearGradient></defs></svg>