<?xml version="1.0" encoding="UTF-8"?>
<!-- Generator: Adobe Illustrator 22.0.0, SVG Export Plug-In . SVG Version: 6.00 Build 0)  -->
<svg version="1.1" id="Layer_1" xmlns="http://www.w3.org/2000/svg" xmlns:xlink="http://www.w3.org/1999/xlink" x="0px" y="0px" viewBox="0 0 991.8 827.5" style="enable-background:new 0 0 991.8 827.5;" xml:space="preserve">
<style type="text/css">
	.st0{fill:#00CC66;}
	.st1{fill:none;stroke:#92F4BE;stroke-width:6.0788;stroke-linecap:round;stroke-miterlimit:10;}
	.st2{opacity:0.78;}
	.st3{fill:#92F4BE;}
	.st4{fill:#35ED8C;}
	.st5{opacity:0.54;}
	.st6{fill:none;}
	.st7{fill:#C3DDDC;}
	.st8{fill:#003459;}
	.st9{fill:#00E1FE;}
	.st10{fill:#EDF4F3;}
	.st11{opacity:0.17;}
	.st12{fill:#1A1F21;}
	.st13{opacity:0.42;}
	.st14{fill:#03324F;}
	.st15{fill:#134863;}
	.st16{fill:#FF3366;}
	.st17{fill:#007EA7;}
	.st18{fill:#9BA6AA;}
	.st19{opacity:0.85;}
	.st20{fill:#CFDEE8;}
	.st21{fill:#F75C03;}
	.st22{fill:#F1C40F;}
	.st23{opacity:0.84;}
	.st24{fill:#0085FB;}
	.st25{fill:#EBF6FC;}
	.st26{fill:none;stroke:#EBF6FC;stroke-width:4.0525;stroke-linecap:round;stroke-miterlimit:10;}
	.st27{fill:#FAFDFF;}
	.st28{opacity:0.75;}
	.st29{opacity:0.74;}
	.st30{fill:#E3FCFA;}
	.st31{fill:#FFE000;}
	.st32{fill:#8CB5B1;}
</style>
<g>
	<g>
		<g>
			<path class="st0" d="M960.5,408.7l-0.2-0.1c-7.3-3.8-17.1-3-28,3.2c-11.3,6.5-21.5,17.7-28.8,30.5c-7.2,12.5-11.5,26.6-11.5,39.3     c0,1.8,0.1,3.5,0.3,5.2l-0.3,0L534.1,282.2c-2.9,1.5-5.8,2.6-8.5,3.2L26.2,574.8c-6.1,3.5-6.1,12.4,0,15.9l377,215.5     c2.8,1.6,6.3,1.6,9.1,0l520.2-301.4c10.9-6.3,20.7-16.9,27.9-29.1h0c7.7-12.9,12.4-27.5,12.4-40.7     C972.8,421.8,968.1,412.7,960.5,408.7z"/>
		</g>
	</g>
	<g>
		<g>
			<path class="st1" d="M844.4,506.9"/>
		</g>
	</g>
	<g>
		<g>
			<path class="st1" d="M539.7,330.2"/>
		</g>
	</g>
	<g>
		<g>
			<path class="st1" d="M844.4,506.9"/>
		</g>
	</g>
	<g>
		<g>
			<path class="st1" d="M539.7,330.2"/>
		</g>
	</g>
	<g>
		<g>
			<path class="st1" d="M844.4,506.9"/>
		</g>
	</g>
	<g>
		<g>
			<path class="st1" d="M539.7,330.2"/>
		</g>
	</g>
	<g>
		<g>
			<path class="st1" d="M844.4,506.9"/>
		</g>
	</g>
	<g>
		<g>
			<path class="st1" d="M539.7,330.2"/>
		</g>
	</g>
	<g class="st2">
		<g>
			<g>
				<path class="st3" d="M406.9,759.7c-0.3,0-0.7-0.1-1-0.3L101.1,582.7c-1-0.6-1.3-1.8-0.7-2.8c0.6-1,1.8-1.3,2.8-0.7l304.7,176.7      c1,0.6,1.3,1.8,0.7,2.8C408.3,759.4,407.6,759.7,406.9,759.7z"/>
			</g>
		</g>
		<g>
			<g>
				<path class="st3" d="M446.7,736.9c-0.3,0-0.7-0.1-1-0.3L140.9,559.9c-1-0.6-1.3-1.8-0.7-2.8c0.6-1,1.8-1.3,2.8-0.7l304.7,176.7      c1,0.6,1.3,1.8,0.7,2.8C448,736.6,447.4,736.9,446.7,736.9z"/>
			</g>
		</g>
		<g>
			<g>
				<path class="st3" d="M486.4,714.1c-0.3,0-0.7-0.1-1-0.3L180.7,537.1c-1-0.6-1.3-1.8-0.7-2.8c0.6-1,1.8-1.3,2.8-0.7l304.7,176.7      c1,0.6,1.3,1.8,0.7,2.8C487.8,713.8,487.1,714.1,486.4,714.1z"/>
			</g>
		</g>
		<g>
			<g>
				<path class="st3" d="M526.2,691.3c-0.3,0-0.7-0.1-1-0.3L220.4,514.3c-1-0.6-1.3-1.8-0.7-2.8c0.6-1,1.8-1.3,2.8-0.7l304.7,176.7      c1,0.6,1.3,1.8,0.7,2.8C527.6,691,526.9,691.3,526.2,691.3z"/>
			</g>
		</g>
		<g>
			<g>
				<path class="st3" d="M566,668.5c-0.3,0-0.7-0.1-1-0.3L260.2,491.5c-1-0.6-1.3-1.8-0.7-2.8c0.6-1,1.8-1.3,2.8-0.7L567,664.8      c1,0.6,1.3,1.8,0.7,2.8C567.4,668.2,566.7,668.5,566,668.5z"/>
			</g>
		</g>
		<g>
			<g>
				<path class="st3" d="M605.8,645.7c-0.3,0-0.7-0.1-1-0.3L300,468.7c-1-0.6-1.3-1.8-0.7-2.8c0.6-1,1.8-1.3,2.8-0.7L606.8,642      c1,0.6,1.3,1.8,0.7,2.8C607.1,645.4,606.5,645.7,605.8,645.7z"/>
			</g>
		</g>
		<g>
			<g>
				<path class="st3" d="M645.5,622.9c-0.3,0-0.7-0.1-1-0.3L339.8,445.9c-1-0.6-1.3-1.8-0.7-2.8s1.8-1.3,2.8-0.7l304.7,176.7      c1,0.6,1.3,1.8,0.7,2.8C646.9,622.6,646.2,622.9,645.5,622.9z"/>
			</g>
		</g>
		<g>
			<g>
				<path class="st3" d="M685.3,600.2c-0.3,0-0.7-0.1-1-0.3L379.6,423.2c-1-0.6-1.3-1.8-0.7-2.8c0.6-1,1.8-1.3,2.8-0.7l304.7,176.7      c1,0.6,1.3,1.8,0.7,2.8C686.7,599.8,686,600.2,685.3,600.2z"/>
			</g>
		</g>
		<g>
			<g>
				<path class="st3" d="M725.1,577.4c-0.3,0-0.7-0.1-1-0.3L419.3,400.4c-1-0.6-1.3-1.8-0.7-2.8c0.6-1,1.8-1.3,2.8-0.7l304.7,176.7      c1,0.6,1.3,1.8,0.7,2.8C726.5,577,725.8,577.4,725.1,577.4z"/>
			</g>
		</g>
		<g>
			<g>
				<path class="st3" d="M764.9,554.6c-0.3,0-0.7-0.1-1-0.3L459.1,377.6c-1-0.6-1.3-1.8-0.7-2.8c0.6-1,1.8-1.3,2.8-0.7l304.7,176.7      c1,0.6,1.3,1.8,0.7,2.8C766.2,554.2,765.6,554.6,764.9,554.6z"/>
			</g>
		</g>
		<g>
			<g>
				<path class="st3" d="M804.6,531.8c-0.3,0-0.7-0.1-1-0.3L498.9,354.8c-1-0.6-1.3-1.8-0.7-2.8c0.6-1,1.8-1.3,2.8-0.7L805.7,528      c1,0.6,1.3,1.8,0.7,2.8C806,531.4,805.3,531.8,804.6,531.8z"/>
			</g>
		</g>
		<g>
			<g>
				<path class="st3" d="M844.4,509c-0.3,0-0.7-0.1-1-0.3L538.7,332c-1-0.6-1.3-1.8-0.7-2.8c0.6-1,1.8-1.3,2.8-0.7l304.7,176.7      c1,0.6,1.3,1.8,0.7,2.8C845.8,508.6,845.1,509,844.4,509z"/>
			</g>
		</g>
		<g>
			<g>
				<path class="st3" d="M102.1,583c-0.7,0-1.4-0.4-1.8-1c-0.6-1-0.2-2.2,0.7-2.8L577,305.1c1-0.6,2.2-0.2,2.8,0.7s0.2,2.2-0.7,2.8      L103.1,582.7C102.8,582.9,102.5,583,102.1,583z"/>
			</g>
		</g>
		<g>
			<g>
				<path class="st3" d="M147.2,608.3c-0.7,0-1.4-0.4-1.8-1c-0.6-1-0.2-2.2,0.8-2.8l476.4-273c1-0.6,2.2-0.2,2.8,0.8      c0.6,1,0.2,2.2-0.8,2.8l-476.4,273C147.9,608.3,147.5,608.3,147.2,608.3z"/>
			</g>
		</g>
		<g>
			<g>
				<path class="st3" d="M192.2,633.7c-0.7,0-1.4-0.4-1.8-1c-0.6-1-0.2-2.2,0.7-2.8L667.9,353c1-0.6,2.2-0.2,2.8,0.7      c0.6,1,0.2,2.2-0.7,2.8L193.2,633.4C192.9,633.6,192.6,633.7,192.2,633.7z"/>
			</g>
		</g>
		<g>
			<g>
				<path class="st3" d="M237.2,659c-0.7,0-1.4-0.4-1.8-1c-0.6-1-0.2-2.2,0.7-2.8l474.9-277.3c1-0.6,2.2-0.2,2.8,0.7      c0.6,1,0.2,2.2-0.7,2.8L238.3,658.7C237.9,658.9,237.6,659,237.2,659z"/>
			</g>
		</g>
		<g>
			<g>
				<path class="st3" d="M277.4,684.4c-0.7,0-1.4-0.4-1.8-1c-0.6-1-0.2-2.2,0.8-2.8l481.8-276.1c1-0.6,2.2-0.2,2.8,0.8      c0.6,1,0.2,2.2-0.8,2.8L278.4,684.1C278.1,684.3,277.7,684.4,277.4,684.4z"/>
			</g>
		</g>
		<g>
			<g>
				<path class="st3" d="M320.9,709.7c-0.7,0-1.4-0.4-1.8-1c-0.6-1-0.2-2.2,0.8-2.8l478.1-274c1-0.6,2.2-0.2,2.8,0.8      c0.6,1,0.2,2.2-0.8,2.8l-478.1,274C321.6,709.6,321.3,709.7,320.9,709.7z"/>
			</g>
		</g>
		<g>
			<g>
				<path class="st3" d="M365.9,735c-0.7,0-1.4-0.4-1.8-1c-0.6-1-0.2-2.2,0.7-2.8L840.2,456c1-0.6,2.2-0.2,2.8,0.7      c0.6,1,0.2,2.2-0.7,2.8L367,734.8C366.6,734.9,366.3,735,365.9,735z"/>
			</g>
		</g>
		<g>
			<g>
				<path class="st3" d="M406.9,759.7c-0.7,0-1.4-0.4-1.8-1c-0.6-1-0.2-2.2,0.8-2.8l476.9-273.3c1-0.6,2.2-0.2,2.8,0.8      c0.6,1,0.2,2.2-0.8,2.8L407.9,759.5C407.6,759.6,407.2,759.7,406.9,759.7z"/>
			</g>
		</g>
	</g>
	<g>
		<g>
			<path class="st4" d="M567.4,186.4c-7.4-5.8-18.5-5.8-30.9,1.4c-22.3,12.9-40.4,44.2-40.3,69.8l0,0c0,1.8,0.9,3.4,2.5,4.3l34,19.5     l1.5,0.8L892,486.8l0.3,0c-0.2-1.6-0.3-3.4-0.3-5.2c0-12.7,4.4-26.8,11.5-39.3c7.3-12.8,17.5-24,28.8-30.5     c10.8-6.3,20.7-7,28-3.2L567.4,186.4z"/>
		</g>
	</g>
	<g>
		<g>
			<g>
				<path class="st3" d="M960.5,478.6c-0.5,0-1.1-0.1-1.5-0.4c-1.4-0.9-1.9-2.7-1.1-4.2c7.7-13,12-26.9,11.9-39.2      c0-11.5-3.8-19.8-10.7-23.6l-0.2-0.1c-1.5-0.8-2.1-2.6-1.4-4.1s2.6-2.1,4.1-1.4l0.2,0.1c9,4.9,14,15.1,14,28.9      c0,13.3-4.5,28.3-12.8,42.3C962.5,478.1,961.5,478.6,960.5,478.6z"/>
			</g>
		</g>
		<g>
			<g>
				<path class="st3" d="M407.8,810.4c-2.1,0-4.2-0.5-6-1.6c-1.5-0.8-2-2.7-1.1-4.1c0.8-1.5,2.7-2,4.1-1.1c1.9,1.1,4.2,1.1,6.1,0      l520.2-301.4c10.1-5.8,19.6-15.8,26.8-28c0.9-1.4,2.7-1.9,4.2-1.1c1.4,0.9,1.9,2.7,1.1,4.2c-7.7,13.1-18.1,23.8-29,30.2      L413.9,808.8C412,809.8,409.9,810.4,407.8,810.4z"/>
			</g>
		</g>
		<g>
			<g>
				<path class="st3" d="M892,489.8c-1.5,0-2.8-1.1-3-2.6c-0.1-0.5,0-1,0.1-1.5c-0.1-1.4-0.2-2.8-0.2-4.2c0-12.8,4.2-27.3,11.9-40.8      c7.9-13.8,18.5-25.1,29.9-31.6c11.4-6.6,22.4-7.8,30.9-3.3c1.5,0.8,2.1,2.6,1.3,4.1c-0.8,1.5-2.6,2.1-4.1,1.3      c-6.6-3.5-15.5-2.3-25.1,3.2c-10.5,6-20.3,16.5-27.7,29.4c-7.2,12.6-11.1,26-11.1,37.8c0,1.6,0.1,3.3,0.3,4.8l0.3,2.9l-3.2,0.5      C892.3,489.8,892.1,489.8,892,489.8z"/>
			</g>
		</g>
	</g>
	<g class="st5">
		<g>
			<path class="st6" d="M496.2,257.7c0,1.8,1,3.4,2.5,4.3l34,19.4l1.5,0.8L892,486.8l0.3,0"/>
		</g>
	</g>
</g>
<g>
	<g>
		<path class="st7" d="M70.6,232.1v260.5c0,9.7,10.4,15.7,18.8,10.9l328.9-187.4c3.9-2.2,6.4-6.4,6.4-10.9V43.4    c0-17.7-19.1-28.9-34.6-20.2L95.4,189.6C80,198.3,70.6,214.5,70.6,232.1z"/>
	</g>
</g>
<g>
	<g>
		<path class="st8" d="M79.1,237.7v254.7c0,5.1,5.5,8.3,9.9,5.7L433.2,302V42.3c0-13.2-14.2-21.4-25.7-15L100.9,200.4    C87.4,208,79.1,222.3,79.1,237.7z"/>
	</g>
</g>
<g>
	<g>
		<path class="st9" d="M89.3,260.3l1,219.2c0,3.3,3.6,5.3,6.4,3.6L418.2,293c2.4-1.4,3.8-3.9,3.8-6.7l0.9-217.6    c0-5.9-6.4-9.6-11.5-6.7l-308,173.9C94.7,240.9,89.3,250.2,89.3,260.3z"/>
	</g>
</g>
<g>
	<g>
		<circle class="st10" cx="257.1" cy="132.4" r="3.1"/>
	</g>
</g>
<g class="st11">
	<g>
		<path class="st12" d="M94.3,554.4l214.2,121.8c10.8,6.2,24.1,6.1,34.9,0L661.9,494c5.6-3.2,5.6-11.2,0.1-14.5l-226.3-134    c-2.6-1.5-5.9-1.6-8.5,0l-333,194.4C88.6,543.1,88.7,551.2,94.3,554.4z"/>
	</g>
</g>
<g>
	<g>
		<path class="st7" d="M94.3,524.4l214.2,121.8c10.8,6.2,24.1,6.1,34.9,0L661.9,464c5.6-3.2,5.6-11.2,0.1-14.5l-226.3-134    c-2.6-1.5-5.9-1.6-8.5,0l-333,194.4C88.6,513.1,88.7,521.2,94.3,524.4z"/>
	</g>
</g>
<g>
	<g>
		<path class="st7" d="M94.3,519.5l214.2,121.8c10.8,6.2,24.1,6.1,34.9,0l318.5-182.1c5.6-3.2,5.6-11.2,0.1-14.5l-226.3-134    c-2.6-1.5-5.9-1.6-8.5,0L94.2,505C88.6,508.3,88.7,516.4,94.3,519.5z"/>
	</g>
</g>
<g>
	<g>
		<path class="st10" d="M91.8,510.9L306,632.7c10.8,6.2,24.1,6.1,34.9,0l318.5-182.1c5.6-3.2,5.6-11.2,0.1-14.5L433.2,302    c-2.6-1.5-5.9-1.6-8.5,0l-333,194.4C86.1,499.6,86.2,507.7,91.8,510.9z"/>
	</g>
</g>
<g class="st13">
	<g>
		<path class="st7" d="M134.4,506.2l136.6,78.6c2.4,1.4,5.4,1.4,7.8-0.1l288.4-171.4c5.1-3,5-10.3-0.1-13.3l-137.3-80    c-2.4-1.4-5.4-1.4-7.9,0.1L134.3,492.9C129.3,495.9,129.3,503.3,134.4,506.2z"/>
	</g>
</g>
<g>
	<g>
		<g>
			<g>
				<path class="st14" d="M188.3,504.5l-7.8-4.3c-1.1-0.6-2.5-0.6-3.7,0l-10.5,6c-2.6,1.5-2.5,5.2,0.1,6.6l7.8,4.3      c1.1,0.6,2.5,0.6,3.7,0l10.5-6C190.9,509.6,190.9,505.9,188.3,504.5z"/>
			</g>
		</g>
	</g>
	<g>
		<g>
			<g>
				<path class="st14" d="M219.2,512.8l-5.9-3.3c-1.4-0.8-3.2-0.8-4.6,0.1l-17.6,10.2c-3.2,1.8-3.1,6.4,0.1,8.2l5.9,3.3      c1.4,0.8,3.2,0.8,4.6-0.1l17.6-10.2C222.5,519.1,222.4,514.5,219.2,512.8z"/>
			</g>
		</g>
	</g>
	<g>
		<g>
			<g>
				<path class="st14" d="M254.4,520.8l-7-3.9c-1.3-0.7-2.9-0.7-4.2,0.1l-28.4,16.8c-2.8,1.7-2.7,5.7,0.1,7.3l7,3.9      c1.3,0.7,2.9,0.7,4.2-0.1l28.4-16.8C257.3,526.4,257.2,522.4,254.4,520.8z"/>
			</g>
		</g>
	</g>
	<g>
		<g>
			<g>
				<path class="st14" d="M248.4,495.8l-5.9-3.2c-1.4-0.8-3.2-0.8-4.6,0l-11.7,6.6c-3.2,1.8-3.2,6.4,0,8.2l5.9,3.2      c1.4,0.8,3.2,0.8,4.6,0l11.7-6.6C251.7,502.2,251.6,497.6,248.4,495.8z"/>
			</g>
		</g>
	</g>
	<g>
		<g>
			<g>
				<path class="st14" d="M259,516.1l5.9,3.2c1.4,0.8,3.2,0.8,4.6,0l11.7-6.6c3.2-1.8,3.2-6.4,0-8.2l-5.9-3.2      c-1.4-0.8-3.2-0.8-4.6,0l-11.7,6.6C255.8,509.7,255.8,514.3,259,516.1z"/>
			</g>
		</g>
	</g>
	<g>
		<g>
			<g>
				<path class="st14" d="M296.4,503.1l11.7-6.6c3.2-1.8,3.2-6.4,0-8.2l-5.9-3.2c-1.4-0.8-3.2-0.8-4.6,0l-11.7,6.6      c-3.2,1.8-3.2,6.4,0,8.2l5.9,3.2C293.3,503.9,295,503.9,296.4,503.1z"/>
			</g>
		</g>
	</g>
	<g>
		<g>
			<g>
				<path class="st14" d="M313.5,483.5l5.9,3.2c1.4,0.8,3.2,0.8,4.6,0l11.7-6.6c3.2-1.8,3.2-6.4,0-8.2l-5.9-3.2      c-1.4-0.8-3.2-0.8-4.6,0l-11.7,6.6C310.2,477.1,310.2,481.8,313.5,483.5z"/>
			</g>
		</g>
	</g>
	<g>
		<g>
			<g>
				<path class="st14" d="M351.4,471.8l11.7-6.6c3.2-1.8,3.2-6.4,0-8.2l-5.9-3.2c-1.4-0.8-3.2-0.8-4.6,0l-11.7,6.6      c-3.2,1.8-3.2,6.4,0,8.2l5.9,3.2C348.3,472.6,350,472.6,351.4,471.8z"/>
			</g>
		</g>
	</g>
	<g>
		<g>
			<g>
				<path class="st14" d="M379.7,455.9l11.7-6.6c3.2-1.8,3.2-6.4,0-8.2l-5.9-3.2c-1.4-0.8-3.2-0.8-4.6,0l-11.7,6.6      c-3.2,1.8-3.2,6.4,0,8.2l5.9,3.2C376.5,456.8,378.3,456.7,379.7,455.9z"/>
			</g>
		</g>
	</g>
	<g>
		<g>
			<g>
				<path class="st14" d="M406.9,439.4l11.7-6.6c3.2-1.8,3.2-6.4,0-8.2l-5.9-3.2c-1.4-0.8-3.2-0.8-4.6,0l-11.7,6.6      c-3.2,1.8-3.2,6.4,0,8.2l5.9,3.2C403.8,440.2,405.5,440.2,406.9,439.4z"/>
			</g>
		</g>
	</g>
	<g>
		<g>
			<g>
				<path class="st14" d="M434.6,406l-11.7,6.6c-3.2,1.8-3.2,6.4,0,8.2l5.9,3.2c1.4,0.8,3.2,0.8,4.6,0l11.7-6.6      c3.2-1.8,3.2-6.4,0-8.2l-5.9-3.2C437.7,405.2,436,405.2,434.6,406z"/>
			</g>
		</g>
	</g>
	<g>
		<g>
			<g>
				<path class="st14" d="M262.3,542.4l-5.8-3.3c-1.4-0.8-3.1-0.8-4.6,0l-11.8,6.5c-3.2,1.8-3.3,6.4,0,8.2l5.8,3.3      c1.4,0.8,3.1,0.8,4.6,0l11.8-6.5C265.5,548.9,265.6,544.2,262.3,542.4z"/>
			</g>
		</g>
	</g>
	<g>
		<g>
			<g>
				<path class="st14" d="M267.3,538.5l5.8,3.3c1.4,0.8,3.1,0.8,4.6,0l11.8-6.5c3.2-1.8,3.3-6.4,0-8.2l-5.8-3.3      c-1.4-0.8-3.1-0.8-4.6,0l-11.8,6.5C264.1,532.1,264,536.7,267.3,538.5z"/>
			</g>
		</g>
	</g>
	<g>
		<g>
			<g>
				<path class="st14" d="M316.3,519.2c3.2-1.8,3.3-6.4,0-8.2l-5.8-3.3c-1.4-0.8-3.1-0.8-4.6,0l-11.8,6.5c-3.2,1.8-3.3,6.4,0,8.2      l5.8,3.3c1.4,0.8,3.1,0.8,4.6,0L316.3,519.2z"/>
			</g>
		</g>
	</g>
	<g>
		<g>
			<g>
				<path class="st14" d="M321.3,506.5l5.8,3.3c1.4,0.8,3.1,0.8,4.6,0l11.8-6.5c3.2-1.8,3.3-6.4,0-8.2l-5.8-3.3      c-1.4-0.8-3.1-0.8-4.6,0l-11.8,6.5C318.1,500.1,318,504.7,321.3,506.5z"/>
			</g>
		</g>
	</g>
	<g>
		<g>
			<g>
				<path class="st14" d="M348.4,490.7l5.8,3.3c1.4,0.8,3.1,0.8,4.6,0l11.8-6.5c3.2-1.8,3.3-6.4,0-8.2l-5.8-3.3      c-1.4-0.8-3.1-0.8-4.6,0l-11.8,6.5C345.2,484.2,345.2,488.9,348.4,490.7z"/>
			</g>
		</g>
	</g>
	<g>
		<g>
			<g>
				<path class="st14" d="M402.6,458.9l5.8,3.3c1.4,0.8,3.1,0.8,4.6,0l11.8-6.5c3.2-1.8,3.3-6.4,0-8.2l-5.8-3.3      c-1.4-0.8-3.1-0.8-4.6,0l-11.8,6.5C399.4,452.5,399.4,457.1,402.6,458.9z"/>
			</g>
		</g>
	</g>
	<g>
		<g>
			<g>
				<path class="st14" d="M428.7,444.6l5.8,3.3c1.4,0.8,3.1,0.8,4.6,0l11.8-6.5c3.2-1.8,3.3-6.4,0-8.2l-5.8-3.3      c-1.4-0.8-3.1-0.8-4.6,0l-11.8,6.5C425.5,438.2,425.5,442.8,428.7,444.6z"/>
			</g>
		</g>
	</g>
	<g>
		<g>
			<g>
				<path class="st14" d="M454.7,430.3l5.8,3.3c1.4,0.8,3.1,0.8,4.6,0l11.8-6.5c3.2-1.8,3.3-6.4,0-8.2l-5.8-3.3      c-1.4-0.8-3.1-0.8-4.6,0l-11.8,6.5C451.5,423.9,451.5,428.5,454.7,430.3z"/>
			</g>
		</g>
	</g>
	<g>
		<g>
			<g>
				<path class="st14" d="M480.8,416l5.8,3.3c1.4,0.8,3.1,0.8,4.6,0l11.8-6.5c3.2-1.8,3.3-6.4,0-8.2l-5.8-3.3      c-1.4-0.8-3.1-0.8-4.6,0l-11.8,6.5C477.6,409.6,477.6,414.2,480.8,416z"/>
			</g>
		</g>
	</g>
	<g>
		<g>
			<g>
				<path class="st14" d="M506.8,401.7l5.8,3.3c1.4,0.8,3.1,0.8,4.6,0l11.8-6.5c3.2-1.8,3.3-6.4,0-8.2l-5.8-3.3      c-1.4-0.8-3.1-0.8-4.6,0l-11.8,6.5C503.6,395.2,503.6,399.9,506.8,401.7z"/>
			</g>
		</g>
	</g>
	<g>
		<g>
			<g>
				<path class="st14" d="M299.1,551l-9.4-5.3c-0.9-0.5-2-0.5-2.9,0l-27.4,15.4c-2,1.1-2,4.1,0,5.2l9.4,5.3c0.9,0.5,2,0.5,2.9,0      l27.4-15.4C301.1,555.1,301.1,552.1,299.1,551z"/>
			</g>
		</g>
	</g>
	<g>
		<g>
			<g>
				<path class="st14" d="M327.1,532.8l-5.8-3.3c-1.4-0.8-3.1-0.8-4.6,0l-11.8,6.5c-3.2,1.8-3.3,6.4,0,8.2l5.8,3.3      c1.4,0.8,3.1,0.8,4.6,0l11.8-6.5C330.3,539.3,330.3,534.6,327.1,532.8z"/>
			</g>
		</g>
	</g>
	<g>
		<g>
			<g>
				<path class="st14" d="M354.1,517.6l-5.8-3.3c-1.4-0.8-3.1-0.8-4.6,0l-11.8,6.5c-3.2,1.8-3.3,6.4,0,8.2l5.8,3.3      c1.4,0.8,3.1,0.8,4.6,0l11.8-6.5C357.3,524,357.3,519.4,354.1,517.6z"/>
			</g>
		</g>
	</g>
	<g>
		<g>
			<g>
				<path class="st14" d="M468.8,454.8l-10.2-5.7c-0.8-0.5-1.8-0.4-2.6,0L355.9,507c-1.8,1-1.7,3.6,0,4.5l10.2,5.7      c0.8,0.5,1.8,0.4,2.6,0l100.1-57.9C470.6,458.4,470.6,455.8,468.8,454.8z"/>
			</g>
		</g>
	</g>
	<g>
		<g>
			<g>
				<path class="st14" d="M490.4,438l-5.8-3.3c-1.4-0.8-3.1-0.8-4.6,0l-11.8,6.5c-3.2,1.8-3.3,6.4,0,8.2l5.8,3.3      c1.4,0.8,3.1,0.8,4.6,0l11.8-6.5C493.6,444.4,493.7,439.8,490.4,438z"/>
			</g>
		</g>
	</g>
	<g>
		<g>
			<g>
				<path class="st14" d="M515.5,423.7l-5.8-3.3c-1.4-0.8-3.1-0.8-4.6,0l-11.8,6.5c-3.2,1.8-3.3,6.4,0,8.2l5.8,3.3      c1.4,0.8,3.1,0.8,4.6,0l11.8-6.5C518.7,430.1,518.7,425.5,515.5,423.7z"/>
			</g>
		</g>
	</g>
	<g>
		<g>
			<g>
				<path class="st14" d="M553.8,406.6l-11.2-6.3c-0.6-0.4-1.4-0.4-2.1,0l-22.8,13c-1.4,0.8-1.4,2.9,0,3.7l11.2,6.3      c0.6,0.4,1.4,0.4,2.1,0l22.8-13C555.2,409.5,555.2,407.4,553.8,406.6z"/>
			</g>
		</g>
	</g>
	<g>
		<g>
			<g>
				<path class="st14" d="M457.7,407.9c1.4,0.8,3.2,0.8,4.6,0l11.7-6.6c3.2-1.8,3.2-6.4,0-8.2l-5.9-3.2c-1.4-0.8-3.2-0.8-4.6,0      l-11.7,6.6c-3.2,1.8-3.2,6.4,0,8.2L457.7,407.9z"/>
			</g>
		</g>
	</g>
	<g>
		<g>
			<g>
				<path class="st14" d="M211.8,490.7l-7.8-4.3c-1.1-0.6-2.5-0.6-3.7,0l-10.5,6c-2.6,1.5-2.5,5.2,0.1,6.6l7.8,4.3      c1.1,0.6,2.5,0.6,3.7,0l10.5-6C214.4,495.8,214.3,492.1,211.8,490.7z"/>
			</g>
		</g>
	</g>
	<g>
		<g>
			<g>
				<path class="st14" d="M213.2,485.1l7.8,4.3c1.1,0.6,2.5,0.6,3.7,0l10.5-6c2.6-1.5,2.5-5.2-0.1-6.6l-7.8-4.3      c-1.1-0.6-2.5-0.6-3.7,0l-10.5,6C210.6,480,210.6,483.7,213.2,485.1z"/>
			</g>
		</g>
	</g>
	<g>
		<g>
			<g>
				<path class="st14" d="M252.3,490l7.8,4.3c1.1,0.6,2.5,0.6,3.7,0l10.5-6c2.6-1.5,2.5-5.2-0.1-6.6l-7.8-4.3      c-1.1-0.6-2.5-0.6-3.7,0l-10.5,6C249.7,484.9,249.7,488.6,252.3,490z"/>
			</g>
		</g>
	</g>
	<g>
		<g>
			<g>
				<path class="st14" d="M276.9,476.2l7.8,4.3c1.1,0.6,2.5,0.6,3.7,0l10.5-6c2.6-1.5,2.5-5.2-0.1-6.6l-7.8-4.3      c-1.1-0.6-2.5-0.6-3.7,0l-10.5,6C274.3,471.1,274.3,474.8,276.9,476.2z"/>
			</g>
		</g>
	</g>
	<g>
		<g>
			<g>
				<path class="st14" d="M312.3,466.6l10.5-6c2.6-1.5,2.5-5.2-0.1-6.6l-7.8-4.3c-1.1-0.6-2.5-0.6-3.7,0l-10.5,6      c-2.6,1.5-2.5,5.2,0.1,6.6l7.8,4.3C309.8,467.2,311.2,467.2,312.3,466.6z"/>
			</g>
		</g>
	</g>
	<g>
		<g>
			<g>
				<path class="st14" d="M339.5,435.8c-1.1-0.6-2.5-0.6-3.7,0l-10.5,6c-2.6,1.5-2.5,5.2,0.1,6.6l7.8,4.3c1.1,0.6,2.5,0.6,3.7,0      l10.5-6c2.6-1.5,2.5-5.2-0.1-6.6L339.5,435.8z"/>
			</g>
		</g>
	</g>
	<g>
		<g>
			<g>
				<path class="st14" d="M363.5,421.9c-1.1-0.6-2.5-0.6-3.7,0l-10.5,6c-2.6,1.5-2.5,5.2,0.1,6.6l7.8,4.3c1.1,0.6,2.5,0.6,3.7,0      l10.5-6c2.6-1.5,2.5-5.2-0.1-6.6L363.5,421.9z"/>
			</g>
		</g>
	</g>
	<g>
		<g>
			<g>
				<path class="st14" d="M373.5,420.7l7.8,4.3c1.1,0.6,2.5,0.6,3.7,0l10.5-6c2.6-1.5,2.5-5.2-0.1-6.6l-7.8-4.3      c-1.1-0.6-2.5-0.6-3.7,0l-10.5,6C370.9,415.5,371,419.2,373.5,420.7z"/>
			</g>
		</g>
	</g>
	<g>
		<g>
			<g>
				<path class="st14" d="M410.7,394.2c-1.1-0.6-2.5-0.6-3.7,0l-10.5,6c-2.6,1.5-2.5,5.2,0.1,6.6l7.8,4.3c1.1,0.6,2.5,0.6,3.7,0      l10.5-6c2.6-1.5,2.5-5.2-0.1-6.6L410.7,394.2z"/>
			</g>
		</g>
	</g>
	<g>
		<g>
			<g>
				<path class="st14" d="M443.2,384.6l-7.8-4.3c-1.1-0.6-2.5-0.6-3.7,0l-10.5,6c-2.6,1.5-2.5,5.2,0.1,6.6l7.8,4.3      c1.1,0.6,2.5,0.6,3.7,0l10.5-6C445.8,389.7,445.8,386,443.2,384.6z"/>
			</g>
		</g>
	</g>
	<g>
		<g>
			<g>
				<path class="st14" d="M247.1,458.6l-10.5,6c-2.6,1.5-2.5,5.2,0.1,6.6l7.8,4.3c1.1,0.6,2.5,0.6,3.7,0l10.5-6      c2.6-1.5,2.5-5.2-0.1-6.6l-7.8-4.3C249.6,458,248.2,458,247.1,458.6z"/>
			</g>
		</g>
	</g>
	<g>
		<g>
			<g>
				<path class="st14" d="M283.5,449l-7.8-4.3c-1.1-0.6-2.5-0.6-3.7,0l-10.5,6c-2.6,1.5-2.5,5.2,0.1,6.6l7.8,4.3      c1.1,0.6,2.5,0.6,3.7,0l10.5-6C286.1,454.1,286.1,450.4,283.5,449z"/>
			</g>
		</g>
	</g>
	<g>
		<g>
			<g>
				<path class="st14" d="M284.4,445l7.8,4.3c1.1,0.6,2.5,0.6,3.7,0l10.5-6c2.6-1.5,2.5-5.2-0.1-6.6l-7.8-4.3      c-1.1-0.6-2.5-0.6-3.7,0l-10.5,6C281.8,439.8,281.8,443.5,284.4,445z"/>
			</g>
		</g>
	</g>
	<g>
		<g>
			<g>
				<path class="st14" d="M319,418l-10.5,6c-2.6,1.5-2.5,5.2,0.1,6.6l7.8,4.3c1.1,0.6,2.5,0.6,3.7,0l10.5-6c2.6-1.5,2.5-5.2-0.1-6.6      l-7.8-4.3C321.6,417.3,320.2,417.3,319,418z"/>
			</g>
		</g>
	</g>
	<g>
		<g>
			<g>
				<path class="st14" d="M332.5,417l7.8,4.3c1.1,0.6,2.5,0.6,3.7,0l10.5-6c2.6-1.5,2.5-5.2-0.1-6.6l-7.8-4.3      c-1.1-0.6-2.5-0.6-3.7,0l-10.5,6C329.9,411.9,329.9,415.6,332.5,417z"/>
			</g>
		</g>
	</g>
	<g>
		<g>
			<g>
				<path class="st14" d="M356.3,403l7.8,4.3c1.1,0.6,2.5,0.6,3.7,0l10.5-6c2.6-1.5,2.5-5.2-0.1-6.6l-7.8-4.3      c-1.1-0.6-2.5-0.6-3.7,0l-10.5,6C353.7,397.9,353.8,401.6,356.3,403z"/>
			</g>
		</g>
	</g>
	<g>
		<g>
			<g>
				<path class="st14" d="M401.7,380.9l-7.8-4.3c-1.1-0.6-2.5-0.6-3.7,0l-10.5,6c-2.6,1.5-2.5,5.2,0.1,6.6l7.8,4.3      c1.1,0.6,2.5,0.6,3.7,0l10.5-6C404.4,386,404.3,382.3,401.7,380.9z"/>
			</g>
		</g>
	</g>
	<g>
		<g>
			<g>
				<path class="st14" d="M403.1,375.9l7.8,4.3c1.1,0.6,2.5,0.6,3.7,0l10.5-6c2.6-1.5,2.5-5.2-0.1-6.6l-7.8-4.3      c-1.1-0.6-2.5-0.6-3.7,0l-10.5,6C400.5,370.7,400.5,374.4,403.1,375.9z"/>
			</g>
		</g>
	</g>
	<g>
		<g>
			<g>
				<path class="st14" d="M427.9,354.3c-3.2,1.8-3.2,6.5,0.1,8.3l5.8,3.2c1.5,0.8,3.2,0.8,4.7,0l15.5-8.9c0.1,0,0.1-0.1,1.1-0.8      c2.7-1.9,2.5-6.1-0.4-7.7l-6.2-3.4c-1.4-0.8-3.1-0.7-4.5,0.1c-5.1,3-5.2,3-5.2,3.1L427.9,354.3z"/>
			</g>
		</g>
	</g>
	<g>
		<g>
			<g>
				<path class="st14" d="M172,489.5l-4.8-2.8c-0.9-0.5-2-0.5-2.8,0L145.1,498c-1.9,1.1-1.9,3.9,0,5l4.8,2.8c0.9,0.5,2,0.5,2.8,0      l19.3-11.3C173.9,493.4,173.9,490.6,172,489.5z"/>
			</g>
		</g>
	</g>
	<g>
		<g>
			<g>
				<path class="st14" d="M183.9,480.7l4.8,2.8c0.9,0.5,2,0.5,2.8,0l19.3-11.3c1.9-1.1,1.9-3.9,0-5l-4.8-2.8c-0.9-0.5-2-0.5-2.8,0      l-19.3,11.3C182,476.8,182,479.6,183.9,480.7z"/>
			</g>
		</g>
	</g>
	<g>
		<g>
			<g>
				<path class="st14" d="M222.1,458.4l4.8,2.8c0.9,0.5,2,0.5,2.8,0l19.3-11.3c1.9-1.1,1.9-3.9,0-5l-4.8-2.8c-0.9-0.5-2-0.5-2.8,0      l-19.3,11.3C220.2,454.5,220.2,457.3,222.1,458.4z"/>
			</g>
		</g>
	</g>
	<g>
		<g>
			<g>
				<path class="st14" d="M258.5,437.5l4.8,2.8c0.9,0.5,2,0.5,2.8,0l19.3-11.3c1.9-1.1,1.9-3.9,0-5l-4.8-2.8c-0.9-0.5-2-0.5-2.8,0      l-19.3,11.3C256.6,433.7,256.6,436.4,258.5,437.5z"/>
			</g>
		</g>
	</g>
	<g>
		<g>
			<g>
				<path class="st14" d="M297.5,415l4.8,2.8c0.9,0.5,2,0.5,2.8,0l19.3-11.3c1.9-1.1,1.9-3.9,0-5l-4.8-2.8c-0.9-0.5-2-0.5-2.8,0      l-19.3,11.3C295.6,411.2,295.6,413.9,297.5,415z"/>
			</g>
		</g>
	</g>
	<g>
		<g>
			<g>
				<path class="st14" d="M335.3,392.8l4.8,2.8c0.9,0.5,2,0.5,2.8,0l19.3-11.3c1.9-1.1,1.9-3.9,0-5l-4.8-2.8c-0.9-0.5-2-0.5-2.8,0      l-19.3,11.3C333.4,388.9,333.4,391.7,335.3,392.8z"/>
			</g>
		</g>
	</g>
	<g>
		<g>
			<g>
				<path class="st14" d="M373.1,370.7l4.8,2.8c0.9,0.5,2,0.5,2.8,0l19.3-11.3c1.9-1.1,1.9-3.9,0-5l-4.8-2.8c-0.9-0.5-2-0.5-2.8,0      l-19.3,11.3C371.2,366.8,371.2,369.6,373.1,370.7z"/>
			</g>
		</g>
	</g>
	<g>
		<g>
			<g>
				<path class="st14" d="M411.5,349l4.8,2.8c0.9,0.5,2,0.5,2.8,0l19.3-11.3c1.9-1.1,1.9-3.9,0-5l-4.8-2.8c-0.9-0.5-2-0.5-2.8,0      L411.5,344C409.6,345.1,409.6,347.9,411.5,349z"/>
			</g>
		</g>
	</g>
	<g>
		<g>
			<path class="st14" d="M446,378.1l7.7,4.2c1.1,0.6,2.5,0.6,3.7,0l8.3-4.6c1.2-0.7,2.7-0.6,3.8,0.1l18,11.2c1.2,0.8,2.8,0.8,4,0     l10.9-6.8c2.4-1.5,2.4-5.1-0.1-6.5l-16.4-9.2l0.1-0.1l-13.7-7.5c-1.1-0.6-2.5-0.6-3.7,0L446,371.5     C443.4,372.9,443.4,376.7,446,378.1z"/>
		</g>
	</g>
	<g>
		<g>
			<g>
				<g>
					<path class="st14" d="M375.5,474.8l5.8,3.3c1.4,0.8,3.1,0.8,4.6,0l11.8-6.5c3.2-1.8,3.3-6.4,0-8.2l-5.8-3.3       c-1.4-0.8-3.1-0.8-4.6,0l-11.8,6.5C372.3,468.3,372.3,473,375.5,474.8z"/>
				</g>
			</g>
		</g>
		<g>
			<g>
				<g>
					<path class="st15" d="M188.3,502.1l-7.8-4.3c-1.1-0.6-2.5-0.6-3.7,0l-10.5,6c-2.6,1.5-2.5,5.2,0.1,6.6l7.8,4.3       c1.1,0.6,2.5,0.6,3.7,0l10.5-6C190.9,507.2,190.9,503.5,188.3,502.1z"/>
				</g>
			</g>
		</g>
		<g>
			<g>
				<g>
					<path class="st15" d="M219.2,510.4l-5.9-3.3c-1.4-0.8-3.2-0.8-4.6,0.1l-17.6,10.2c-3.2,1.8-3.1,6.4,0.1,8.2l5.9,3.3       c1.4,0.8,3.2,0.8,4.6-0.1l17.6-10.2C222.5,516.7,222.4,512.1,219.2,510.4z"/>
				</g>
			</g>
		</g>
		<g>
			<g>
				<g>
					<path class="st15" d="M254.4,518.4l-7-3.9c-1.3-0.7-2.9-0.7-4.2,0.1l-28.4,16.8c-2.8,1.7-2.7,5.7,0.1,7.3l7,3.9       c1.3,0.7,2.9,0.7,4.2-0.1l28.4-16.8C257.3,524,257.2,520,254.4,518.4z"/>
				</g>
			</g>
		</g>
		<g>
			<g>
				<g>
					<path class="st15" d="M248.4,493.4l-5.9-3.2c-1.4-0.8-3.2-0.8-4.6,0l-11.7,6.6c-3.2,1.8-3.2,6.4,0,8.2l5.9,3.2       c1.4,0.8,3.2,0.8,4.6,0l11.7-6.6C251.7,499.8,251.6,495.2,248.4,493.4z"/>
				</g>
			</g>
		</g>
		<g>
			<g>
				<g>
					<path class="st15" d="M259,513.7l5.9,3.2c1.4,0.8,3.2,0.8,4.6,0l11.7-6.6c3.2-1.8,3.2-6.4,0-8.2l-5.9-3.2       c-1.4-0.8-3.2-0.8-4.6,0l-11.7,6.6C255.8,507.2,255.8,511.9,259,513.7z"/>
				</g>
			</g>
		</g>
		<g>
			<g>
				<g>
					<path class="st15" d="M296.4,500.7l11.7-6.6c3.2-1.8,3.2-6.4,0-8.2l-5.9-3.2c-1.4-0.8-3.2-0.8-4.6,0l-11.7,6.6       c-3.2,1.8-3.2,6.4,0,8.2l5.9,3.2C293.3,501.5,295,501.5,296.4,500.7z"/>
				</g>
			</g>
		</g>
		<g>
			<g>
				<g>
					<path class="st15" d="M313.5,481.1l5.9,3.2c1.4,0.8,3.2,0.8,4.6,0l11.7-6.6c3.2-1.8,3.2-6.4,0-8.2l-5.9-3.2       c-1.4-0.8-3.2-0.8-4.6,0l-11.7,6.6C310.2,474.7,310.2,479.4,313.5,481.1z"/>
				</g>
			</g>
		</g>
		<g>
			<g>
				<g>
					<path class="st15" d="M351.4,469.4l11.7-6.6c3.2-1.8,3.2-6.4,0-8.2l-5.9-3.2c-1.4-0.8-3.2-0.8-4.6,0l-11.7,6.6       c-3.2,1.8-3.2,6.4,0,8.2l5.9,3.2C348.3,470.2,350,470.2,351.4,469.4z"/>
				</g>
			</g>
		</g>
		<g>
			<g>
				<g>
					<path class="st15" d="M379.7,453.5l11.7-6.6c3.2-1.8,3.2-6.4,0-8.2l-5.9-3.2c-1.4-0.8-3.2-0.8-4.6,0l-11.7,6.6       c-3.2,1.8-3.2,6.4,0,8.2l5.9,3.2C376.5,454.3,378.3,454.3,379.7,453.5z"/>
				</g>
			</g>
		</g>
		<g>
			<g>
				<g>
					<path class="st15" d="M406.9,437l11.7-6.6c3.2-1.8,3.2-6.4,0-8.2l-5.9-3.2c-1.4-0.8-3.2-0.8-4.6,0l-11.7,6.6       c-3.2,1.8-3.2,6.4,0,8.2l5.9,3.2C403.8,437.8,405.5,437.8,406.9,437z"/>
				</g>
			</g>
		</g>
		<g>
			<g>
				<g>
					<path class="st15" d="M434.6,403.6l-11.7,6.6c-3.2,1.8-3.2,6.4,0,8.2l5.9,3.2c1.4,0.8,3.2,0.8,4.6,0L445,415       c3.2-1.8,3.2-6.4,0-8.2l-5.9-3.2C437.7,402.8,436,402.8,434.6,403.6z"/>
				</g>
			</g>
		</g>
		<g>
			<g>
				<g>
					<path class="st15" d="M262.3,540l-5.8-3.3c-1.4-0.8-3.1-0.8-4.6,0l-11.8,6.5c-3.2,1.8-3.3,6.4,0,8.2l5.8,3.3       c1.4,0.8,3.1,0.8,4.6,0l11.8-6.5C265.5,546.4,265.6,541.8,262.3,540z"/>
				</g>
			</g>
		</g>
		<g>
			<g>
				<g>
					<path class="st15" d="M267.3,536.1l5.8,3.3c1.4,0.8,3.1,0.8,4.6,0l11.8-6.5c3.2-1.8,3.3-6.4,0-8.2l-5.8-3.3       c-1.4-0.8-3.1-0.8-4.6,0l-11.8,6.5C264.1,529.7,264,534.3,267.3,536.1z"/>
				</g>
			</g>
		</g>
		<g>
			<g>
				<g>
					<path class="st15" d="M316.3,516.8c3.2-1.8,3.3-6.4,0-8.2l-5.8-3.3c-1.4-0.8-3.1-0.8-4.6,0l-11.8,6.5c-3.2,1.8-3.3,6.4,0,8.2       l5.8,3.3c1.4,0.8,3.1,0.8,4.6,0L316.3,516.8z"/>
				</g>
			</g>
		</g>
		<g>
			<g>
				<g>
					<path class="st15" d="M321.3,504.1l5.8,3.3c1.4,0.8,3.1,0.8,4.6,0l11.8-6.5c3.2-1.8,3.3-6.4,0-8.2l-5.8-3.3       c-1.4-0.8-3.1-0.8-4.6,0l-11.8,6.5C318.1,497.7,318,502.3,321.3,504.1z"/>
				</g>
			</g>
		</g>
		<g>
			<g>
				<g>
					<path class="st15" d="M348.4,488.2l5.8,3.3c1.4,0.8,3.1,0.8,4.6,0l11.8-6.5c3.2-1.8,3.3-6.4,0-8.2l-5.8-3.3       c-1.4-0.8-3.1-0.8-4.6,0l-11.8,6.5C345.2,481.8,345.2,486.4,348.4,488.2z"/>
				</g>
			</g>
		</g>
		<g>
			<g>
				<g>
					<path class="st15" d="M375.5,472.4l5.8,3.3c1.4,0.8,3.1,0.8,4.6,0l11.8-6.5c3.2-1.8,3.3-6.4,0-8.2l-5.8-3.3       c-1.4-0.8-3.1-0.8-4.6,0l-11.8,6.5C372.3,465.9,372.3,470.6,375.5,472.4z"/>
				</g>
			</g>
		</g>
		<g>
			<g>
				<g>
					<path class="st15" d="M402.6,456.5l5.8,3.3c1.4,0.8,3.1,0.8,4.6,0l11.8-6.5c3.2-1.8,3.3-6.4,0-8.2l-5.8-3.3       c-1.4-0.8-3.1-0.8-4.6,0l-11.8,6.5C399.4,450.1,399.4,454.7,402.6,456.5z"/>
				</g>
			</g>
		</g>
		<g>
			<g>
				<g>
					<path class="st15" d="M428.7,442.2l5.8,3.3c1.4,0.8,3.1,0.8,4.6,0l11.8-6.5c3.2-1.8,3.3-6.4,0-8.2l-5.8-3.3       c-1.4-0.8-3.1-0.8-4.6,0l-11.8,6.5C425.5,435.8,425.5,440.4,428.7,442.2z"/>
				</g>
			</g>
		</g>
		<g>
			<g>
				<g>
					<path class="st15" d="M454.7,427.9l5.8,3.3c1.4,0.8,3.1,0.8,4.6,0l11.8-6.5c3.2-1.8,3.3-6.4,0-8.2l-5.8-3.3       c-1.4-0.8-3.1-0.8-4.6,0l-11.8,6.5C451.5,421.4,451.5,426.1,454.7,427.9z"/>
				</g>
			</g>
		</g>
		<g>
			<g>
				<g>
					<path class="st15" d="M480.8,413.6l5.8,3.3c1.4,0.8,3.1,0.8,4.6,0l11.8-6.5c3.2-1.8,3.3-6.4,0-8.2l-5.8-3.3       c-1.4-0.8-3.1-0.8-4.6,0l-11.8,6.5C477.6,407.1,477.6,411.8,480.8,413.6z"/>
				</g>
			</g>
		</g>
		<g>
			<g>
				<g>
					<path class="st15" d="M506.8,399.3l5.8,3.3c1.4,0.8,3.1,0.8,4.6,0l11.8-6.5c3.2-1.8,3.3-6.4,0-8.2l-5.8-3.3       c-1.4-0.8-3.1-0.8-4.6,0l-11.8,6.5C503.6,392.8,503.6,397.5,506.8,399.3z"/>
				</g>
			</g>
		</g>
		<g>
			<g>
				<g>
					<path class="st15" d="M299.1,548.6l-9.4-5.3c-0.9-0.5-2-0.5-2.9,0l-27.4,15.4c-2,1.1-2,4.1,0,5.2l9.4,5.3c0.9,0.5,2,0.5,2.9,0       l27.4-15.4C301.1,552.7,301.1,549.7,299.1,548.6z"/>
				</g>
			</g>
		</g>
		<g>
			<g>
				<g>
					<path class="st15" d="M327.1,530.4l-5.8-3.3c-1.4-0.8-3.1-0.8-4.6,0l-11.8,6.5c-3.2,1.8-3.3,6.4,0,8.2l5.8,3.3       c1.4,0.8,3.1,0.8,4.6,0l11.8-6.5C330.3,536.9,330.3,532.2,327.1,530.4z"/>
				</g>
			</g>
		</g>
		<g>
			<g>
				<g>
					<path class="st15" d="M354.1,515.1l-5.8-3.3c-1.4-0.8-3.1-0.8-4.6,0l-11.8,6.5c-3.2,1.8-3.3,6.4,0,8.2l5.8,3.3       c1.4,0.8,3.1,0.8,4.6,0l11.8-6.5C357.3,521.6,357.3,517,354.1,515.1z"/>
				</g>
			</g>
		</g>
		<g>
			<g>
				<g>
					<path class="st15" d="M468.8,452.4l-10.2-5.7c-0.8-0.5-1.8-0.4-2.6,0l-100.1,57.9c-1.8,1-1.7,3.6,0,4.5l10.2,5.7       c0.8,0.5,1.8,0.4,2.6,0L468.8,457C470.6,455.9,470.6,453.4,468.8,452.4z"/>
				</g>
			</g>
		</g>
		<g>
			<g>
				<g>
					<path class="st15" d="M490.4,435.6l-5.8-3.3c-1.4-0.8-3.1-0.8-4.6,0l-11.8,6.5c-3.2,1.8-3.3,6.4,0,8.2l5.8,3.3       c1.4,0.8,3.1,0.8,4.6,0l11.8-6.5C493.6,442,493.7,437.4,490.4,435.6z"/>
				</g>
			</g>
		</g>
		<g>
			<g>
				<g>
					<path class="st15" d="M515.5,421.2l-5.8-3.3c-1.4-0.8-3.1-0.8-4.6,0l-11.8,6.5c-3.2,1.8-3.3,6.4,0,8.2l5.8,3.3       c1.4,0.8,3.1,0.8,4.6,0l11.8-6.5C518.7,427.7,518.7,423.1,515.5,421.2z"/>
				</g>
			</g>
		</g>
		<g>
			<g>
				<g>
					<path class="st15" d="M553.8,404.2l-11.2-6.3c-0.6-0.4-1.4-0.4-2.1,0l-22.8,13c-1.4,0.8-1.4,2.9,0,3.7l11.2,6.3       c0.6,0.4,1.4,0.4,2.1,0l22.8-13C555.2,407.1,555.2,405,553.8,404.2z"/>
				</g>
			</g>
		</g>
		<g>
			<g>
				<g>
					<path class="st15" d="M457.7,405.5c1.4,0.8,3.2,0.8,4.6,0l11.7-6.6c3.2-1.8,3.2-6.4,0-8.2l-5.9-3.2c-1.4-0.8-3.2-0.8-4.6,0       l-11.7,6.6c-3.2,1.8-3.2,6.4,0,8.2L457.7,405.5z"/>
				</g>
			</g>
		</g>
		<g>
			<g>
				<g>
					<path class="st15" d="M211.8,488.2l-7.8-4.3c-1.1-0.6-2.5-0.6-3.7,0l-10.5,6c-2.6,1.5-2.5,5.2,0.1,6.6l7.8,4.3       c1.1,0.6,2.5,0.6,3.7,0l10.5-6C214.4,493.4,214.3,489.7,211.8,488.2z"/>
				</g>
			</g>
		</g>
		<g>
			<g>
				<g>
					<path class="st15" d="M213.2,482.7l7.8,4.3c1.1,0.6,2.5,0.6,3.7,0l10.5-6c2.6-1.5,2.5-5.2-0.1-6.6l-7.8-4.3       c-1.1-0.6-2.5-0.6-3.7,0l-10.5,6C210.6,477.6,210.6,481.3,213.2,482.7z"/>
				</g>
			</g>
		</g>
		<g>
			<g>
				<g>
					<path class="st15" d="M252.3,487.6l7.8,4.3c1.1,0.6,2.5,0.6,3.7,0l10.5-6c2.6-1.5,2.5-5.2-0.1-6.6l-7.8-4.3       c-1.1-0.6-2.5-0.6-3.7,0l-10.5,6C249.7,482.5,249.7,486.2,252.3,487.6z"/>
				</g>
			</g>
		</g>
		<g>
			<g>
				<g>
					<path class="st15" d="M276.9,473.8l7.8,4.3c1.1,0.6,2.5,0.6,3.7,0l10.5-6c2.6-1.5,2.5-5.2-0.1-6.6l-7.8-4.3       c-1.1-0.6-2.5-0.6-3.7,0l-10.5,6C274.3,468.6,274.3,472.3,276.9,473.8z"/>
				</g>
			</g>
		</g>
		<g>
			<g>
				<g>
					<path class="st15" d="M312.3,464.1l10.5-6c2.6-1.5,2.5-5.2-0.1-6.6l-7.8-4.3c-1.1-0.6-2.5-0.6-3.7,0l-10.5,6       c-2.6,1.5-2.5,5.2,0.1,6.6l7.8,4.3C309.8,464.8,311.2,464.8,312.3,464.1z"/>
				</g>
			</g>
		</g>
		<g>
			<g>
				<g>
					<path class="st15" d="M339.5,433.4c-1.1-0.6-2.5-0.6-3.7,0l-10.5,6c-2.6,1.5-2.5,5.2,0.1,6.6l7.8,4.3c1.1,0.6,2.5,0.6,3.7,0       l10.5-6c2.6-1.5,2.5-5.2-0.1-6.6L339.5,433.4z"/>
				</g>
			</g>
		</g>
		<g>
			<g>
				<g>
					<path class="st15" d="M363.5,419.5c-1.1-0.6-2.5-0.6-3.7,0l-10.5,6c-2.6,1.5-2.5,5.2,0.1,6.6l7.8,4.3c1.1,0.6,2.5,0.6,3.7,0       l10.5-6c2.6-1.5,2.5-5.2-0.1-6.6L363.5,419.5z"/>
				</g>
			</g>
		</g>
		<g>
			<g>
				<g>
					<path class="st15" d="M373.5,418.2l7.8,4.3c1.1,0.6,2.5,0.6,3.7,0l10.5-6c2.6-1.5,2.5-5.2-0.1-6.6l-7.8-4.3       c-1.1-0.6-2.5-0.6-3.7,0l-10.5,6C370.9,413.1,371,416.8,373.5,418.2z"/>
				</g>
			</g>
		</g>
		<g>
			<g>
				<g>
					<path class="st15" d="M410.7,391.8c-1.1-0.6-2.5-0.6-3.7,0l-10.5,6c-2.6,1.5-2.5,5.2,0.1,6.6l7.8,4.3c1.1,0.6,2.5,0.6,3.7,0       l10.5-6c2.6-1.5,2.5-5.2-0.1-6.6L410.7,391.8z"/>
				</g>
			</g>
		</g>
		<g>
			<g>
				<g>
					<path class="st15" d="M443.2,382.2l-7.8-4.3c-1.1-0.6-2.5-0.6-3.7,0l-10.5,6c-2.6,1.5-2.5,5.2,0.1,6.6l7.8,4.3       c1.1,0.6,2.5,0.6,3.7,0l10.5-6C445.8,387.3,445.8,383.6,443.2,382.2z"/>
				</g>
			</g>
		</g>
		<g>
			<g>
				<g>
					<path class="st15" d="M247.1,456.2l-10.5,6c-2.6,1.5-2.5,5.2,0.1,6.6l7.8,4.3c1.1,0.6,2.5,0.6,3.7,0l10.5-6       c2.6-1.5,2.5-5.2-0.1-6.6l-7.8-4.3C249.6,455.6,248.2,455.6,247.1,456.2z"/>
				</g>
			</g>
		</g>
		<g>
			<g>
				<g>
					<path class="st15" d="M283.5,446.6l-7.8-4.3c-1.1-0.6-2.5-0.6-3.7,0l-10.5,6c-2.6,1.5-2.5,5.2,0.1,6.6l7.8,4.3       c1.1,0.6,2.5,0.6,3.7,0l10.5-6C286.1,451.7,286.1,448,283.5,446.6z"/>
				</g>
			</g>
		</g>
		<g>
			<g>
				<g>
					<path class="st15" d="M284.4,442.5l7.8,4.3c1.1,0.6,2.5,0.6,3.7,0l10.5-6c2.6-1.5,2.5-5.2-0.1-6.6l-7.8-4.3       c-1.1-0.6-2.5-0.6-3.7,0l-10.5,6C281.8,437.4,281.8,441.1,284.4,442.5z"/>
				</g>
			</g>
		</g>
		<g>
			<g>
				<g>
					<path class="st15" d="M319,415.6l-10.5,6c-2.6,1.5-2.5,5.2,0.1,6.6l7.8,4.3c1.1,0.6,2.5,0.6,3.7,0l10.5-6       c2.6-1.5,2.5-5.2-0.1-6.6l-7.8-4.3C321.6,414.9,320.2,414.9,319,415.6z"/>
				</g>
			</g>
		</g>
		<g>
			<g>
				<g>
					<path class="st15" d="M332.5,414.6l7.8,4.3c1.1,0.6,2.5,0.6,3.7,0l10.5-6c2.6-1.5,2.5-5.2-0.1-6.6l-7.8-4.3       c-1.1-0.6-2.5-0.6-3.7,0l-10.5,6C329.9,409.5,329.9,413.2,332.5,414.6z"/>
				</g>
			</g>
		</g>
		<g>
			<g>
				<g>
					<path class="st15" d="M356.3,400.6l7.8,4.3c1.1,0.6,2.5,0.6,3.7,0l10.5-6c2.6-1.5,2.5-5.2-0.1-6.6l-7.8-4.3       c-1.1-0.6-2.5-0.6-3.7,0l-10.5,6C353.7,395.5,353.8,399.2,356.3,400.6z"/>
				</g>
			</g>
		</g>
		<g>
			<g>
				<g>
					<path class="st15" d="M401.7,378.5l-7.8-4.3c-1.1-0.6-2.5-0.6-3.7,0l-10.5,6c-2.6,1.5-2.5,5.2,0.1,6.6l7.8,4.3       c1.1,0.6,2.5,0.6,3.7,0l10.5-6C404.4,383.6,404.3,379.9,401.7,378.5z"/>
				</g>
			</g>
		</g>
		<g>
			<g>
				<g>
					<path class="st15" d="M403.1,373.4l7.8,4.3c1.1,0.6,2.5,0.6,3.7,0l10.5-6c2.6-1.5,2.5-5.2-0.1-6.6l-7.8-4.3       c-1.1-0.6-2.5-0.6-3.7,0l-10.5,6C400.5,368.3,400.5,372,403.1,373.4z"/>
				</g>
			</g>
		</g>
		<g>
			<g>
				<g>
					<path class="st15" d="M427.9,351.9c-3.2,1.8-3.2,6.5,0.1,8.3l5.8,3.2c1.5,0.8,3.2,0.8,4.7,0l15.5-8.9c0.1,0,0.1-0.1,1.1-0.8       c2.7-1.9,2.5-6.1-0.4-7.7l-6.2-3.4c-1.4-0.8-3.1-0.7-4.5,0.1c-5.1,3-5.2,3-5.2,3.1L427.9,351.9z"/>
				</g>
			</g>
		</g>
		<g>
			<g>
				<g>
					<path class="st15" d="M172,487.1l-4.8-2.8c-0.9-0.5-2-0.5-2.8,0l-19.3,11.3c-1.9,1.1-1.9,3.9,0,5l4.8,2.8c0.9,0.5,2,0.5,2.8,0       l19.3-11.3C173.9,490.9,173.9,488.2,172,487.1z"/>
				</g>
			</g>
		</g>
		<g>
			<g>
				<g>
					<path class="st15" d="M183.9,478.3l4.8,2.8c0.9,0.5,2,0.5,2.8,0l19.3-11.3c1.9-1.1,1.9-3.9,0-5L206,462c-0.9-0.5-2-0.5-2.8,0       l-19.3,11.3C182,474.4,182,477.2,183.9,478.3z"/>
				</g>
			</g>
		</g>
		<g>
			<g>
				<g>
					<path class="st15" d="M222.1,456l4.8,2.8c0.9,0.5,2,0.5,2.8,0l19.3-11.3c1.9-1.1,1.9-3.9,0-5l-4.8-2.8c-0.9-0.5-2-0.5-2.8,0       L222.1,451C220.2,452.1,220.2,454.9,222.1,456z"/>
				</g>
			</g>
		</g>
		<g>
			<g>
				<g>
					<path class="st15" d="M258.5,435.1l4.8,2.8c0.9,0.5,2,0.5,2.8,0l19.3-11.3c1.9-1.1,1.9-3.9,0-5l-4.8-2.8c-0.9-0.5-2-0.5-2.8,0       l-19.3,11.3C256.6,431.2,256.6,434,258.5,435.1z"/>
				</g>
			</g>
		</g>
		<g>
			<g>
				<g>
					<path class="st15" d="M297.5,412.6l4.8,2.8c0.9,0.5,2,0.5,2.8,0l19.3-11.3c1.9-1.1,1.9-3.9,0-5l-4.8-2.8c-0.9-0.5-2-0.5-2.8,0       l-19.3,11.3C295.6,408.8,295.6,411.5,297.5,412.6z"/>
				</g>
			</g>
		</g>
		<g>
			<g>
				<g>
					<path class="st15" d="M335.3,390.4l4.8,2.8c0.9,0.5,2,0.5,2.8,0l19.3-11.3c1.9-1.1,1.9-3.9,0-5l-4.8-2.8c-0.9-0.5-2-0.5-2.8,0       l-19.3,11.3C333.4,386.5,333.4,389.2,335.3,390.4z"/>
				</g>
			</g>
		</g>
		<g>
			<g>
				<g>
					<path class="st15" d="M373.1,368.3l4.8,2.8c0.9,0.5,2,0.5,2.8,0l19.3-11.3c1.9-1.1,1.9-3.9,0-5l-4.8-2.8c-0.9-0.5-2-0.5-2.8,0       l-19.3,11.3C371.2,364.4,371.2,367.2,373.1,368.3z"/>
				</g>
			</g>
		</g>
		<g>
			<g>
				<g>
					<path class="st15" d="M411.5,346.6l4.8,2.8c0.9,0.5,2,0.5,2.8,0l19.3-11.3c1.9-1.1,1.9-3.9,0-5l-4.8-2.8c-0.9-0.5-2-0.5-2.8,0       l-19.3,11.3C409.6,342.7,409.6,345.5,411.5,346.6z"/>
				</g>
			</g>
		</g>
		<g>
			<g>
				<path class="st15" d="M446,375.7l7.7,4.2c1.1,0.6,2.5,0.6,3.7,0l8.3-4.6c1.2-0.7,2.7-0.6,3.8,0.1l18,11.2c1.2,0.8,2.8,0.8,4,0      l10.9-6.8c2.4-1.5,2.4-5.1-0.1-6.5l-16.4-9.2l0.1-0.1l-13.7-7.5c-1.1-0.6-2.5-0.6-3.7,0L446,369.1      C443.4,370.5,443.4,374.3,446,375.7z"/>
			</g>
		</g>
	</g>
</g>
<g>
	<g class="st11">
		<g>
			<path class="st12" d="M604.9,578.7l77.3,44c1.4,0.8,3.1,0.8,4.4,0l132.9-77.8c3-1.7,2.9-6-0.1-7.7l-77.1-43.4     c-1.4-0.8-3-0.8-4.4,0l-133.2,77.3C601.9,572.8,601.9,577.1,604.9,578.7z"/>
		</g>
	</g>
	<g>
		<g>
			<path class="st7" d="M608.3,546.9l72.8,41.4c2.1,1.2,4.6,1.2,6.7,0L816.1,513c4.5-2.6,4.4-9.1-0.1-11.6l-72.5-40.8     c-2.1-1.2-4.6-1.1-6.6,0l-128.7,74.7C603.8,537.9,603.8,544.3,608.3,546.9z"/>
		</g>
	</g>
	<g>
		<g>
			<path class="st7" d="M608.3,548.4l72.8,41.4c2.1,1.2,4.6,1.2,6.7,0l128.4-75.2c4.5-2.6,4.4-9.1-0.1-11.6l-72.5-40.8     c-2.1-1.2-4.6-1.1-6.6,0l-128.7,74.7C603.8,539.4,603.8,545.8,608.3,548.4z"/>
		</g>
	</g>
	<g>
		<g>
			<path class="st8" d="M608.3,542.3l72.8,41.4c2.1,1.2,4.6,1.2,6.7,0l128.4-75.2c4.5-2.6,4.4-9.1-0.1-11.6L743.5,456     c-2.1-1.2-4.6-1.1-6.6,0l-128.7,74.7C603.8,533.3,603.8,539.8,608.3,542.3z"/>
		</g>
	</g>
	<g>
		<g>
			<path class="st16" d="M626.7,527.3l73.2,42.8c0.6,0.3,1.3,0.3,1.9,0L805,509.5c1.2-0.7,1.2-2.5,0-3.2l-74-42.2     c-0.6-0.3-1.3-0.3-1.9,0L626.7,524C625.4,524.8,625.4,526.5,626.7,527.3z"/>
		</g>
	</g>
	<g>
		<g>
			<path class="st17" d="M786.7,489.2c-0.2,0-0.3,0-0.5-0.1l-27.1-15.6c-0.5-0.3-0.7-0.9-0.4-1.4c0.3-0.5,0.9-0.7,1.4-0.4l27.1,15.6     c0.5,0.3,0.7,0.9,0.4,1.4C787.3,489,787,489.2,786.7,489.2z"/>
		</g>
	</g>
	<g>
		<g>
			<g>
				<circle class="st18" cx="754.5" cy="469.9" r="0.6"/>
			</g>
		</g>
		<g>
			<g>
				<path class="st17" d="M754.2,471.3c-0.8,0-1.4-0.6-1.4-1.4c0-0.8,0.6-1.4,1.4-1.4s1.4,0.6,1.4,1.4      C755.7,470.7,755,471.3,754.2,471.3z"/>
			</g>
		</g>
	</g>
	<g class="st19">
		<g>
			<ellipse class="st17" cx="654.3" cy="552.4" rx="5.7" ry="3.4"/>
		</g>
	</g>
	<g>
		<g>
			<g>
				<path class="st8" d="M783.5,529.6v0.9c0,1.4,1.5,2.3,2.7,1.6l8-4.5c0.6-0.3,0.9-0.9,0.9-1.6v0c0-1.8-2-3-3.6-2.1l-7.2,4.1      C783.8,528.4,783.5,529,783.5,529.6z"/>
			</g>
		</g>
		<g>
			<g>
				<path class="st7" d="M785.3,530.7v0.9c0,1.4,1.5,2.3,2.7,1.6l8-4.5c0.6-0.3,0.9-0.9,0.9-1.6l0,0c0-1.8-2-3-3.6-2.1l-7.2,4.1      C785.6,529.4,785.3,530,785.3,530.7z"/>
			</g>
		</g>
	</g>
	<g>
		<g>
			<g>
				<path class="st8" d="M797,522.1v0.9c0,1.4,1.5,2.3,2.7,1.6l8-4.5c0.6-0.3,0.9-0.9,0.9-1.6v-1c0-1.4-1.5-2.3-2.7-1.6l-8,4.5      C797.3,520.9,797,521.5,797,522.1z"/>
			</g>
		</g>
		<g>
			<g>
				<path class="st7" d="M798.8,523.2v0.9c0,1.4,1.5,2.3,2.7,1.6l8-4.5c0.6-0.3,0.9-0.9,0.9-1.6l0,0c0-1.8-2-3-3.6-2.1l-7.2,4.1      C799.1,522,798.8,522.6,798.8,523.2z"/>
			</g>
		</g>
	</g>
</g>
<g class="st19">
	<g>
		<path class="st7" d="M392.7,532.2l35.2,21.7c1.3,0.8,3,0.8,4.4,0l79.5-46.6c2.8-1.6,2.8-5.7,0-7.3l-35.4-20.4    c-1.3-0.7-2.9-0.8-4.2,0L392.8,525C390,526.6,389.9,530.6,392.7,532.2z"/>
	</g>
</g>
<g>
	<g class="st11">
		<g>
			<path class="st12" d="M524.2,627.8c-1.8-1-4.1-0.9-5.9,0.1L394.8,699c-0.6,0.4-1.2,0.9-1.6,1.4c-0.3,0.1-0.6,0.4-0.8,0.7     l-7.9,12.7l16.2-3c0.4-0.1,0.7-0.3,0.9-0.6c0.1,0,0.1-0.1,0.2-0.1l122.6-71.7C528.5,636,528.4,630.1,524.2,627.8z"/>
		</g>
	</g>
	<g>
		<g>
			<path class="st8" d="M396.4,682.4l0.9,0.6c1.9,1.2,4.4,1.3,6.3,0.1l122.6-71.7c4.1-2.4,4-8.4-0.2-10.6h0c-1.8-1-4.1-0.9-5.9,0.1     l-123.5,71.1C392.7,674.3,392.5,680,396.4,682.4z"/>
		</g>
	</g>
	<g>
		<g>
			<path class="st20" d="M402.5,683.8l-16.2,3l7.9-12.7c0.3-0.6,1-0.9,1.7-0.8l1.1,0.2c4.2,0.7,7.2,4.6,6.8,8.9l0,0     C403.7,683.1,403.2,683.7,402.5,683.8z"/>
		</g>
	</g>
	<g>
		<g>
			<path class="st8" d="M390.2,680.5l-3.9,6.3l8-1.5c0.7-1.3,0.5-2.8-0.4-3.9C392.9,680.5,391.5,680.1,390.2,680.5z"/>
		</g>
	</g>
</g>
<g>
	<g>
		<path class="st21" d="M699.7,168.9L572,341.8c-0.6,0.8-0.4,1.9,0.4,2.5l21.5,15c0.8,0.5,1.9,0.4,2.4-0.4L725,183.1    c0.6-0.9,0.4-2.1-0.6-2.6L702,168.4C701.2,168,700.2,168.2,699.7,168.9z"/>
	</g>
</g>
<g>
	<g>
		<path class="st22" d="M693.7,166.5L566,339.4c-0.6,0.8-0.4,1.9,0.4,2.5l21.5,15c0.8,0.5,1.9,0.4,2.4-0.4l128.7-175.8    c0.6-0.9,0.4-2.1-0.6-2.6L696,166C695.2,165.6,694.3,165.8,693.7,166.5z"/>
	</g>
</g>
<g class="st11">
	<g>
		<path class="st12" d="M605.7,370.7l23,13.4l41.3-25.5c0,0,8-22.5,20.7-41.1c12.7-18.6,43.5-36.2,43.5-36.2L711.7,268    c0,0-30.9,15.3-45.8,37.8c-14.9,22.5-18.7,39.9-18.7,39.9L605.7,370.7z"/>
	</g>
</g>
<g>
	<g>
		<g>
			<g>
				<path class="st21" d="M657.5,247.9c-0.2,0-0.3,0-0.5-0.1l-13.3-7.7c-0.5-0.3-0.6-0.9-0.4-1.4c0.3-0.5,0.9-0.6,1.4-0.4L658,246      c0.5,0.3,0.6,0.9,0.4,1.4C658.1,247.7,657.8,247.9,657.5,247.9z"/>
			</g>
		</g>
		<g>
			<g>
				<g>
					<path class="st21" d="M656.6,237.3c-0.2,0-0.4,0-0.5-0.1L649,233c-0.5-0.3-0.6-0.9-0.4-1.4c0.3-0.5,0.9-0.6,1.4-0.4l7.1,4.2       c0.5,0.3,0.6,0.9,0.4,1.4C657.3,237.1,656.9,237.3,656.6,237.3z"/>
				</g>
			</g>
			<g>
				<g>
					<path class="st21" d="M661.9,230.2c-0.2,0-0.4,0-0.5-0.1l-7.1-4.2c-0.5-0.3-0.6-0.9-0.4-1.4c0.3-0.5,0.9-0.6,1.4-0.4l7.1,4.2       c0.5,0.3,0.6,0.9,0.4,1.4C662.6,230,662.3,230.2,661.9,230.2z"/>
				</g>
			</g>
			<g>
				<g>
					<path class="st21" d="M667.3,223.1c-0.2,0-0.4,0-0.5-0.1l-7.1-4.2c-0.5-0.3-0.6-0.9-0.4-1.4c0.3-0.5,0.9-0.6,1.4-0.4l7.1,4.2       c0.5,0.3,0.6,0.9,0.4,1.4C668,222.9,667.6,223.1,667.3,223.1z"/>
				</g>
			</g>
			<g>
				<g>
					<path class="st21" d="M672.6,216.1c-0.2,0-0.4,0-0.5-0.1l-7.1-4.2c-0.5-0.3-0.6-0.9-0.4-1.4c0.3-0.5,0.9-0.6,1.4-0.4l7.1,4.2       c0.5,0.3,0.6,0.9,0.4,1.4C673.3,215.9,673,216.1,672.6,216.1z"/>
				</g>
			</g>
		</g>
	</g>
	<g>
		<g>
			<g>
				<path class="st21" d="M631.4,282.7c-0.2,0-0.3,0-0.5-0.1l-13.3-7.7c-0.5-0.3-0.6-0.9-0.4-1.4c0.3-0.5,0.9-0.6,1.4-0.4l13.3,7.7      c0.5,0.3,0.6,0.9,0.4,1.4C632.1,282.5,631.8,282.7,631.4,282.7z"/>
			</g>
		</g>
		<g>
			<g>
				<g>
					<path class="st21" d="M630.5,272.1c-0.2,0-0.4,0-0.5-0.1l-7.1-4.2c-0.5-0.3-0.6-0.9-0.4-1.4c0.3-0.5,0.9-0.6,1.4-0.4l7.1,4.2       c0.5,0.3,0.6,0.9,0.4,1.4C631.2,271.9,630.9,272.1,630.5,272.1z"/>
				</g>
			</g>
			<g>
				<g>
					<path class="st21" d="M635.9,265c-0.2,0-0.4,0-0.5-0.1l-7.1-4.2c-0.5-0.3-0.6-0.9-0.4-1.4c0.3-0.5,0.9-0.6,1.4-0.4l7.1,4.2       c0.5,0.3,0.6,0.9,0.4,1.4C636.6,264.9,636.2,265,635.9,265z"/>
				</g>
			</g>
			<g>
				<g>
					<path class="st21" d="M641.2,258c-0.2,0-0.4,0-0.5-0.1l-7.1-4.2c-0.5-0.3-0.6-0.9-0.4-1.4c0.3-0.5,0.9-0.6,1.4-0.4l7.1,4.2       c0.5,0.3,0.6,0.9,0.4,1.4C641.9,257.8,641.6,258,641.2,258z"/>
				</g>
			</g>
			<g>
				<g>
					<path class="st21" d="M646.6,250.9c-0.2,0-0.4,0-0.5-0.1l-7.1-4.2c-0.5-0.3-0.6-0.9-0.4-1.4c0.3-0.5,0.9-0.6,1.4-0.4l7.1,4.2       c0.5,0.3,0.6,0.9,0.4,1.4C647.3,250.7,646.9,250.9,646.6,250.9z"/>
				</g>
			</g>
		</g>
	</g>
	<g>
		<g>
			<g>
				<path class="st21" d="M605.6,318.7c-0.2,0-0.3,0-0.5-0.1l-13.3-7.7c-0.5-0.3-0.6-0.9-0.4-1.4c0.3-0.5,0.9-0.6,1.4-0.4l13.3,7.7      c0.5,0.3,0.6,0.9,0.4,1.4C606.3,318.5,606,318.7,605.6,318.7z"/>
			</g>
		</g>
		<g>
			<g>
				<g>
					<path class="st21" d="M604.7,308.1c-0.2,0-0.4,0-0.5-0.1l-7.1-4.2c-0.5-0.3-0.6-0.9-0.4-1.4c0.3-0.5,0.9-0.6,1.4-0.4l7.1,4.2       c0.5,0.3,0.6,0.9,0.4,1.4C605.4,307.9,605.1,308.1,604.7,308.1z"/>
				</g>
			</g>
			<g>
				<g>
					<path class="st21" d="M610.1,301c-0.2,0-0.4,0-0.5-0.1l-7.1-4.2c-0.5-0.3-0.6-0.9-0.4-1.4c0.3-0.5,0.9-0.6,1.4-0.4l7.1,4.2       c0.5,0.3,0.6,0.9,0.4,1.4C610.8,300.8,610.4,301,610.1,301z"/>
				</g>
			</g>
			<g>
				<g>
					<path class="st21" d="M615.4,293.9c-0.2,0-0.4,0-0.5-0.1l-7.1-4.2c-0.5-0.3-0.6-0.9-0.4-1.4c0.3-0.5,0.9-0.6,1.4-0.4l7.1,4.2       c0.5,0.3,0.6,0.9,0.4,1.4C616.1,293.8,615.8,293.9,615.4,293.9z"/>
				</g>
			</g>
			<g>
				<g>
					<path class="st21" d="M620.8,286.9c-0.2,0-0.4,0-0.5-0.1l-7.1-4.2c-0.5-0.3-0.6-0.9-0.4-1.4c0.3-0.5,0.9-0.6,1.4-0.4l7.1,4.2       c0.5,0.3,0.6,0.9,0.4,1.4C621.5,286.7,621.1,286.9,620.8,286.9z"/>
				</g>
			</g>
		</g>
	</g>
	<g>
		<g>
			<g>
				<g>
					<path class="st21" d="M579.3,342.3c-0.2,0-0.4,0-0.5-0.1l-7.1-4.2c-0.5-0.3-0.6-0.9-0.4-1.4c0.3-0.5,0.9-0.6,1.4-0.4l7.1,4.2       c0.5,0.3,0.6,0.9,0.4,1.4C580,342.1,579.6,342.3,579.3,342.3z"/>
				</g>
			</g>
			<g>
				<g>
					<path class="st21" d="M584.6,335.2c-0.2,0-0.4,0-0.5-0.1l-7.1-4.2c-0.5-0.3-0.6-0.9-0.4-1.4c0.3-0.5,0.9-0.6,1.4-0.4l7.1,4.2       c0.5,0.3,0.6,0.9,0.4,1.4C585.3,335,585,335.2,584.6,335.2z"/>
				</g>
			</g>
			<g>
				<g>
					<path class="st21" d="M590,328.1c-0.2,0-0.4,0-0.5-0.1l-7.1-4.2c-0.5-0.3-0.6-0.9-0.4-1.4c0.3-0.5,0.9-0.6,1.4-0.4l7.1,4.2       c0.5,0.3,0.6,0.9,0.4,1.4C590.6,328,590.3,328.1,590,328.1z"/>
				</g>
			</g>
			<g>
				<g>
					<path class="st21" d="M595.3,321.1c-0.2,0-0.4,0-0.5-0.1l-7.1-4.2c-0.5-0.3-0.6-0.9-0.4-1.4c0.3-0.5,0.9-0.6,1.4-0.4l7.1,4.2       c0.5,0.3,0.6,0.9,0.4,1.4C596,320.9,595.7,321.1,595.3,321.1z"/>
				</g>
			</g>
		</g>
	</g>
	<g>
		<g>
			<g>
				<path class="st21" d="M684.6,200.4c-0.2,0-0.4,0-0.5-0.1l-7.1-4.2c-0.5-0.3-0.6-0.9-0.4-1.4c0.3-0.5,0.9-0.6,1.4-0.4l7.1,4.2      c0.5,0.3,0.6,0.9,0.4,1.4C685.3,200.3,685,200.4,684.6,200.4z"/>
			</g>
		</g>
		<g>
			<g>
				<path class="st21" d="M690,193.4c-0.2,0-0.4,0-0.5-0.1l-7.1-4.2c-0.5-0.3-0.6-0.9-0.4-1.4c0.3-0.5,0.9-0.6,1.4-0.4l7.1,4.2      c0.5,0.3,0.6,0.9,0.4,1.4C690.6,193.2,690.3,193.4,690,193.4z"/>
			</g>
		</g>
		<g>
			<g>
				<path class="st21" d="M695.3,186.3c-0.2,0-0.4,0-0.5-0.1l-7.1-4.2c-0.5-0.3-0.6-0.9-0.4-1.4c0.3-0.5,0.9-0.6,1.4-0.4l7.1,4.2      c0.5,0.3,0.6,0.9,0.4,1.4C696,186.1,695.7,186.3,695.3,186.3z"/>
			</g>
		</g>
		<g>
			<g>
				<path class="st21" d="M700.7,179.2c-0.2,0-0.4,0-0.5-0.1l-7.1-4.2c-0.5-0.3-0.6-0.9-0.4-1.4c0.3-0.5,0.9-0.6,1.4-0.4l7.1,4.2      c0.5,0.3,0.6,0.9,0.4,1.4C701.3,179.1,701,179.2,700.7,179.2z"/>
			</g>
		</g>
	</g>
	<g>
		<g>
			<path class="st21" d="M684.2,212.5c-0.2,0-0.3,0-0.5-0.1l-13.3-7.7c-0.5-0.3-0.6-0.9-0.4-1.4c0.3-0.5,0.9-0.6,1.4-0.4l13.3,7.7     c0.5,0.3,0.6,0.9,0.4,1.4C684.9,212.3,684.5,212.5,684.2,212.5z"/>
		</g>
	</g>
</g>
<g class="st23">
	<g>
		<path class="st24" d="M140.8,274.1v228.1c0,6.8,7.4,11.1,13.3,7.7L470,327.3c2.7-1.6,4.4-4.5,4.4-7.7v-230    c0-6.8-7.4-11.1-13.3-7.6L145.2,266.4C142.5,268,140.8,270.9,140.8,274.1z"/>
	</g>
</g>
<g>
	<g>
		<g>
			<path class="st25" d="M366.8,180.6c-0.7,0-1.4-0.4-1.8-1c-0.6-1-0.2-2.2,0.8-2.8l47.1-26.8c1-0.6,2.2-0.2,2.8,0.8     c0.6,1,0.2,2.2-0.8,2.8l-47.1,26.8C367.5,180.5,367.1,180.6,366.8,180.6z"/>
		</g>
	</g>
	<g>
		<g>
			<path class="st0" d="M292.6,222.8c-0.7,0-1.4-0.4-1.8-1c-0.6-1-0.2-2.2,0.8-2.8l48.2-27.4c1-0.6,2.2-0.2,2.8,0.8     c0.6,1,0.2,2.2-0.8,2.8l-48.2,27.4C293.3,222.7,293,222.8,292.6,222.8z"/>
		</g>
	</g>
	<g>
		<g>
			<path class="st25" d="M237.1,254.3c-0.7,0-1.4-0.4-1.8-1c-0.6-1-0.2-2.2,0.8-2.8l32.9-18.7c1-0.6,2.2-0.2,2.8,0.8     c0.6,1,0.2,2.2-0.8,2.8L238.1,254C237.8,254.2,237.5,254.3,237.1,254.3z"/>
		</g>
	</g>
	<g>
		<g>
			<path class="st25" d="M192.2,279.9c-0.7,0-1.4-0.4-1.8-1c-0.6-1-0.2-2.2,0.8-2.8l21.1-12c1-0.6,2.2-0.2,2.8,0.8     c0.6,1,0.2,2.2-0.8,2.8l-21.1,12C192.9,279.8,192.5,279.9,192.2,279.9z"/>
		</g>
	</g>
	<g>
		<g>
			<path class="st26" d="M453.4,152.2"/>
		</g>
	</g>
	<g>
		<g>
			<path class="st16" d="M410.1,178.8c-0.7,0-1.4-0.4-1.8-1c-0.6-1-0.2-2.2,0.8-2.8l16.2-9.2c1-0.6,2.2-0.2,2.8,0.8     c0.6,1,0.2,2.2-0.8,2.8l-16.2,9.2C410.7,178.7,410.4,178.8,410.1,178.8z"/>
		</g>
	</g>
	<g>
		<g>
			<path class="st25" d="M346,215.3c-0.7,0-1.4-0.4-1.8-1c-0.6-1-0.2-2.2,0.8-2.8l44.7-25.4c1-0.6,2.2-0.2,2.8,0.8     c0.6,1,0.2,2.2-0.8,2.8L347,215C346.7,215.2,346.3,215.3,346,215.3z"/>
		</g>
	</g>
	<g>
		<g>
			<path class="st25" d="M282.5,251.4c-0.7,0-1.4-0.4-1.8-1c-0.6-1-0.2-2.2,0.8-2.8l40.9-23.3c1-0.6,2.2-0.2,2.8,0.8     c0.6,1,0.2,2.2-0.8,2.8l-40.9,23.3C283.2,251.3,282.8,251.4,282.5,251.4z"/>
		</g>
	</g>
	<g>
		<g>
			<path class="st0" d="M220.7,286.5c-0.7,0-1.4-0.4-1.8-1c-0.6-1-0.2-2.2,0.8-2.8l40-22.8c1-0.6,2.2-0.2,2.8,0.8     c0.6,1,0.2,2.2-0.8,2.8l-40,22.8C221.4,286.4,221,286.5,220.7,286.5z"/>
		</g>
	</g>
	<g>
		<g>
			<path class="st26" d="M192.2,300.7"/>
		</g>
	</g>
	<g>
		<g>
			<path class="st25" d="M422.4,194.7c-0.7,0-1.4-0.4-1.8-1c-0.6-1-0.2-2.2,0.8-2.8l14.9-8.5c1-0.6,2.2-0.2,2.8,0.8     c0.6,1,0.2,2.2-0.8,2.8l-14.9,8.5C423.1,194.6,422.7,194.7,422.4,194.7z"/>
		</g>
	</g>
	<g>
		<g>
			<path class="st25" d="M354.4,233.3c-0.7,0-1.4-0.4-1.8-1c-0.6-1-0.2-2.2,0.8-2.8l47-26.7c1-0.6,2.2-0.2,2.8,0.8     c0.6,1,0.2,2.2-0.8,2.8l-47,26.7C355.1,233.3,354.7,233.3,354.4,233.3z"/>
		</g>
	</g>
	<g>
		<g>
			<path class="st16" d="M287.9,271.2c-0.7,0-1.4-0.4-1.8-1c-0.6-1-0.2-2.2,0.8-2.8l42.7-24.3c1-0.6,2.2-0.2,2.8,0.8     c0.6,1,0.2,2.2-0.8,2.8l-42.7,24.3C288.5,271.1,288.2,271.2,287.9,271.2z"/>
		</g>
	</g>
	<g>
		<g>
			<path class="st25" d="M240.8,297.9c-0.7,0-1.4-0.4-1.8-1c-0.6-1-0.2-2.2,0.8-2.8l24.1-13.7c1-0.6,2.2-0.2,2.8,0.8     c0.6,1,0.2,2.2-0.8,2.8l-24.1,13.7C241.5,297.8,241.2,297.9,240.8,297.9z"/>
		</g>
	</g>
	<g>
		<g>
			<path class="st25" d="M192.2,325.6c-0.7,0-1.4-0.4-1.8-1c-0.6-1-0.2-2.2,0.8-2.8l32-18.2c1-0.6,2.2-0.2,2.8,0.8     c0.6,1,0.2,2.2-0.8,2.8l-32,18.2C192.9,325.5,192.5,325.6,192.2,325.6z"/>
		</g>
	</g>
	<g>
		<g>
			<path class="st0" d="M373.2,245.5c-0.7,0-1.4-0.4-1.8-1c-0.6-1-0.2-2.2,0.8-2.8l20.5-11.7c1-0.6,2.2-0.2,2.8,0.8     c0.6,1,0.2,2.2-0.8,2.8l-20.5,11.7C373.9,245.4,373.6,245.5,373.2,245.5z"/>
		</g>
	</g>
	<g>
		<g>
			<path class="st25" d="M330.6,269.7c-0.7,0-1.4-0.4-1.8-1c-0.6-1-0.2-2.2,0.8-2.8l23.8-13.5c1-0.6,2.2-0.2,2.8,0.8     c0.6,1,0.2,2.2-0.8,2.8l-23.8,13.5C331.2,269.7,330.9,269.7,330.6,269.7z"/>
		</g>
	</g>
	<g>
		<g>
			<path class="st25" d="M281,297.9c-0.7,0-1.4-0.4-1.8-1c-0.6-1-0.2-2.2,0.8-2.8l26.5-15.1c1-0.6,2.2-0.2,2.8,0.8     c0.6,1,0.2,2.2-0.8,2.8L282,297.6C281.7,297.8,281.4,297.9,281,297.9z"/>
		</g>
	</g>
	<g>
		<g>
			<path class="st25" d="M247.6,316.9c-0.7,0-1.4-0.4-1.8-1c-0.6-1-0.2-2.2,0.8-2.8l15.3-8.7c1-0.6,2.2-0.2,2.8,0.8     c0.6,1,0.2,2.2-0.8,2.8l-15.3,8.7C248.3,316.8,248,316.9,247.6,316.9z"/>
		</g>
	</g>
	<g>
		<g>
			<path class="st25" d="M192.2,348.4c-0.7,0-1.4-0.4-1.8-1c-0.6-1-0.2-2.2,0.8-2.8l34.5-19.6c1-0.6,2.2-0.2,2.8,0.8     c0.6,1,0.2,2.2-0.8,2.8l-34.5,19.6C192.9,348.3,192.5,348.4,192.2,348.4z"/>
		</g>
	</g>
	<g>
		<g>
			<path class="st26" d="M439.8,228.5"/>
		</g>
	</g>
	<g>
		<g>
			<path class="st25" d="M403.2,251.3c-0.7,0-1.4-0.4-1.8-1c-0.6-1-0.2-2.2,0.8-2.8l21.5-12.2c1-0.6,2.2-0.2,2.8,0.8     c0.6,1,0.2,2.2-0.8,2.8L404.2,251C403.9,251.2,403.5,251.3,403.2,251.3z"/>
		</g>
	</g>
	<g>
		<g>
			<path class="st25" d="M282.6,319.9c-0.7,0-1.4-0.4-1.8-1c-0.6-1-0.2-2.2,0.8-2.8l53.7-30.6c1-0.6,2.2-0.2,2.8,0.8     c0.6,1,0.2,2.2-0.8,2.8l-53.7,30.6C283.3,319.8,282.9,319.9,282.6,319.9z"/>
		</g>
	</g>
	<g>
		<g>
			<path class="st0" d="M216.5,357.5c-0.7,0-1.4-0.4-1.8-1c-0.6-1-0.2-2.2,0.8-2.8l49.9-28.4c1-0.6,2.2-0.2,2.8,0.8     c0.6,1,0.2,2.2-0.8,2.8l-49.9,28.4C217.1,357.4,216.8,357.5,216.5,357.5z"/>
		</g>
	</g>
	<g>
		<g>
			<path class="st25" d="M192.2,371.3c-0.7,0-1.4-0.4-1.8-1c-0.6-1-0.2-2.2,0.8-2.8l9.2-5.3c1-0.6,2.2-0.2,2.8,0.8     c0.6,1,0.2,2.2-0.8,2.8l-9.2,5.3C192.9,371.2,192.5,371.3,192.2,371.3z"/>
		</g>
	</g>
	<g>
		<g>
			<path class="st25" d="M410.1,270.3c-0.7,0-1.4-0.4-1.8-1c-0.6-1-0.2-2.2,0.8-2.8l33.3-18.9c1-0.6,2.2-0.2,2.8,0.8     c0.6,1,0.2,2.2-0.8,2.8L411.1,270C410.7,270.2,410.4,270.3,410.1,270.3z"/>
		</g>
	</g>
	<g>
		<g>
			<path class="st16" d="M351.3,303.7c-0.7,0-1.4-0.4-1.8-1c-0.6-1-0.2-2.2,0.8-2.8l35-19.9c1-0.6,2.2-0.2,2.8,0.8     c0.6,1,0.2,2.2-0.8,2.8l-35,19.9C352,303.6,351.6,303.7,351.3,303.7z"/>
		</g>
	</g>
	<g>
		<g>
			<path class="st0" d="M312.1,326c-0.7,0-1.4-0.4-1.8-1c-0.6-1-0.2-2.2,0.8-2.8l18.5-10.5c1-0.6,2.2-0.2,2.8,0.8     c0.6,1,0.2,2.2-0.8,2.8l-18.5,10.5C312.7,325.9,312.4,326,312.1,326z"/>
		</g>
	</g>
	<g>
		<g>
			<path class="st25" d="M269.2,350.3c-0.7,0-1.4-0.4-1.8-1c-0.6-1-0.2-2.2,0.8-2.8l24.3-13.8c1-0.6,2.2-0.2,2.8,0.8     c0.6,1,0.2,2.2-0.8,2.8l-24.3,13.8C269.9,350.3,269.6,350.3,269.2,350.3z"/>
		</g>
	</g>
	<g>
		<g>
			<path class="st25" d="M192.2,394.1c-0.7,0-1.4-0.4-1.8-1c-0.6-1-0.2-2.2,0.8-2.8l61.8-35.1c1-0.6,2.2-0.2,2.8,0.8     c0.6,1,0.2,2.2-0.8,2.8l-61.8,35.1C192.9,394.1,192.5,394.1,192.2,394.1z"/>
		</g>
	</g>
	<g>
		<g>
			<path class="st25" d="M393.5,302.5c-0.7,0-1.4-0.4-1.8-1c-0.6-1-0.2-2.2,0.8-2.8l27.6-15.7c1-0.6,2.2-0.2,2.8,0.8     c0.6,1,0.2,2.2-0.8,2.8l-27.6,15.7C394.2,302.4,393.9,302.5,393.5,302.5z"/>
		</g>
	</g>
	<g>
		<g>
			<path class="st25" d="M325.4,341.2c-0.7,0-1.4-0.4-1.8-1c-0.6-1-0.2-2.2,0.8-2.8l47.3-26.9c1-0.6,2.2-0.2,2.8,0.8     c0.6,1,0.2,2.2-0.8,2.8L326.4,341C326.1,341.1,325.8,341.2,325.4,341.2z"/>
		</g>
	</g>
	<g>
		<g>
			<path class="st16" d="M264.9,375.7c-0.7,0-1.4-0.4-1.8-1c-0.6-1-0.2-2.2,0.8-2.8l43.1-24.5c1-0.6,2.2-0.2,2.8,0.8     c0.6,1,0.2,2.2-0.8,2.8l-43.1,24.5C265.5,375.6,265.2,375.7,264.9,375.7z"/>
		</g>
	</g>
	<g>
		<g>
			<path class="st25" d="M215.9,403.5c-0.7,0-1.4-0.4-1.8-1c-0.6-1-0.2-2.2,0.8-2.8l25.1-14.3c1-0.6,2.2-0.2,2.8,0.8     c0.6,1,0.2,2.2-0.8,2.8l-25.1,14.3C216.6,403.5,216.2,403.5,215.9,403.5z"/>
		</g>
	</g>
	<g>
		<g>
			<path class="st0" d="M310.5,372.6c-0.7,0-1.4-0.4-1.8-1c-0.6-1-0.2-2.2,0.8-2.8l42.5-24.2c1-0.6,2.2-0.2,2.8,0.8     c0.6,1,0.2,2.2-0.8,2.8l-42.5,24.2C311.2,372.5,310.8,372.6,310.5,372.6z"/>
		</g>
	</g>
	<g>
		<g>
			<path class="st25" d="M248.4,407.9c-0.7,0-1.4-0.4-1.8-1c-0.6-1-0.2-2.2,0.8-2.8l45.5-25.9c1-0.6,2.2-0.2,2.8,0.8     c0.6,1,0.2,2.2-0.8,2.8l-45.5,25.9C249.1,407.8,248.7,407.9,248.4,407.9z"/>
		</g>
	</g>
	<g>
		<g>
			<path class="st0" d="M192.2,439.9c-0.7,0-1.4-0.4-1.8-1c-0.6-1-0.2-2.2,0.8-2.8l25.1-14.3c1-0.6,2.2-0.2,2.8,0.8     c0.6,1,0.2,2.2-0.8,2.8l-25.1,14.3C192.9,439.8,192.5,439.9,192.2,439.9z"/>
		</g>
	</g>
	<g>
		<g>
			<path class="st16" d="M298.2,402.4c-0.7,0-1.4-0.4-1.8-1c-0.6-1-0.2-2.2,0.8-2.8l22.7-12.9c1-0.6,2.2-0.2,2.8,0.8     c0.6,1,0.2,2.2-0.8,2.8l-22.7,12.9C298.9,402.3,298.6,402.4,298.2,402.4z"/>
		</g>
	</g>
	<g>
		<g>
			<path class="st25" d="M236.2,437.7c-0.7,0-1.4-0.4-1.8-1c-0.6-1-0.2-2.2,0.8-2.8l39.5-22.5c1-0.6,2.2-0.2,2.8,0.8     c0.6,1,0.2,2.2-0.8,2.8l-39.5,22.5C236.9,437.6,236.5,437.7,236.2,437.7z"/>
		</g>
	</g>
	<g>
		<g>
			<path class="st0" d="M192.2,462.7c-0.7,0-1.4-0.4-1.8-1c-0.6-1-0.2-2.2,0.8-2.8l24.2-13.7c1-0.6,2.2-0.2,2.8,0.8     c0.6,1,0.2,2.2-0.8,2.8l-24.2,13.7C192.9,462.6,192.5,462.7,192.2,462.7z"/>
		</g>
	</g>
</g>
<g class="st11">
	<g>
		<path class="st27" d="M202.6,301.3v228.1c0,6.8,7.4,11.1,13.3,7.7l315.9-182.5c2.7-1.6,4.4-4.5,4.4-7.7v-230    c0-6.8-7.4-11.1-13.3-7.6L207,293.7C204.3,295.2,202.6,298.2,202.6,301.3z"/>
	</g>
</g>
<g class="st28">
	<g>
		<path class="st15" d="M235.5,309.7v36.9c0,3.6,3.9,5.9,7.1,4.1l251.6-144.3c1.9-1.1,3.1-3.1,3.1-5.3v-38.2c0-4.7-5.1-7.7-9.2-5.3    L238.5,304.4C236.7,305.5,235.5,307.5,235.5,309.7z"/>
	</g>
</g>
<g>
	<g>
		<path class="st16" d="M485.4,183.5c-2.4,1.4-4.3,4.7-4.3,7.4c0,2.7,1.9,3.8,4.3,2.4s4.3-4.7,4.3-7.4    C489.7,183.2,487.8,182.1,485.4,183.5"/>
	</g>
</g>
<g>
	<g>
		<path class="st22" d="M471.5,191.1c-2.4,1.4-4.3,4.7-4.3,7.4c0,2.7,1.9,3.8,4.3,2.4c2.4-1.4,4.3-4.7,4.3-7.4    C475.8,190.8,473.9,189.7,471.5,191.1"/>
	</g>
</g>
<g>
	<g>
		<path class="st10" d="M456.2,199.7c-2.4,1.4-4.3,4.7-4.3,7.4c0,2.7,1.9,3.8,4.3,2.4c2.4-1.4,4.3-4.7,4.3-7.4    C460.4,199.4,458.5,198.3,456.2,199.7"/>
	</g>
</g>
<g class="st29">
	<g>
		<path class="st30" d="M236,369.1v128.7l261.5-151v-122c0-4.3-4.7-7-8.4-4.9L238.9,364.2C237.1,365.2,236,367.1,236,369.1z"/>
	</g>
</g>
<g>
	<g>
		<path class="st31" d="M412,367.7c-0.3,0-0.7-0.1-1-0.3c-1-0.5-1.3-1.8-0.8-2.8l18.2-33.1c1.6-2.8,4.1-4.9,7.2-5.7    c3.1-0.9,6.4-0.5,9.1,1.1l6,3.4c2.2,1.3,4.8,1.5,7.2,0.5c2.4-0.9,4.2-2.9,4.9-5.3l15.3-49.1c0.3-1.1,1.5-1.7,2.5-1.3    c1.1,0.3,1.7,1.5,1.3,2.5l-15.3,49.1c-1.1,3.6-3.8,6.5-7.3,7.8s-7.4,1.1-10.7-0.8l-6-3.4c-1.8-1.1-4-1.3-6-0.7    c-2,0.6-3.7,1.9-4.8,3.8l-18.2,33.1C413.4,367.3,412.7,367.7,412,367.7z"/>
	</g>
</g>
<g>
	<g>
		<path class="st32" d="M264.4,392.4c-0.7,0-1.4-0.4-1.8-1c-0.6-1-0.2-2.2,0.8-2.8l130.1-74.1c1-0.6,2.2-0.2,2.8,0.8    s0.2,2.2-0.8,2.8l-130.1,74.1C265.1,392.3,264.8,392.4,264.4,392.4z"/>
	</g>
</g>
<g>
	<g>
		<path class="st32" d="M264.4,410.7c-0.7,0-1.4-0.4-1.8-1c-0.6-1-0.2-2.2,0.8-2.8l130.1-74.1c1-0.6,2.2-0.2,2.8,0.8    c0.6,1,0.2,2.2-0.8,2.8l-130.1,74.1C265.1,410.6,264.8,410.7,264.4,410.7z"/>
	</g>
</g>
<g>
	<g>
		<path class="st32" d="M264.4,429c-0.7,0-1.4-0.4-1.8-1c-0.6-1-0.2-2.2,0.8-2.8l130.1-74.1c1-0.6,2.2-0.2,2.8,0.8s0.2,2.2-0.8,2.8    l-130.1,74.1C265.1,428.9,264.8,429,264.4,429z"/>
	</g>
</g>
<g>
	<g>
		<path class="st32" d="M264.4,447.3c-0.7,0-1.4-0.4-1.8-1c-0.6-1-0.2-2.2,0.8-2.8l130.1-74.1c1-0.6,2.2-0.2,2.8,0.8    c0.6,1,0.2,2.2-0.8,2.8l-130.1,74.1C265.1,447.3,264.8,447.3,264.4,447.3z"/>
	</g>
</g>
<g>
	<g>
		<path class="st32" d="M264.4,465.7c-0.7,0-1.4-0.4-1.8-1c-0.6-1-0.2-2.2,0.8-2.8l73-41.6c1-0.6,2.2-0.2,2.8,0.8    c0.6,1,0.2,2.2-0.8,2.8l-73,41.6C265.1,465.6,264.8,465.7,264.4,465.7z"/>
	</g>
</g>
<style xmlns="" id="global-dark-mode" media="screen"/></svg>