<svg fill="#000000" xmlns="http://www.w3.org/2000/svg" xmlns:xlink="http://www.w3.org/1999/xlink" version="1.1" x="0px" y="0px" viewBox="0 0 65 65" enable-background="new 0 0 65 65" xml:space="preserve" width="50" height="50">
                                      <g>
                                        <path fill="#d20805" d="M43.8,36.4c2.9-2.9,3.9-7.3,2.5-11.2c-0.1-0.2-0.3-0.4-0.5-0.5c-0.3-0.1-0.5,0-0.7,0.2l-3.6,3.6c-0.1,0.1-0.2,0.3-0.2,0.5   c-0.1,1.3-0.6,2.4-1.5,3.3l-7.4,7.4c-0.9,0.9-2.1,1.4-3.3,1.5c-0.2,0-0.4,0.1-0.5,0.2l-3.6,3.6c-0.2,0.2-0.3,0.4-0.2,0.7   c0.1,0.3,0.2,0.5,0.5,0.5c1.2,0.4,2.4,0.6,3.6,0.6c2.9,0,5.6-1.1,7.6-3.1L43.8,36.4z M28.8,45.4c-0.7,0-1.3-0.1-2-0.2l2.5-2.5   c1.5-0.1,2.9-0.8,4-1.9l7.4-7.4c1.1-1.1,1.7-2.5,1.9-4l2.5-2.5c0.6,3-0.3,6.3-2.5,8.5l-7.4,7.4C33.6,44.5,31.3,45.4,28.8,45.4z"></path>
                                        <path fill="#d20805" d="M21.2,28.6c-2.9,2.9-3.9,7.3-2.5,11.2c0.1,0.2,0.3,0.4,0.5,0.5c0.1,0,0.1,0,0.2,0c0.2,0,0.4-0.1,0.5-0.2l3.6-3.6   c0.1-0.1,0.2-0.3,0.2-0.5c0.1-1.3,0.6-2.4,1.5-3.3l7.5-7.5c0.9-0.9,2.1-1.4,3.3-1.5c0.2,0,0.4-0.1,0.5-0.2l3.6-3.6   c0.2-0.2,0.3-0.4,0.2-0.7c-0.1-0.3-0.2-0.5-0.5-0.5c-1.2-0.4-2.4-0.6-3.6-0.6c-2.9,0-5.5,1.1-7.6,3.1L21.2,28.6z M36.2,19.6   c0.7,0,1.3,0.1,2,0.2l-2.5,2.5c-1.5,0.1-2.9,0.8-4,1.9l-7.5,7.5c-1.1,1.1-1.7,2.5-1.9,4l-2.5,2.5c-0.6-3,0.3-6.3,2.5-8.5l7.5-7.5   C31.4,20.5,33.7,19.6,36.2,19.6z"></path>
                                        <path fill="#d20805" d="M35.8,29l0.3,0.3c0.4,0.4,1,0.7,1.6,0.7c0.6,0,1.2-0.2,1.6-0.7l9-9c0.9-0.9,0.9-2.3,0-3.2L48,16.8c-0.8-0.8-2.3-0.8-3.2,0   l-9,9C34.9,26.7,34.9,28.1,35.8,29z M36.8,26.9l9-9c0.1-0.1,0.3-0.2,0.5-0.2c0.2,0,0.4,0.1,0.5,0.2l0.3,0.3c0.3,0.3,0.3,0.7,0,1   l-9,9c-0.3,0.3-0.8,0.3-1,0l-0.3-0.3C36.6,27.6,36.6,27.1,36.8,26.9z"></path>
                                        <path fill="#d20805" d="M29.9,37.6c0-0.6-0.2-1.2-0.7-1.6L29,35.8c-0.8-0.8-2.3-0.8-3.2,0l-9,9c-0.9,0.9-0.9,2.3,0,3.2l0.3,0.3   c0.4,0.4,1,0.7,1.6,0.7c0.6,0,1.2-0.2,1.6-0.7l9-9C29.6,38.8,29.9,38.2,29.9,37.6z M28.1,38.1l-9,9c-0.3,0.3-0.8,0.3-1,0l-0.3-0.3   c-0.3-0.3-0.3-0.8,0-1l9-9c0.1-0.1,0.3-0.2,0.5-0.2c0.2,0,0.4,0.1,0.5,0.2l0.3,0.3c0.1,0.1,0.2,0.3,0.2,0.5   C28.4,37.8,28.3,38,28.1,38.1z"></path>
                                        <path  d="M58.5,38.4l6.7-1.3l-0.1-9.7l-6.7-1.2c-0.7-2.8-1.8-5.5-3.3-7.9l3.8-5.7L52,5.8l-5.6,3.9c-2.5-1.5-5.1-2.6-8-3.2l-1.3-6.7   l-9.7,0l-1.2,6.7c-2.8,0.7-5.5,1.8-7.9,3.3L12.6,6L5.8,13l3.9,5.6c-1.5,2.4-2.6,5.1-3.2,8l-6.7,1.3l0.1,9.7l6.7,1.2   c0.7,2.8,1.8,5.5,3.3,7.9l-3.8,5.7l6.9,6.8l5.6-3.9c2.5,1.5,5.2,2.6,8,3.2l1.3,6.7l9.7-0.1l1.2-6.7c2.8-0.7,5.5-1.8,7.9-3.3   l5.7,3.8l6.8-6.9l-3.9-5.6C56.8,43.9,57.9,41.2,58.5,38.4z M57.3,51.9L52.2,57l-5.5-3.7l-0.4,0.3c-2.5,1.7-5.3,2.9-8.4,3.5   l-0.5,0.1l-1.2,6.5l-7.2,0.1l-1.2-6.5l-0.5-0.1c-3-0.6-5.8-1.8-8.4-3.4l-0.4-0.3l-5.4,3.8L8,52.2l3.7-5.5l-0.3-0.4   C9.8,43.8,8.6,41,7.9,38l-0.1-0.5l-6.5-1.2l0-7.2l6.5-1.2l0.1-0.5c0.6-3,1.8-5.8,3.4-8.4l0.3-0.4l-3.8-5.4L12.8,8l5.4,3.7l0.4-0.3   c2.6-1.7,5.4-2.9,8.3-3.5l0.5-0.1l1.2-6.5l7.2,0l1.2,6.5l0.5,0.1c3,0.6,5.8,1.8,8.4,3.4l0.4,0.3l5.4-3.8l5.1,5.1l-3.7,5.4l0.3,0.4   c1.7,2.6,2.9,5.4,3.5,8.4l0.1,0.5l6.5,1.2l0,7.2l-6.5,1.2l-0.1,0.5c-0.6,3-1.7,5.8-3.4,8.4l-0.3,0.4L57.3,51.9z"></path>
                                        <path d="M32.5,51.6v1.5c11.3,0,20.6-9.2,20.6-20.6h-1.5C51.6,43,43,51.6,32.5,51.6z"></path>
                                        <path d="M32.5,13.4v-1.5c-11.3,0-20.6,9.2-20.6,20.6h1.5C13.4,22,22,13.4,32.5,13.4z"></path>
                                      </g>
                                    </svg>