<svg fill="#000000" xmlns="http://www.w3.org/2000/svg" xmlns:xlink="http://www.w3.org/1999/xlink" version="1.1" x="0px" y="0px" viewBox="0 0 64 64" enable-background="new 0 0 64 64" xml:space="preserve" width="50" height="50">
  <g>
    <g>
      <line fill="none" stroke="#d20805" stroke-width="2" stroke-miterlimit="10" x1="50" y1="16" x2="52" y2="16"></line>
      <line fill="none" stroke="#d20805" stroke-width="2" stroke-miterlimit="10" x1="54" y1="16" x2="56" y2="16"></line>
      <line fill="none" stroke="#d20805" stroke-width="2" stroke-miterlimit="10" x1="55" y1="19" x2="55" y2="21"></line>
      <line fill="none" stroke="#d20805" stroke-width="2" stroke-miterlimit="10" x1="55" y1="23" x2="55" y2="25"></line>
      <line fill="none" stroke="#d20805" stroke-width="2" stroke-miterlimit="10" x1="55" y1="27" x2="55" y2="29"></line>
      <line fill="none" stroke="#d20805" stroke-width="2" stroke-miterlimit="10" x1="55" y1="31" x2="55" y2="33"></line>
      <line fill="none" stroke="#d20805" stroke-width="2" stroke-miterlimit="10" x1="55" y1="35" x2="55" y2="37"></line>
      <line fill="none" stroke="#d20805" stroke-width="2" stroke-miterlimit="10" x1="14" y1="48" x2="12" y2="48"></line>
      <line fill="none" stroke="#d20805" stroke-width="2" stroke-miterlimit="10" x1="10" y1="48" x2="8" y2="48"></line>
      <line fill="none" stroke="#d20805" stroke-width="2" stroke-miterlimit="10" x1="9" y1="45" x2="9" y2="43"></line>
      <line fill="none" stroke="#d20805" stroke-width="2" stroke-miterlimit="10" x1="9" y1="41" x2="9" y2="39"></line>
      <line fill="none" stroke="#d20805" stroke-width="2" stroke-miterlimit="10" x1="9" y1="37" x2="9" y2="35"></line>
      <line fill="none" stroke="#d20805" stroke-width="2" stroke-miterlimit="10" x1="9" y1="33" x2="9" y2="31"></line>
      <line fill="none" stroke="#d20805" stroke-width="2" stroke-miterlimit="10" x1="9" y1="29" x2="9" y2="27"></line>
      <g>
        <path fill="none" stroke="#d20805" stroke-width="2" stroke-miterlimit="10" d="M47,50H31c-0.6,0-1-0.4-1-1v-2c0-0.6,0.4-1,1-1     h16c0.6,0,1,0.4,1,1v2C48,49.6,47.6,50,47,50z"></path>
        <path fill="none" stroke="#000000" stroke-width="2" stroke-miterlimit="10" d="M36,50v2c0,2.2-1.8,4-4,4H21c-2.2,0-4-1.8-4-4v-8     c0-2.2,1.8-4,4-4h11c2.2,0,4,1.8,4,4v2"></path>
        <path fill="none" stroke="#000000" stroke-width="2" stroke-miterlimit="10" d="M49,52h-2c-0.6,0-1-0.4-1-1v-1"></path>
        <path fill="none" stroke="#000000" stroke-width="2" stroke-miterlimit="10" d="M46,46v-1c0-0.6,0.4-1,1-1h9c0.6,0,1,0.4,1,1v6     c0,0.6-0.4,1-1,1h-5"></path>
        <path fill="none" stroke="#000000" stroke-width="2" stroke-miterlimit="10" d="M26,44h5c0.6,0,1,0.4,1,1v1"></path>
        <path fill="none" stroke="#000000" stroke-width="2" stroke-miterlimit="10" d="M32,50v1c0,0.6-0.4,1-1,1h-9c-0.6,0-1-0.4-1-1v-6     c0-0.6,0.4-1,1-1h2"></path>
        <path fill="none" stroke="#000000" stroke-width="2" stroke-miterlimit="10" d="M42,46v-2c0-2.2,1.8-4,4-4h11c2.2,0,4,1.8,4,4v8     c0,2.2-1.8,4-4,4H46c-2.2,0-4-1.8-4-4v-2"></path>
      </g>
      <g>
        <path fill="none" stroke="#d20805" stroke-width="2" stroke-miterlimit="10" d="M33,18H17c-0.6,0-1-0.4-1-1v-2c0-0.6,0.4-1,1-1     h16c0.6,0,1,0.4,1,1v2C34,17.6,33.6,18,33,18z"></path>
        <path fill="none" stroke="#000000" stroke-width="2" stroke-miterlimit="10" d="M22,18v2c0,2.2-1.8,4-4,4H7c-2.2,0-4-1.8-4-4v-8     c0-2.2,1.8-4,4-4h11c2.2,0,4,1.8,4,4v2"></path>
        <path fill="none" stroke="#000000" stroke-width="2" stroke-miterlimit="10" d="M35,20h-2c-0.6,0-1-0.4-1-1v-1"></path>
        <path fill="none" stroke="#000000" stroke-width="2" stroke-miterlimit="10" d="M32,14v-1c0-0.6,0.4-1,1-1h9c0.6,0,1,0.4,1,1v6     c0,0.6-0.4,1-1,1h-5"></path>
        <path fill="none" stroke="#000000" stroke-width="2" stroke-miterlimit="10" d="M12,12h5c0.6,0,1,0.4,1,1v1"></path>
        <path fill="none" stroke="#000000" stroke-width="2" stroke-miterlimit="10" d="M18,18v1c0,0.6-0.4,1-1,1H8c-0.6,0-1-0.4-1-1v-6     c0-0.6,0.4-1,1-1h2"></path>
        <path fill="none" stroke="#000000" stroke-width="2" stroke-miterlimit="10" d="M28,14v-2c0-2.2,1.8-4,4-4h11c2.2,0,4,1.8,4,4v8 c0,2.2-1.8,4-4,4H32c-2.2,0-4-1.8-4-4v-2"></path>
      </g>
    </g>
  </g>
</svg>